<?xml version="1.0" encoding="UTF-8" ?>
<!DOCTYPE svg PUBLIC "-//W3C//DTD SVG 1.1//EN" "http://www.w3.org/Graphics/SVG/1.1/DTD/svg11.dtd">
<svg width="667pt" height="215pt" viewBox="0 0 667 215" version="1.1" xmlns="http://www.w3.org/2000/svg">
<g id="#010101fe">
<path fill="#010101" opacity="1.00" d=" M 124.12 10.03 C 126.34 8.52 130.01 8.93 131.36 11.45 C 131.58 12.73 131.58 14.04 131.65 15.34 C 130.82 16.07 129.99 16.81 129.17 17.55 C 127.72 17.53 126.27 17.51 124.82 17.48 C 124.04 16.71 123.25 15.94 122.47 15.17 C 122.66 13.38 122.41 11.19 124.12 10.03 Z" />
<path fill="#010101" opacity="1.00" d=" M 483.38 11.32 C 485.79 11.29 488.20 11.30 490.62 11.33 C 483.34 24.79 483.17 41.94 490.65 55.35 C 488.27 55.44 485.89 55.51 483.52 55.58 C 475.61 42.27 475.71 24.71 483.38 11.32 Z" />
<path fill="#010101" opacity="1.00" d=" M 565.83 11.21 C 568.18 11.26 570.55 11.31 572.92 11.40 C 580.60 24.74 580.47 42.03 573.02 55.44 C 570.53 55.46 568.05 55.44 565.57 55.38 C 570.23 46.77 572.26 36.70 570.74 27.00 C 570.18 21.45 567.87 16.33 565.83 11.21 Z" />
<path fill="#010101" opacity="1.00" d=" M 84.81 13.33 C 87.50 13.32 90.18 13.32 92.87 13.34 C 96.38 20.78 99.17 28.54 102.74 35.96 C 103.78 35.12 104.19 33.78 104.77 32.63 C 107.56 26.18 110.31 19.70 113.20 13.29 C 115.73 13.32 118.25 13.35 120.78 13.39 C 116.12 24.49 111.34 35.55 106.41 46.54 C 103.88 46.51 101.36 46.50 98.84 46.49 C 94.25 35.40 88.94 24.60 84.81 13.33 Z" />
<path fill="#010101" opacity="1.00" d=" M 312.32 13.32 C 320.85 13.90 330.18 11.57 338.00 16.00 C 345.19 19.98 347.36 29.77 344.14 36.99 C 341.56 42.79 335.23 46.38 329.00 46.49 C 323.46 46.64 317.92 46.46 312.39 46.52 C 312.17 35.46 312.28 24.39 312.32 13.32 M 320.35 19.60 C 320.01 26.37 320.25 33.14 320.12 39.92 C 324.31 39.79 328.84 40.68 332.73 38.74 C 339.28 35.49 339.40 24.51 332.83 21.23 C 329.01 19.13 324.53 19.72 320.35 19.60 Z" />
<path fill="#010101" opacity="1.00" d=" M 490.90 13.32 C 493.60 13.32 496.30 13.31 499.01 13.30 C 502.50 20.89 505.52 28.70 509.02 36.29 C 512.95 28.87 515.79 20.93 519.32 13.33 C 521.84 13.32 524.36 13.33 526.88 13.35 C 522.42 24.51 517.39 35.44 512.68 46.50 C 510.16 46.51 507.64 46.51 505.12 46.52 C 500.17 35.55 495.31 24.52 490.90 13.32 Z" />
<path fill="#010101" opacity="1.00" d=" M 529.73 13.30 C 537.31 13.76 545.21 12.21 552.56 14.64 C 560.31 17.19 564.73 26.23 562.57 33.99 C 561.08 41.53 553.42 46.56 546.00 46.51 C 540.52 46.58 535.05 46.54 529.58 46.44 C 529.69 35.39 529.41 24.34 529.73 13.30 M 537.52 19.64 C 537.31 26.38 537.48 33.13 537.37 39.87 C 542.93 39.98 550.12 41.10 553.60 35.56 C 555.80 31.27 555.58 24.75 551.20 21.83 C 547.26 18.92 542.09 19.76 537.52 19.64 Z" />
<path fill="#010101" opacity="1.00" d=" M 138.52 15.41 C 140.98 15.40 143.44 15.39 145.90 15.37 C 146.05 17.45 146.18 19.54 146.29 21.62 C 148.27 21.62 150.26 21.63 152.25 21.64 C 152.30 23.55 152.34 25.47 152.38 27.39 C 150.36 27.40 148.34 27.41 146.32 27.40 C 146.30 31.42 145.83 35.50 146.48 39.49 C 147.94 41.28 150.30 40.18 152.22 40.16 C 152.77 42.10 155.30 45.46 152.15 46.34 C 147.89 47.07 142.24 47.37 139.79 43.01 C 137.40 38.22 138.82 32.61 138.43 27.46 C 137.14 27.42 135.86 27.39 134.57 27.35 C 134.61 25.47 134.65 23.59 134.70 21.71 C 135.95 21.65 137.20 21.58 138.45 21.52 C 138.47 19.48 138.49 17.45 138.52 15.41 Z" />
<path fill="#010101" opacity="1.00" d=" M 123.55 20.74 C 125.94 20.79 128.32 20.84 130.71 20.92 C 130.77 29.45 130.77 37.98 130.72 46.50 C 128.28 46.50 125.84 46.49 123.40 46.45 C 123.49 37.88 123.25 29.31 123.55 20.74 Z" />
<path fill="#010101" opacity="1.00" d=" M 157.37 23.67 C 162.00 20.88 167.67 19.80 172.96 21.05 C 176.71 21.93 180.06 25.06 180.44 29.02 C 180.92 34.82 180.53 40.66 180.63 46.48 C 178.25 46.49 175.87 46.50 173.49 46.49 C 173.49 45.64 173.49 43.95 173.49 43.10 C 173.13 43.89 172.77 44.69 172.42 45.49 C 168.61 46.84 164.13 47.47 160.38 45.69 C 156.04 43.60 154.97 36.89 158.74 33.77 C 162.68 30.43 168.25 31.59 172.99 31.37 C 172.71 30.21 172.44 29.04 172.07 27.91 C 168.08 26.66 163.67 27.19 159.84 28.73 C 159.02 27.04 158.19 25.35 157.37 23.67 M 164.30 36.47 C 164.44 38.37 163.57 41.34 166.31 41.59 C 170.20 42.79 173.83 39.57 173.49 35.64 C 170.40 35.54 167.28 35.59 164.30 36.47 Z" />
<path fill="#010101" opacity="1.00" d=" M 187.48 20.74 C 189.67 20.79 191.87 20.74 194.05 21.08 C 194.19 21.73 194.47 23.05 194.61 23.70 C 197.01 21.61 200.04 20.62 203.19 20.41 C 203.23 22.66 203.26 24.92 203.29 27.18 C 200.34 27.29 196.51 27.78 195.43 31.06 C 194.08 36.07 194.97 41.35 194.70 46.48 C 192.24 46.49 189.79 46.49 187.35 46.47 C 187.40 37.89 187.20 29.31 187.48 20.74 Z" />
<path fill="#010101" opacity="1.00" d=" M 207.15 23.39 C 211.54 20.74 216.99 19.96 221.99 21.00 C 225.51 21.74 228.72 24.44 229.49 28.04 C 230.75 34.08 230.01 40.30 230.21 46.42 C 227.67 46.47 225.12 46.49 222.57 46.48 C 222.64 45.88 222.78 44.68 222.84 44.08 C 219.67 47.41 214.90 46.69 210.75 46.55 C 208.83 44.94 206.46 43.43 205.88 40.82 C 204.85 37.32 207.07 33.48 210.44 32.29 C 214.35 30.87 218.61 31.54 222.68 31.29 C 222.18 30.11 221.69 28.92 221.20 27.73 C 217.09 25.95 212.80 27.31 208.83 28.77 C 208.17 27.01 207.38 25.27 207.15 23.39 M 213.48 37.39 C 211.71 41.74 217.98 42.91 220.62 40.75 C 222.47 39.70 222.37 37.44 222.66 35.61 C 219.68 35.91 215.44 34.66 213.48 37.39 Z" />
<path fill="#010101" opacity="1.00" d=" M 236.57 20.83 C 238.86 20.84 241.15 20.84 243.45 20.84 C 243.45 21.52 243.45 22.89 243.45 23.58 C 246.75 21.18 250.93 19.81 254.98 20.91 C 259.21 21.73 262.27 25.75 262.42 29.98 C 262.77 35.46 262.46 40.95 262.57 46.44 C 260.12 46.48 257.68 46.51 255.24 46.53 C 254.47 41.38 255.06 36.17 254.65 31.00 C 254.59 29.56 253.47 28.50 252.78 27.32 C 249.79 27.24 245.88 26.93 244.59 30.36 C 243.64 35.68 244.56 41.14 243.83 46.49 C 241.37 46.50 238.90 46.49 236.44 46.45 C 236.49 37.91 236.30 29.37 236.57 20.83 Z" />
<path fill="#010101" opacity="1.00" d=" M 268.37 23.62 C 273.48 20.69 279.84 19.48 285.48 21.57 C 288.97 22.81 291.49 26.27 291.55 29.99 C 291.84 35.47 291.58 40.96 291.64 46.45 C 289.26 46.48 286.88 46.49 284.50 46.50 C 284.53 45.90 284.59 44.69 284.62 44.08 C 281.15 47.37 275.66 47.42 271.45 45.73 C 267.06 43.65 265.97 36.93 269.75 33.77 C 273.79 30.39 279.44 31.68 284.28 31.26 C 283.70 30.03 283.44 28.55 282.36 27.62 C 278.51 26.85 274.46 27.21 270.83 28.70 C 270.01 27.01 269.19 25.32 268.37 23.62 M 275.25 36.53 C 275.57 38.16 274.43 40.83 276.64 41.36 C 278.57 42.09 280.91 41.85 282.59 40.60 C 284.44 39.54 283.45 37.12 283.68 35.39 C 280.84 35.58 278.03 35.95 275.25 36.53 Z" />
<path fill="#010101" opacity="1.00" d=" M 350.63 21.23 C 352.94 20.99 355.26 20.81 357.59 20.69 C 357.62 21.46 357.69 23.01 357.72 23.78 C 360.22 21.74 363.26 20.68 366.46 20.36 C 366.51 22.62 366.55 24.88 366.58 27.14 C 364.27 27.45 362.01 28.02 359.80 28.70 C 357.13 34.22 358.61 40.50 358.29 46.39 C 355.73 46.47 353.17 46.49 350.62 46.47 C 350.63 38.05 350.63 29.64 350.63 21.23 Z" />
<path fill="#010101" opacity="1.00" d=" M 377.37 21.46 C 383.56 19.23 391.57 21.04 395.02 26.98 C 398.86 33.35 396.29 42.74 389.24 45.63 C 383.05 47.96 374.71 47.08 370.91 41.04 C 366.16 34.42 369.47 23.83 377.37 21.46 M 379.30 27.37 C 376.89 29.89 375.40 33.56 376.96 36.94 C 378.56 40.82 384.18 41.84 387.18 38.98 C 390.35 35.97 389.78 30.23 386.27 27.72 C 384.02 27.03 381.61 27.42 379.30 27.37 Z" />
<path fill="#010101" opacity="1.00" d=" M 401.65 20.89 C 403.94 20.85 406.23 20.82 408.52 20.79 C 408.55 21.48 408.61 22.87 408.64 23.56 C 411.38 21.64 414.61 20.19 418.04 20.58 C 422.70 20.64 427.02 24.39 427.44 29.09 C 427.90 34.86 427.52 40.66 427.64 46.45 C 425.18 46.48 422.72 46.50 420.26 46.50 C 419.49 40.17 422.15 32.68 417.82 27.29 C 414.89 27.29 411.26 26.94 409.81 30.14 C 408.45 35.47 409.80 41.11 408.86 46.53 C 406.42 46.50 403.98 46.47 401.55 46.42 C 401.63 37.91 401.46 29.40 401.65 20.89 Z" />
<path fill="#010101" opacity="1.00" d=" M 434.62 26.53 C 439.39 18.90 452.05 18.43 457.18 25.89 C 459.42 28.86 459.57 32.68 459.38 36.25 C 453.11 36.35 446.84 36.21 440.57 36.36 C 442.62 42.01 449.92 41.28 453.97 38.40 C 455.21 39.77 456.46 41.13 457.71 42.50 C 453.64 47.58 446.33 47.45 440.64 45.81 C 433.04 43.17 430.20 33.03 434.62 26.53 M 440.08 31.34 C 444.17 31.42 448.27 31.42 452.37 31.21 C 451.40 28.58 449.15 25.99 446.06 26.39 C 443.06 26.10 440.68 28.59 440.08 31.34 Z" />
<path fill="#010101" opacity="1.00" d=" M 119.72 63.71 C 123.03 60.22 128.25 62.35 132.29 60.37 C 132.38 61.37 132.57 63.36 132.67 64.35 C 130.74 65.80 128.83 67.28 127.10 68.96 C 129.74 67.65 132.61 65.15 135.48 67.58 C 134.56 66.11 133.63 64.63 132.82 63.09 C 134.47 64.04 135.78 65.33 135.83 67.34 C 137.19 68.30 138.95 69.14 138.69 71.15 C 137.14 73.43 134.20 72.28 131.91 72.48 C 131.61 72.11 131.00 71.37 130.70 71.01 C 130.34 75.73 126.01 78.37 124.84 82.70 C 130.91 85.27 136.62 89.09 143.30 89.87 C 141.63 88.64 138.05 88.44 138.31 85.85 C 140.76 83.71 144.52 85.68 147.17 86.67 C 147.27 87.33 147.49 88.65 147.59 89.31 L 148.36 89.41 C 148.43 87.34 148.55 85.28 148.75 83.22 C 145.96 83.94 143.10 83.92 140.67 82.22 C 144.70 80.00 149.23 81.32 153.52 81.73 C 156.54 84.42 152.20 87.97 150.78 90.43 C 153.51 90.31 156.24 90.24 158.98 90.32 C 157.94 88.16 156.83 86.00 156.23 83.67 C 158.07 85.55 159.24 87.95 159.55 90.57 C 160.11 90.82 161.22 91.33 161.77 91.59 C 161.66 92.62 161.54 93.65 161.42 94.69 C 159.61 94.62 157.80 94.55 155.98 94.47 C 154.88 93.91 153.77 93.36 152.66 92.83 C 152.61 93.48 152.51 94.78 152.46 95.44 C 150.59 96.76 148.64 99.13 146.08 98.15 C 142.53 97.09 139.26 95.06 135.45 95.09 C 134.78 101.66 134.93 108.63 131.81 114.65 C 130.95 111.73 132.32 108.88 132.78 106.02 C 133.60 102.42 133.52 98.72 133.50 95.05 C 132.23 95.56 130.97 96.08 129.72 96.60 C 129.44 101.61 129.98 108.04 125.65 111.51 C 126.82 106.80 128.27 102.14 128.54 97.26 C 126.46 97.95 123.32 97.76 122.19 99.80 C 123.11 100.17 124.06 100.44 125.01 100.72 C 124.37 101.91 123.75 103.10 123.13 104.29 C 122.67 104.51 121.77 104.95 121.32 105.17 C 121.47 104.52 121.78 103.22 121.93 102.57 C 121.46 102.66 120.52 102.85 120.05 102.94 C 120.46 102.10 120.72 101.22 120.83 100.30 C 120.28 100.33 119.20 100.39 118.66 100.42 C 118.20 102.42 117.71 104.42 117.23 106.43 C 115.35 106.44 113.46 106.61 111.60 106.30 C 109.69 105.44 108.18 103.94 106.57 102.65 C 106.57 105.49 106.74 108.37 106.06 111.16 C 104.71 107.29 104.35 103.16 104.49 99.10 C 105.31 97.57 106.23 96.09 107.11 94.60 C 105.55 94.09 104.02 93.15 102.32 93.35 C 97.60 96.63 98.15 102.94 95.47 107.40 C 94.57 101.50 97.65 96.20 101.01 91.65 C 96.46 90.19 91.68 90.90 87.04 90.31 C 83.40 87.35 87.02 81.05 91.39 82.44 C 93.24 81.01 95.14 79.64 97.03 78.25 C 98.94 78.85 99.92 80.23 99.79 82.22 C 98.60 82.81 97.40 83.41 96.21 84.01 C 98.41 84.61 100.65 86.07 102.97 85.14 C 107.51 83.78 112.13 82.45 116.36 80.26 C 119.77 77.91 119.71 73.37 120.64 69.74 C 121.92 69.04 123.17 68.27 124.41 67.50 C 125.30 65.67 126.20 63.86 127.13 62.06 C 124.88 62.54 122.64 63.08 120.42 63.66 C 121.03 64.98 122.78 66.23 121.80 67.82 C 118.78 69.50 114.85 68.08 112.22 66.19 C 112.25 65.56 112.31 64.31 112.34 63.68 C 114.77 63.12 117.27 63.58 119.72 63.71 M 122.70 69.34 C 122.14 70.88 121.58 72.42 121.02 73.96 C 123.06 72.01 125.54 70.83 128.43 71.19 C 126.91 69.56 124.78 69.33 122.70 69.34 M 120.01 78.03 C 118.93 80.67 115.35 81.74 115.48 84.89 C 114.53 85.38 113.59 85.87 112.65 86.37 C 115.38 86.44 118.25 85.96 120.87 86.96 C 122.84 87.83 125.36 89.54 124.35 92.04 C 120.08 95.37 114.52 93.74 109.68 93.04 C 111.16 94.41 112.73 95.68 114.34 96.90 C 114.49 97.77 114.63 98.63 114.78 99.50 C 112.81 100.27 110.85 101.08 108.92 101.95 C 110.44 104.30 113.14 104.70 115.70 104.91 C 116.01 103.38 116.30 101.85 116.56 100.31 C 119.47 97.47 123.60 96.91 127.19 95.34 C 124.29 95.45 121.08 97.49 118.40 95.77 C 122.60 94.24 127.90 94.34 131.16 91.00 C 128.47 89.16 125.42 87.95 122.63 86.30 C 121.74 85.83 121.21 85.07 121.04 84.03 C 124.92 85.72 128.57 87.87 132.34 89.78 C 132.46 90.70 132.59 91.63 132.72 92.55 C 137.06 92.78 141.09 94.35 145.10 95.88 C 146.89 96.72 148.73 95.79 150.49 95.38 C 150.56 94.42 150.72 92.52 150.80 91.56 C 147.04 89.50 142.89 92.76 139.13 90.83 C 133.82 88.84 128.88 85.98 123.54 84.07 C 123.08 79.70 125.94 75.94 126.41 71.68 C 123.52 72.91 121.33 75.22 120.01 78.03 M 113.29 83.06 C 113.37 86.44 116.24 81.52 113.29 83.06 M 87.42 85.46 C 87.39 86.54 87.35 87.63 87.32 88.71 C 92.44 88.68 97.59 88.75 102.60 89.92 C 102.53 89.35 102.38 88.20 102.30 87.63 C 97.54 86.22 92.39 83.63 87.42 85.46 M 103.40 88.87 C 103.04 91.47 105.19 91.48 107.09 91.37 C 107.59 91.54 108.59 91.89 109.08 92.07 C 109.02 90.13 109.50 88.30 110.80 86.83 C 108.37 87.64 105.90 88.33 103.40 88.87 M 112.49 88.15 C 112.17 88.99 111.52 90.66 111.19 91.50 C 114.05 92.25 117.04 93.08 120.01 92.37 C 121.24 91.98 123.47 92.05 122.80 90.14 C 120.37 87.05 115.93 87.51 112.49 88.15 M 108.75 98.24 C 109.31 98.49 110.44 98.97 111.01 99.22 C 113.95 97.16 106.15 94.62 108.75 98.24 M 107.07 99.21 C 106.49 100.76 107.06 101.28 108.78 100.76 C 109.35 99.22 108.78 98.70 107.07 99.21 Z" />
<path fill="#010101" opacity="1.00" d=" M 93.14 73.99 C 94.45 73.21 96.31 71.88 97.74 73.21 C 98.34 77.75 93.30 81.45 89.04 80.89 C 89.14 78.03 90.72 75.48 93.14 73.99 Z" />
<path fill="#010101" opacity="1.00" d=" M 80.01 78.09 C 82.80 75.37 86.67 74.03 90.55 74.27 C 87.07 75.65 83.52 76.80 80.01 78.09 Z" />
<path fill="#010101" opacity="1.00" d=" M 99.07 75.10 C 101.82 77.01 102.90 80.28 102.82 83.52 C 101.47 80.76 100.30 77.91 99.07 75.10 Z" />
<path fill="#010101" opacity="1.00" d=" M 84.77 77.57 C 86.17 77.51 87.57 77.47 88.97 77.43 C 87.74 77.98 86.49 78.50 85.24 79.01 C 85.48 81.05 85.67 83.09 85.85 85.13 C 84.76 85.36 82.59 85.80 81.50 86.02 L 81.70 84.63 C 79.61 84.24 77.53 83.77 75.45 83.32 C 75.42 82.39 75.42 81.46 75.47 80.53 C 77.90 79.19 80.80 79.72 83.46 79.60 C 83.79 79.09 84.45 78.07 84.77 77.57 Z" />
<path fill="#010101" opacity="1.00" d=" M 350.61 86.69 C 353.35 85.40 356.79 84.55 359.55 86.26 C 356.57 86.53 353.59 86.69 350.61 86.69 Z" />
<path fill="#010101" opacity="1.00" d=" M 54.06 87.69 C 60.79 87.30 67.47 86.15 74.23 86.49 L 73.26 88.09 C 58.88 89.85 44.37 90.44 29.98 92.18 C 24.98 92.69 20.02 93.54 14.99 93.63 C 10.11 94.45 5.15 97.64 4.59 102.96 C 3.44 118.24 6.11 133.44 6.67 148.68 C 6.18 148.61 5.20 148.48 4.71 148.41 C 3.85 139.62 2.52 130.86 2.51 122.00 C 2.53 114.18 0.49 105.97 3.69 98.49 C 5.92 93.89 11.13 91.93 15.92 91.46 C 28.62 90.00 41.34 88.89 54.06 87.69 Z" />
<path fill="#010101" opacity="1.00" d=" M 362.87 88.55 C 363.47 87.96 364.07 87.38 364.66 86.79 C 367.99 87.94 371.27 89.66 372.93 92.93 C 370.62 91.39 368.40 89.72 365.98 88.35 C 365.22 88.62 363.70 89.16 362.94 89.43 C 363.61 90.95 364.35 92.45 365.06 93.96 C 364.09 93.42 363.13 92.87 362.17 92.32 C 361.10 93.14 360.02 93.95 358.95 94.77 C 358.18 94.06 357.42 93.36 356.65 92.66 C 355.48 92.19 354.33 91.69 353.21 91.10 C 354.97 90.88 356.73 90.61 358.47 90.27 C 356.01 90.06 353.28 89.70 351.17 91.30 C 351.81 91.56 353.10 92.09 353.75 92.35 L 353.14 93.51 C 355.49 93.25 358.09 93.48 359.08 96.01 C 361.00 100.02 356.00 102.47 355.44 106.03 C 359.51 110.73 365.40 115.00 371.97 113.59 C 369.87 111.87 369.16 109.43 369.57 106.80 C 373.09 106.58 376.85 106.20 380.06 107.98 C 380.28 108.59 380.70 109.80 380.92 110.41 C 382.44 110.68 384.02 110.85 385.44 111.53 C 385.78 112.55 384.95 113.41 384.63 114.31 C 384.39 117.02 383.80 119.79 384.66 122.45 C 387.85 119.92 387.91 116.00 387.58 112.32 C 389.21 114.71 389.29 118.08 387.76 120.54 C 386.53 122.60 384.03 123.16 381.85 123.55 C 380.03 122.69 379.05 120.91 378.09 119.25 C 377.78 120.00 377.48 120.74 377.18 121.49 C 373.33 121.79 369.32 120.68 365.60 121.99 C 364.29 122.70 362.31 119.84 364.50 119.55 C 368.22 116.93 372.95 120.34 377.01 118.55 C 376.71 117.58 376.38 116.63 376.02 115.69 C 372.69 115.23 369.33 116.39 366.02 115.60 C 362.98 115.02 360.39 113.23 357.78 111.66 C 359.94 114.12 362.93 116.13 363.70 119.51 C 360.39 118.31 358.33 115.34 355.65 113.24 C 353.17 111.05 350.01 109.48 348.46 106.42 C 351.52 106.17 353.65 108.54 355.88 110.21 C 354.93 108.80 353.29 107.63 353.21 105.81 C 352.96 102.41 357.41 100.62 356.75 97.10 C 357.01 94.69 353.64 95.33 352.99 96.98 C 350.59 100.78 348.39 105.12 343.79 106.66 C 345.60 106.66 347.47 106.62 349.01 107.75 C 347.95 108.57 346.92 109.39 345.86 110.19 C 348.21 110.55 350.82 110.47 352.80 112.00 C 358.07 115.70 362.78 120.48 365.65 126.29 C 366.42 133.71 362.22 141.06 356.82 145.90 C 350.75 147.99 344.18 147.82 337.84 147.54 C 337.42 147.14 336.57 146.34 336.14 145.94 C 335.10 146.92 333.01 148.88 331.97 149.87 C 332.47 148.51 333.46 145.80 333.96 144.45 C 329.98 141.26 325.91 137.75 323.82 132.99 C 323.06 131.48 324.19 129.90 324.56 128.44 C 326.28 123.59 329.36 119.39 331.13 114.57 C 327.02 114.30 320.47 114.40 319.60 109.16 C 320.29 106.18 321.26 103.24 322.66 100.52 C 323.45 98.93 326.29 98.41 327.18 100.06 C 326.96 101.70 326.55 103.31 326.18 104.93 C 328.13 105.71 330.07 106.49 332.05 107.23 C 331.17 104.91 330.10 102.67 328.98 100.46 C 331.71 101.92 332.98 104.63 332.46 107.69 C 337.80 106.86 343.04 105.15 347.47 101.98 C 344.48 100.47 341.40 98.80 339.53 95.90 C 342.54 97.34 345.18 99.41 347.81 101.43 C 349.03 98.93 350.39 96.50 351.94 94.19 C 351.18 94.28 349.66 94.45 348.90 94.54 C 346.93 92.89 344.18 91.46 344.47 88.46 C 349.28 89.49 354.09 88.73 358.95 88.74 C 359.62 88.30 360.97 87.41 361.65 86.97 L 362.87 88.55 M 322.21 107.12 C 322.26 108.29 322.31 109.46 322.37 110.63 C 326.50 111.79 330.93 111.86 334.78 113.93 C 334.74 112.65 334.71 111.38 334.69 110.10 C 335.30 109.93 336.53 109.59 337.14 109.42 C 331.87 110.65 327.41 106.87 322.21 107.12 M 337.58 111.59 C 339.94 111.70 342.36 111.52 344.44 110.31 C 342.09 110.30 339.75 110.67 337.58 111.59 M 375.43 109.26 C 375.49 110.24 375.60 112.20 375.66 113.18 C 378.11 115.22 380.55 117.29 383.20 119.08 C 383.27 117.86 383.34 116.63 383.41 115.41 C 381.75 115.07 379.55 115.96 378.24 114.66 C 377.71 113.07 379.11 111.98 379.89 110.81 C 378.40 110.30 376.91 109.77 375.43 109.26 M 346.30 113.45 C 343.58 119.18 339.08 123.88 336.86 129.86 C 339.30 129.75 341.80 129.83 344.19 129.19 C 347.39 124.37 349.09 118.69 350.97 113.26 C 349.41 113.29 347.84 113.26 346.30 113.45 M 337.88 114.82 C 336.50 116.33 335.84 118.30 334.95 120.10 C 333.31 123.85 330.41 126.86 328.83 130.64 C 330.66 130.64 332.50 130.63 334.34 130.61 C 335.77 124.34 340.59 119.83 343.20 114.13 C 341.42 114.32 339.61 114.35 337.88 114.82 M 352.95 115.14 C 350.93 120.73 348.33 126.08 346.07 131.57 C 350.02 134.90 353.38 138.84 356.44 142.99 C 360.53 138.57 363.38 132.91 363.83 126.86 C 362.41 131.97 360.34 136.90 357.03 141.10 C 353.63 138.40 351.06 134.85 348.51 131.39 C 350.85 127.09 351.61 122.18 353.73 117.81 C 354.31 117.73 355.47 117.58 356.05 117.50 C 355.00 116.72 353.97 115.94 352.95 115.14 M 326.06 131.19 C 328.07 125.73 332.39 121.48 334.01 115.86 C 330.67 120.56 327.73 125.64 326.06 131.19 M 354.92 120.95 C 353.89 124.43 352.69 127.85 351.22 131.17 C 353.05 133.15 354.36 135.86 356.89 137.04 C 358.56 134.85 359.81 132.33 360.48 129.66 C 361.58 125.83 358.09 122.46 354.92 120.95 M 337.18 132.51 C 337.46 134.46 337.74 136.44 337.29 138.40 C 335.91 136.63 334.92 134.63 334.08 132.57 C 332.73 132.71 331.38 132.85 330.04 133.00 C 331.36 134.52 332.67 136.06 333.91 137.65 C 330.23 138.26 328.77 134.40 326.23 132.61 C 329.24 137.88 333.73 142.29 339.15 145.06 C 340.48 141.40 343.25 145.00 345.30 145.82 C 345.44 144.45 345.58 143.07 345.76 141.71 C 346.65 142.72 347.54 143.75 348.43 144.78 C 350.28 144.66 352.14 144.53 353.99 144.37 C 351.46 139.25 346.80 135.72 342.99 131.60 C 341.05 131.92 339.12 132.23 337.18 132.51 Z" />
<path fill="#010101" opacity="1.00" d=" M 170.13 93.54 C 170.82 93.66 171.52 93.79 172.22 93.91 C 170.49 94.90 168.78 95.88 167.07 96.89 C 167.01 96.61 166.88 96.03 166.81 95.74 C 168.07 95.24 169.17 94.50 170.13 93.54 Z" />
<path fill="#010101" opacity="1.00" d=" M 359.35 95.35 C 362.79 93.00 366.39 95.75 368.13 98.78 C 368.77 98.36 370.03 97.51 370.66 97.09 C 369.55 100.25 366.93 102.65 363.55 103.07 C 364.73 101.68 366.21 100.61 367.72 99.60 C 365.41 99.63 363.11 99.54 360.81 99.40 C 360.32 98.05 359.83 96.70 359.35 95.35 Z" />
<path fill="#010101" opacity="1.00" d=" M 164.49 98.01 C 164.13 96.62 164.66 96.14 166.07 96.56 C 166.42 97.94 165.89 98.42 164.49 98.01 Z" />
<path fill="#010101" opacity="1.00" d=" M 310.85 101.03 C 313.41 97.93 317.48 96.86 321.36 97.51 C 317.88 98.75 314.26 99.59 310.85 101.03 Z" />
<path fill="#010101" opacity="1.00" d=" M 565.94 99.52 C 595.92 97.37 626.00 96.95 656.06 97.55 C 659.63 97.41 661.59 101.18 662.23 104.20 C 662.83 110.79 661.67 117.37 661.75 123.97 C 661.78 135.32 661.44 146.68 662.30 158.01 C 662.19 170.52 663.09 183.04 662.46 195.54 C 634.64 195.57 606.81 195.39 578.99 195.53 C 569.80 195.25 560.60 195.75 551.42 195.20 C 551.81 194.85 552.58 194.16 552.97 193.81 C 559.35 193.41 565.76 194.03 572.15 193.53 C 572.32 192.16 572.52 190.80 572.75 189.45 C 572.97 190.86 573.17 192.28 573.36 193.71 C 574.50 193.70 575.65 193.70 576.81 193.70 C 576.74 192.29 576.67 190.88 576.61 189.48 C 578.28 189.06 579.95 188.65 581.63 188.26 C 581.65 190.03 581.65 191.79 581.67 193.56 C 582.66 193.61 584.63 193.70 585.61 193.74 C 585.70 190.64 584.83 187.27 586.28 184.37 C 587.20 187.63 585.36 191.99 588.27 194.42 C 587.99 192.16 587.65 189.92 587.36 187.67 C 590.51 187.21 593.66 186.20 596.87 186.58 C 599.53 187.14 602.08 188.10 604.71 188.79 C 604.94 190.45 605.17 192.12 605.40 193.79 C 608.86 193.77 612.33 193.79 615.80 193.81 C 615.75 192.02 615.71 190.24 615.68 188.46 C 612.63 187.79 609.59 187.11 606.56 186.39 C 606.39 185.89 606.03 184.89 605.86 184.39 C 603.82 184.53 601.79 184.56 599.76 184.55 C 599.42 183.48 599.02 182.44 598.58 181.43 C 596.59 181.32 594.61 181.48 592.63 181.46 C 595.47 179.45 599.87 179.79 600.94 183.57 C 601.90 183.61 602.87 183.66 603.85 183.70 C 603.34 181.44 602.83 179.17 602.46 176.88 C 602.02 176.45 601.14 175.60 600.70 175.17 C 601.62 175.27 603.44 175.47 604.35 175.57 C 603.63 174.90 602.19 173.55 601.47 172.88 C 601.37 171.71 601.27 170.55 601.18 169.40 C 600.39 168.48 599.64 167.56 598.90 166.62 C 601.57 167.68 602.74 170.20 602.45 172.97 C 605.40 173.24 604.58 176.07 603.93 177.96 C 602.98 179.85 604.65 181.38 605.58 182.84 C 605.73 177.12 605.34 171.35 606.38 165.68 C 614.15 164.29 621.90 162.76 629.67 161.31 C 629.67 160.35 629.67 158.43 629.67 157.47 C 628.78 157.48 627.01 157.48 626.12 157.48 C 625.83 155.83 625.66 154.16 625.59 152.49 C 620.55 152.99 615.44 152.86 610.53 151.51 C 614.83 155.21 620.72 153.86 625.69 155.38 C 619.00 156.72 612.54 154.29 606.66 151.33 C 600.52 148.13 593.49 149.98 586.90 149.24 C 584.42 148.61 581.94 148.00 579.49 147.29 C 578.88 142.66 579.97 138.00 579.56 133.40 C 577.95 131.88 576.15 130.36 574.02 129.69 C 570.39 129.53 566.75 129.70 563.12 129.52 C 563.21 128.80 563.38 127.37 563.47 126.65 C 564.81 126.33 566.18 126.01 567.52 125.64 C 566.72 125.69 565.12 125.80 564.32 125.85 C 564.34 124.22 564.35 122.58 564.39 120.95 C 567.03 121.96 570.02 123.11 570.79 126.17 C 569.86 126.35 568.01 126.72 567.08 126.90 C 568.23 127.31 569.39 127.72 570.56 128.12 C 571.01 126.05 571.43 123.97 571.83 121.89 C 570.62 121.21 569.42 120.55 568.21 119.91 C 566.24 119.92 564.78 118.95 563.91 117.23 C 566.49 118.94 569.59 118.68 572.55 118.66 C 572.49 119.44 572.37 121.01 572.32 121.79 C 573.27 121.51 575.19 120.96 576.14 120.68 C 578.16 122.43 574.96 125.81 578.20 127.02 C 583.33 128.58 588.73 126.95 593.79 125.82 C 595.96 125.38 595.53 122.70 596.32 121.12 C 596.61 119.05 599.21 119.95 600.64 119.52 C 602.17 117.70 604.44 117.22 606.72 117.15 C 606.61 118.28 606.51 119.41 606.41 120.54 C 605.08 120.50 603.75 120.46 602.44 120.41 C 602.43 121.56 602.43 122.71 602.43 123.86 C 600.45 125.13 598.58 126.57 596.90 128.21 C 600.44 130.04 604.34 131.00 608.27 131.54 C 608.41 130.77 608.69 129.22 608.83 128.45 C 609.21 129.86 609.59 131.27 609.98 132.69 C 607.51 132.56 605.05 132.40 602.59 132.23 C 603.65 133.05 604.71 133.86 605.79 134.68 C 607.86 134.58 609.93 134.48 612.01 134.39 C 612.53 133.77 613.57 132.52 614.09 131.90 C 613.96 132.80 613.69 134.59 613.55 135.49 C 611.24 135.85 608.94 136.23 606.64 136.57 C 606.83 140.65 606.95 144.87 605.03 148.60 C 606.40 148.31 607.78 147.97 609.06 147.35 C 609.18 147.84 609.43 148.84 609.55 149.33 C 613.94 151.67 619.05 152.52 623.96 151.57 C 626.90 150.65 629.69 149.27 632.51 148.02 C 631.76 147.84 630.27 147.48 629.53 147.30 C 629.05 146.03 628.60 144.76 628.15 143.49 C 629.11 142.93 630.10 142.37 631.09 141.82 C 627.59 141.33 626.30 138.12 626.26 134.97 C 628.37 134.77 630.72 134.71 631.64 132.41 C 635.23 130.28 639.00 132.26 642.33 133.88 C 644.46 137.73 643.69 142.15 642.49 146.15 C 643.19 148.75 644.36 151.20 645.30 153.72 C 646.05 153.98 647.56 154.49 648.31 154.74 C 647.17 155.11 646.04 155.48 644.92 155.84 C 643.56 154.06 642.17 152.31 640.68 150.65 C 640.24 155.76 640.21 161.62 644.31 165.40 C 644.06 166.76 643.84 168.13 643.64 169.50 C 649.26 169.47 654.79 170.75 660.43 170.58 C 660.40 166.92 660.36 163.26 660.34 159.60 C 654.65 159.49 648.95 159.39 643.26 159.43 C 643.23 159.19 643.18 158.70 643.16 158.45 C 648.86 158.44 654.57 158.59 660.27 158.58 C 660.39 149.70 659.39 140.86 659.65 131.98 C 659.85 123.64 659.44 115.29 660.07 106.96 C 659.92 105.30 659.57 103.66 659.29 102.01 C 658.57 101.22 657.87 100.42 657.17 99.62 C 638.51 99.52 619.85 99.37 601.20 99.76 C 593.17 100.83 585.05 100.10 577.02 101.07 C 572.04 101.46 567.01 101.80 562.03 101.29 C 563.03 100.16 564.41 99.47 565.94 99.52 M 597.71 121.37 C 597.50 122.83 597.29 124.28 597.07 125.74 C 598.58 124.51 600.26 123.34 601.13 121.52 C 599.98 121.46 598.84 121.41 597.71 121.37 M 572.88 125.19 C 572.68 125.72 572.29 126.77 572.09 127.29 C 575.26 127.75 577.84 129.61 580.18 131.69 C 581.62 131.01 583.08 130.35 584.52 129.66 C 583.05 129.41 581.58 129.14 580.13 128.84 C 577.34 128.46 575.48 126.06 572.88 125.19 M 589.88 129.14 C 591.70 129.43 593.55 129.70 595.39 129.96 C 595.92 128.54 596.47 127.13 597.07 125.74 C 594.71 126.96 592.29 128.05 589.88 129.14 M 586.32 128.94 C 586.41 132.32 589.27 127.40 586.32 128.94 M 582.42 132.48 C 581.20 133.73 580.93 135.97 581.40 137.59 C 582.76 137.12 584.28 132.96 582.42 132.48 M 584.86 132.63 C 584.43 134.58 583.95 136.53 583.48 138.47 C 583.92 138.56 584.81 138.75 585.25 138.85 C 585.36 137.59 585.47 136.34 585.59 135.09 C 586.02 134.15 586.45 133.22 586.87 132.28 C 586.37 132.37 585.36 132.54 584.86 132.63 M 589.56 131.36 C 588.96 134.07 588.46 136.82 588.11 139.58 C 589.85 139.62 591.59 139.65 593.35 139.67 C 593.38 136.88 593.42 134.08 593.43 131.29 C 592.46 131.31 590.53 131.34 589.56 131.36 M 594.37 131.18 C 594.35 133.74 594.44 136.32 594.93 138.85 C 597.49 138.55 600.06 138.24 602.63 137.96 C 602.67 137.04 602.75 135.20 602.79 134.28 C 600.39 134.29 598.00 134.29 595.62 134.15 C 596.74 133.92 598.98 133.46 600.11 133.22 C 598.67 132.71 595.80 131.69 594.37 131.18 M 631.51 137.56 C 631.57 136.82 631.71 135.34 631.77 134.60 C 630.18 135.13 628.59 135.61 626.99 136.07 C 627.57 137.48 628.16 138.88 628.76 140.28 C 629.64 140.28 631.41 140.26 632.29 140.25 C 631.56 142.16 629.32 143.92 629.90 146.04 C 632.26 147.32 634.86 148.00 637.40 148.82 C 634.07 149.77 630.73 150.65 627.40 151.59 C 627.48 153.11 627.57 154.64 627.66 156.17 C 628.94 156.24 630.23 156.31 631.53 156.38 C 633.42 159.97 633.24 164.04 633.53 167.96 C 636.22 168.70 639.07 168.53 641.83 168.85 C 642.02 168.18 642.40 166.84 642.59 166.17 C 638.53 161.28 639.14 154.81 639.44 148.91 C 637.77 147.04 637.07 144.82 637.53 142.35 C 635.53 139.29 635.88 135.30 633.97 132.15 C 632.94 133.86 632.30 135.75 631.51 137.56 M 635.99 132.34 C 636.61 134.93 637.27 137.52 637.70 140.16 C 638.14 140.59 639.00 141.47 639.43 141.91 C 638.86 143.80 638.31 145.78 639.94 147.38 C 641.64 144.30 643.68 140.86 642.71 137.20 C 641.90 134.18 638.54 133.30 635.99 132.34 M 596.48 139.18 C 596.65 139.57 596.97 140.35 597.14 140.74 C 598.77 141.33 600.14 139.78 601.61 139.35 C 601.85 140.07 602.35 141.49 602.59 142.21 C 602.98 141.24 603.74 139.30 604.12 138.34 C 601.56 138.49 598.96 138.48 596.48 139.18 M 583.43 140.23 C 583.57 142.61 583.75 145.00 584.26 147.34 C 584.60 144.92 584.67 142.48 584.77 140.05 C 584.43 140.10 583.76 140.18 583.43 140.23 M 588.02 140.13 C 587.76 142.59 587.62 145.05 587.51 147.52 C 592.89 148.33 598.56 146.49 603.71 148.62 C 603.99 146.52 602.61 145.10 601.20 143.80 C 600.30 143.77 598.50 143.71 597.60 143.69 C 598.15 143.42 599.26 142.88 599.81 142.61 C 599.16 141.87 598.27 141.64 597.16 141.95 C 594.98 142.36 597.55 145.18 597.32 146.53 C 596.35 144.20 595.62 141.77 594.96 139.35 C 594.38 141.72 593.96 144.14 593.27 146.49 C 593.16 144.40 593.21 142.30 593.25 140.21 C 591.50 140.18 589.76 140.15 588.02 140.13 M 613.80 165.38 C 618.96 166.59 624.24 167.19 629.52 167.71 C 629.57 165.89 629.64 164.08 629.70 162.27 C 624.41 163.34 619.05 164.11 613.80 165.38 M 607.12 185.44 C 611.85 186.60 616.66 187.62 621.55 187.75 C 621.15 181.96 621.20 176.14 621.22 170.34 L 622.36 170.44 C 622.27 176.38 622.21 182.34 622.61 188.27 C 624.58 188.38 626.56 188.48 628.55 188.59 C 628.67 182.44 629.20 176.31 629.54 170.17 C 628.48 170.23 627.42 170.30 626.37 170.37 C 626.04 176.05 627.36 182.01 625.61 187.50 C 624.99 181.58 625.42 175.63 625.35 169.70 C 623.37 169.26 621.40 168.80 619.44 168.34 C 618.66 174.60 620.22 181.09 618.62 187.21 C 617.24 180.65 619.77 173.50 616.94 167.29 C 614.29 173.38 616.83 180.29 614.55 186.42 C 614.13 180.36 614.79 174.29 614.76 168.22 C 613.72 168.24 611.65 168.27 610.61 168.29 C 610.47 173.75 610.83 179.21 610.44 184.66 C 608.81 181.36 609.72 177.55 609.55 174.02 C 609.36 171.16 610.37 167.70 607.74 165.66 C 605.91 172.06 606.64 178.89 607.12 185.44 M 630.23 170.22 C 630.36 176.28 630.12 182.34 629.54 188.38 C 630.86 188.58 632.18 188.78 633.51 188.98 C 633.64 182.84 633.39 176.70 633.34 170.57 C 632.56 170.48 631.01 170.30 630.23 170.22 M 634.43 170.58 C 634.39 176.85 634.62 183.12 634.64 189.39 C 636.40 189.43 638.25 189.34 639.60 188.05 C 638.93 182.25 639.95 176.34 638.53 170.63 C 637.50 170.61 635.45 170.59 634.43 170.58 M 639.90 189.64 C 644.98 190.49 650.97 190.22 655.06 193.79 C 656.88 193.79 658.72 193.75 660.56 193.68 C 660.54 190.86 660.53 188.04 660.61 185.22 L 660.30 185.08 C 659.87 187.46 659.54 189.90 658.56 192.14 C 658.06 185.92 659.61 179.79 659.42 173.57 C 658.71 173.45 657.29 173.19 656.58 173.06 C 656.14 179.23 656.18 185.49 654.93 191.56 C 654.17 185.19 655.79 178.84 655.41 172.45 C 653.68 172.31 651.12 172.49 651.57 174.95 C 651.06 179.95 652.13 185.15 650.52 189.99 C 649.92 184.58 650.68 179.15 650.41 173.74 C 649.98 173.41 649.11 172.75 648.68 172.42 C 648.26 178.11 648.94 183.89 647.70 189.51 C 646.84 183.82 647.69 178.06 647.48 172.34 C 646.50 172.34 645.53 172.34 644.56 172.34 C 644.78 177.55 644.76 182.76 644.90 187.97 L 644.16 187.93 C 643.85 182.59 644.15 177.19 643.25 171.92 C 642.53 171.69 641.11 171.23 640.39 170.99 C 640.06 177.21 640.65 183.45 639.90 189.64 M 588.70 189.90 C 588.87 191.22 589.09 192.54 589.36 193.86 C 591.63 193.61 595.50 194.60 594.79 190.91 C 594.01 190.48 592.45 189.61 591.67 189.18 C 594.59 189.36 597.88 190.18 600.41 188.14 C 596.38 186.69 592.21 187.72 588.70 189.90 M 616.57 188.44 C 616.71 190.21 616.79 192.01 617.13 193.77 C 620.36 194.54 623.67 193.75 626.94 193.81 C 635.46 193.85 644.00 193.99 652.51 193.55 C 647.27 190.90 641.24 190.85 635.53 190.21 C 629.22 189.41 622.84 189.55 616.57 188.44 M 600.22 190.39 C 600.64 191.21 601.46 192.87 601.88 193.70 C 602.46 193.70 603.61 193.72 604.19 193.73 C 604.19 192.53 604.20 191.33 604.22 190.13 C 602.88 190.21 601.55 190.30 600.22 190.39 M 596.20 193.48 C 597.64 194.51 599.33 192.07 598.01 191.00 C 596.58 189.97 594.82 192.43 596.20 193.48 Z" />
<path fill="#010101" opacity="1.00" d=" M 161.35 98.96 C 162.73 98.52 163.15 99.02 162.61 100.46 C 161.23 100.90 160.80 100.40 161.35 98.96 Z" />
<path fill="#010101" opacity="1.00" d=" M 312.68 107.32 C 311.64 105.37 311.62 103.39 313.81 102.30 C 315.44 103.29 317.26 104.07 318.60 105.49 C 318.65 106.57 318.67 107.66 318.65 108.76 C 316.65 108.30 314.67 107.80 312.68 107.32 Z" />
<path fill="#010101" opacity="1.00" d=" M 306.77 105.99 C 307.12 105.83 307.83 105.51 308.18 105.35 C 308.20 107.21 308.07 109.11 308.51 110.95 C 309.59 112.51 311.26 113.52 312.63 114.82 C 308.18 114.61 306.21 109.90 306.77 105.99 Z" />
<path fill="#010101" opacity="1.00" d=" M 148.25 111.99 C 150.02 110.27 151.83 108.59 153.79 107.07 C 153.79 110.14 151.69 112.99 148.25 111.99 Z" />
<path fill="#010101" opacity="1.00" d=" M 256.67 116.97 C 256.61 111.87 261.18 107.87 266.11 107.72 C 277.40 107.31 288.71 107.50 300.00 107.23 C 301.24 107.34 304.65 106.79 303.32 109.18 C 291.59 110.00 279.80 109.35 268.05 109.79 C 265.62 110.08 262.95 110.32 261.00 111.95 C 258.45 114.62 258.60 118.60 258.70 122.03 C 259.71 135.96 259.56 149.94 259.41 163.90 C 267.48 161.25 276.41 158.85 284.65 162.24 C 288.15 159.34 292.27 156.89 296.87 156.43 C 302.60 156.02 308.31 155.37 314.06 155.37 C 313.49 154.04 312.02 153.44 311.01 152.51 C 312.21 152.40 313.43 152.29 314.65 152.40 C 314.54 153.30 314.34 155.09 314.23 155.99 C 316.22 156.20 317.35 155.27 317.62 153.20 C 318.77 153.31 319.91 153.42 321.07 153.54 C 320.64 153.87 319.79 154.52 319.37 154.85 C 320.77 156.47 322.51 157.73 324.48 158.59 C 324.43 166.38 325.70 174.13 325.29 181.94 C 334.55 181.14 343.91 181.08 353.13 182.33 C 355.05 182.57 357.97 182.15 357.94 179.65 C 358.14 179.67 358.55 179.73 358.75 179.75 C 358.94 168.34 358.39 156.95 357.24 145.60 C 359.56 145.91 359.32 148.32 359.79 149.95 C 360.53 154.28 360.49 158.68 360.74 163.05 C 360.99 168.59 361.80 174.22 360.73 179.72 C 360.35 182.47 357.78 184.79 354.94 184.51 C 344.92 184.51 334.56 181.77 324.74 184.90 C 318.34 187.87 311.29 188.89 304.28 188.87 C 301.87 191.38 298.64 189.99 295.85 189.10 C 295.85 191.12 295.85 193.14 295.88 195.16 C 287.78 198.49 278.92 199.62 270.21 199.36 C 263.72 197.42 256.80 192.63 255.94 185.40 C 255.07 179.96 255.19 174.40 255.58 168.92 C 255.61 167.19 256.53 165.67 257.29 164.17 C 257.88 148.42 256.52 132.71 256.67 116.97 M 301.39 158.66 C 301.44 162.92 301.61 167.19 301.71 171.46 C 305.78 171.30 309.85 171.19 313.89 170.71 C 313.84 166.20 313.58 161.69 313.22 157.19 C 309.23 157.30 305.29 157.87 301.39 158.66 M 292.48 159.46 C 292.42 161.57 292.15 163.70 292.44 165.81 C 293.30 167.86 294.48 169.75 295.53 171.70 C 296.91 171.45 298.28 171.20 299.66 170.95 C 299.49 166.74 299.35 162.53 299.21 158.32 C 296.94 158.56 294.70 158.98 292.48 159.46 M 314.35 158.10 C 314.59 162.29 314.94 166.47 315.46 170.63 C 317.90 170.46 320.35 170.28 322.80 170.12 C 322.70 166.66 322.48 163.21 322.22 159.76 C 319.66 158.92 317.04 158.29 314.35 158.10 M 287.33 163.34 C 288.61 164.08 289.96 164.70 291.30 165.33 C 291.27 163.52 291.23 161.72 291.19 159.91 C 289.97 161.03 287.52 161.50 287.33 163.34 M 272.79 162.75 C 273.96 163.88 275.02 165.69 276.89 165.55 C 279.20 165.37 281.45 164.77 283.72 164.30 C 280.21 163.08 276.53 162.29 272.79 162.75 M 259.13 166.72 C 259.65 168.13 260.88 169.08 262.15 169.79 C 266.30 168.83 270.25 167.14 274.33 165.93 C 272.29 165.09 270.33 163.69 268.06 163.62 C 264.90 163.97 261.94 165.31 259.13 166.72 M 279.23 166.62 C 278.89 168.98 277.51 168.31 276.02 167.47 C 271.66 167.49 267.57 169.41 263.48 170.74 C 266.21 172.41 268.96 174.06 271.83 175.50 C 275.21 173.58 280.15 174.63 282.67 171.42 C 286.09 172.59 289.24 170.43 292.25 169.16 C 290.34 167.80 288.34 166.57 286.26 165.51 C 283.91 165.88 281.53 166.07 279.23 166.62 M 257.70 169.27 C 257.51 172.61 257.41 175.96 257.45 179.31 C 258.72 180.42 259.98 181.52 261.27 182.61 C 261.56 179.17 261.76 175.73 261.78 172.28 C 260.41 171.28 259.06 170.28 257.70 169.27 M 272.09 176.58 C 273.38 183.50 271.50 190.63 273.48 197.45 C 280.39 197.62 287.25 196.31 293.73 193.96 C 293.92 186.39 293.72 178.82 293.35 171.26 C 286.57 173.98 279.50 176.63 272.09 176.58 M 315.50 171.65 C 315.51 176.40 315.58 181.15 315.63 185.90 C 318.13 184.88 322.34 185.26 323.18 182.08 C 323.52 178.64 323.39 175.16 323.09 171.73 C 320.71 170.83 317.99 171.71 315.50 171.65 M 295.44 172.49 C 295.80 177.26 295.89 182.06 296.23 186.84 C 297.64 187.44 299.05 188.04 300.47 188.65 C 300.36 183.22 300.02 177.79 299.64 172.37 C 298.59 172.40 296.49 172.46 295.44 172.49 M 302.14 172.52 C 302.24 177.25 302.35 181.98 302.50 186.71 C 306.52 186.78 310.54 186.71 314.54 186.33 C 314.60 181.64 314.47 176.95 314.43 172.26 C 310.33 172.20 306.23 172.40 302.14 172.52 M 263.46 173.82 C 262.76 177.17 262.44 180.58 262.52 184.00 C 265.14 185.24 267.85 186.29 270.64 187.09 C 270.77 183.59 270.53 180.07 269.55 176.70 C 267.52 175.74 265.49 174.76 263.46 173.82 M 258.08 181.56 C 257.99 185.64 258.78 189.95 262.36 192.45 C 261.99 189.67 261.55 186.90 261.20 184.13 C 260.15 183.27 259.11 182.41 258.08 181.56 M 262.37 185.18 C 262.97 188.23 263.02 191.60 264.79 194.27 C 266.50 195.88 268.80 196.61 270.89 197.58 C 270.63 194.55 270.43 191.52 270.42 188.48 C 267.73 187.40 265.04 186.30 262.37 185.18 Z" />
<path fill="#010101" opacity="1.00" d=" M 648.37 111.05 C 649.55 109.73 650.43 107.98 652.10 107.20 C 653.87 106.69 654.68 108.50 655.72 109.54 C 656.47 109.53 657.99 109.49 658.75 109.47 C 658.79 112.79 654.98 112.73 652.88 114.25 C 649.85 114.46 646.82 114.62 643.79 114.88 C 644.68 112.83 645.66 110.63 648.37 111.05 Z" />
<path fill="#010101" opacity="1.00" d=" M 556.45 108.36 C 557.39 107.37 559.22 108.86 558.51 110.01 C 557.57 111.07 555.73 109.48 556.45 108.36 Z" />
<path fill="#010101" opacity="1.00" d=" M 18.14 115.03 C 19.45 113.29 20.76 111.03 23.13 110.71 C 29.03 109.93 35.02 110.56 40.94 109.90 C 43.82 109.86 46.95 109.20 49.68 110.10 C 54.59 115.25 60.16 119.80 64.66 125.31 C 68.22 129.88 64.46 135.40 63.32 140.19 C 70.08 140.62 76.85 140.39 83.62 140.13 C 86.47 151.28 87.19 162.82 86.73 174.30 C 79.13 175.24 71.48 175.37 63.88 176.27 C 61.56 174.98 59.15 173.83 56.64 172.92 C 56.69 174.06 56.77 176.34 56.81 177.48 C 56.21 177.31 54.99 176.95 54.38 176.78 C 54.48 175.87 54.70 174.07 54.80 173.17 C 54.02 173.28 52.45 173.52 51.66 173.63 C 51.74 176.20 51.78 178.77 51.86 181.34 C 46.19 183.36 40.20 183.95 34.21 183.88 C 34.30 181.35 34.37 178.81 34.47 176.29 C 32.75 176.42 31.03 176.56 29.32 176.69 C 29.37 180.04 29.47 183.38 29.60 186.72 C 38.27 187.50 46.94 185.70 54.60 181.59 C 54.66 180.48 54.79 178.28 54.86 177.18 C 56.59 178.67 56.85 180.77 56.64 182.94 C 50.39 185.64 43.95 188.43 37.04 188.63 C 33.35 188.66 29.45 189.13 25.98 187.57 C 20.15 185.23 14.59 182.17 9.60 178.35 C 6.65 176.22 7.88 172.05 7.18 168.94 C 7.02 163.31 4.97 157.65 5.91 152.05 C 10.07 149.93 14.72 149.01 19.24 147.96 C 16.32 143.25 13.04 138.70 9.04 134.85 C 10.61 127.69 14.08 121.08 18.14 115.03 M 24.20 112.51 C 27.40 115.01 29.63 119.25 33.90 120.02 C 32.07 117.79 30.35 115.46 29.13 112.83 C 34.11 112.35 39.03 113.38 43.99 113.58 C 45.82 113.74 47.84 113.71 49.28 115.08 C 44.29 115.37 39.29 115.40 34.31 115.88 C 34.47 115.43 34.79 114.53 34.95 114.07 C 33.61 114.24 32.28 114.40 30.95 114.56 C 34.17 118.26 37.31 122.03 40.59 125.67 C 43.67 124.16 47.21 123.91 50.53 124.73 C 47.30 125.43 44.01 125.65 40.74 126.03 C 42.02 127.45 43.54 128.62 45.45 129.05 C 45.79 128.47 46.47 127.32 46.81 126.74 C 50.29 126.52 53.78 126.24 57.27 126.36 C 55.35 126.88 53.39 127.28 51.45 127.74 C 53.79 127.73 56.13 127.69 58.47 127.70 C 55.53 122.75 52.07 118.15 48.67 113.52 C 40.53 112.79 32.39 111.98 24.20 112.51 M 19.78 116.61 C 18.44 118.28 16.46 120.56 17.60 122.82 C 20.03 125.89 23.62 128.22 24.40 132.33 C 29.36 133.57 31.61 139.20 36.34 141.15 C 38.05 138.17 39.61 135.11 40.85 131.91 C 37.88 129.17 35.30 126.02 32.14 123.50 C 28.82 122.44 28.04 127.04 25.59 128.42 C 26.73 125.76 28.31 123.33 29.88 120.91 C 27.20 118.37 23.88 114.58 19.78 116.61 M 55.89 120.62 C 57.34 123.49 58.99 126.27 60.30 129.21 C 58.01 129.31 55.71 129.41 53.42 129.68 C 56.91 131.05 60.65 130.02 64.21 129.54 C 62.93 125.49 59.88 122.13 55.89 120.62 M 14.59 125.37 C 13.45 128.29 12.32 131.22 11.25 134.16 C 13.20 135.99 14.93 138.04 16.51 140.19 C 19.34 137.81 22.36 134.86 22.87 131.04 C 22.35 128.60 19.89 127.11 18.42 125.21 C 17.15 125.26 15.87 125.31 14.59 125.37 M 43.20 132.26 C 41.70 135.86 39.86 139.30 37.89 142.66 C 41.77 142.86 45.81 142.12 49.58 143.34 C 45.41 143.78 41.21 143.54 37.02 143.59 C 34.28 147.20 31.37 150.69 27.93 153.66 C 33.18 154.33 38.62 154.96 43.84 153.84 C 46.08 152.12 46.48 148.83 48.00 146.49 C 47.68 149.08 46.72 151.50 45.78 153.92 C 46.59 153.81 48.20 153.59 49.00 153.48 C 54.44 153.14 56.85 147.30 59.47 143.34 C 57.47 143.41 55.48 143.42 53.48 143.37 C 55.77 142.63 58.25 142.47 60.44 141.44 C 62.25 138.64 62.93 135.32 63.69 132.13 C 60.90 132.24 58.10 132.20 55.33 132.57 C 53.90 136.21 53.60 140.37 51.06 143.51 C 51.97 139.81 53.36 136.24 54.22 132.52 C 50.54 132.44 46.87 132.33 43.20 132.26 M 23.84 132.89 C 22.30 135.86 19.72 138.16 18.24 141.12 C 18.60 143.93 21.28 145.87 22.73 148.22 C 23.99 149.46 24.71 151.90 26.79 151.83 C 29.83 149.52 32.43 146.60 34.47 143.38 C 35.64 141.70 33.27 140.67 32.33 139.66 C 29.39 137.54 27.27 134.29 23.84 132.89 M 62.28 142.30 C 63.45 147.34 63.53 152.54 64.46 157.62 C 65.29 157.59 66.95 157.53 67.78 157.50 C 67.37 152.84 66.47 148.25 65.48 143.68 C 68.40 143.66 71.36 143.77 74.20 143.00 C 70.26 142.29 66.26 142.30 62.28 142.30 M 76.27 142.37 C 77.27 142.85 78.28 143.32 79.29 143.79 C 79.86 147.75 81.41 151.77 80.66 155.79 C 79.71 152.27 79.40 148.62 78.48 145.09 C 74.65 145.18 70.82 145.20 66.98 145.20 C 67.70 150.43 68.52 155.64 69.14 160.87 C 72.60 160.61 76.08 160.24 79.57 160.50 C 76.30 161.93 72.65 161.48 69.20 161.34 C 69.44 164.44 69.54 167.56 69.61 170.67 C 73.67 170.64 77.72 170.53 81.77 170.38 C 81.97 165.95 80.73 161.23 81.17 157.04 C 82.31 156.78 83.46 156.55 84.61 156.34 C 83.91 151.70 83.10 147.07 82.28 142.45 C 80.28 142.41 78.27 142.38 76.27 142.37 M 56.60 151.63 C 57.03 154.12 57.35 156.64 57.58 159.16 C 59.23 158.67 60.89 158.17 62.53 157.64 C 61.88 153.72 61.45 149.76 60.83 145.83 C 59.35 147.71 57.94 149.65 56.60 151.63 M 9.02 152.97 C 11.60 155.70 14.63 158.02 18.28 159.11 C 21.49 161.33 24.88 163.80 28.93 164.00 C 33.23 163.85 37.47 163.05 41.65 162.10 C 39.30 160.27 36.88 158.40 34.00 157.47 C 29.09 156.63 24.17 157.80 19.36 158.72 C 21.34 157.20 23.83 156.67 26.19 156.03 C 24.70 154.12 23.32 152.12 21.55 150.45 C 17.22 150.04 13.12 151.87 9.02 152.97 M 54.19 154.34 C 52.49 154.54 53.26 158.03 54.89 157.36 C 55.78 156.53 55.42 154.63 54.19 154.34 M 35.71 156.60 C 38.47 158.28 40.88 160.68 43.96 161.73 C 47.16 161.52 50.20 160.36 53.23 159.39 C 51.96 158.07 50.67 156.77 49.38 155.47 C 44.91 156.65 40.28 156.41 35.71 156.60 M 8.34 155.86 C 8.46 158.95 8.32 162.08 8.87 165.13 C 10.33 168.01 13.78 168.99 16.39 170.54 C 16.40 167.64 16.54 164.73 16.23 161.85 C 14.04 159.33 10.99 157.81 8.34 155.86 M 64.77 160.72 C 65.12 164.93 65.42 169.16 65.82 173.36 C 66.07 173.57 66.57 173.97 66.82 174.17 C 72.79 173.70 78.78 173.33 84.72 172.59 C 85.55 167.90 85.00 163.14 84.29 158.48 C 83.80 158.56 82.82 158.72 82.33 158.80 C 82.18 162.96 82.62 167.11 82.79 171.26 C 78.08 171.59 73.35 171.53 68.63 171.63 C 68.62 167.45 68.62 163.24 67.73 159.14 C 66.86 159.73 64.71 159.29 64.77 160.72 M 56.36 161.85 C 56.37 164.69 56.48 167.54 56.55 170.38 C 58.91 171.64 61.30 172.85 63.71 174.03 C 63.62 169.39 63.34 164.74 62.45 160.18 C 60.42 160.73 58.40 161.32 56.36 161.85 M 29.29 166.35 C 29.25 169.50 29.22 172.65 29.23 175.80 C 30.94 175.61 32.65 175.43 34.36 175.25 C 34.37 172.44 34.35 169.64 34.41 166.84 C 40.14 165.65 45.76 163.94 51.56 163.11 C 51.36 165.23 51.14 167.36 50.66 169.45 C 50.52 168.33 50.25 166.10 50.12 164.99 C 45.09 165.68 40.14 166.84 35.31 168.39 C 35.38 173.33 35.27 178.28 35.45 183.22 C 40.64 182.90 45.84 182.26 50.83 180.75 C 50.83 177.96 50.72 175.18 50.52 172.40 C 51.85 172.39 53.19 172.39 54.52 172.38 C 54.67 168.90 54.38 165.42 53.53 162.04 C 45.46 163.54 37.44 165.29 29.29 166.35 M 17.51 162.10 C 17.48 165.15 17.45 168.20 17.43 171.25 C 20.46 172.70 23.59 173.90 26.80 174.89 C 26.77 171.86 26.70 168.84 26.58 165.83 C 23.52 164.67 20.51 163.39 17.51 162.10 M 9.38 167.85 C 9.65 170.47 9.37 173.23 10.25 175.76 C 12.14 178.11 15.04 179.36 17.51 180.99 C 17.11 177.94 16.65 174.90 16.40 171.84 C 14.06 170.51 11.72 169.18 9.38 167.85 M 17.81 172.75 C 17.55 175.86 18.13 178.94 18.78 181.97 C 21.66 183.39 24.57 184.75 27.56 185.92 C 27.27 182.74 27.80 179.33 26.71 176.30 C 24.01 174.56 20.79 173.87 17.81 172.75 Z" />
<path fill="#010101" opacity="1.00" d=" M 166.09 111.71 C 190.34 111.05 214.59 110.20 238.86 110.57 C 241.37 111.46 243.02 114.09 243.43 116.66 C 244.31 126.76 244.40 136.93 243.73 147.05 C 243.57 149.09 243.89 151.13 244.45 153.10 C 243.55 153.67 242.59 154.14 241.66 154.65 C 242.91 149.52 242.22 144.22 242.39 139.01 C 242.27 131.98 242.68 124.92 242.18 117.90 C 241.62 115.71 240.70 112.30 237.93 112.34 C 212.17 112.12 186.40 112.51 160.68 113.60 C 153.39 114.51 149.04 122.26 150.64 129.15 C 152.25 125.42 152.90 120.95 156.28 118.28 C 160.35 114.94 165.85 113.92 170.99 113.85 C 191.99 113.57 212.99 113.47 233.99 113.31 C 236.13 113.05 237.63 114.60 239.02 115.99 C 234.28 113.78 229.03 114.61 223.99 114.58 C 215.98 114.70 207.95 114.39 199.97 115.17 C 189.62 115.33 179.26 115.22 168.91 115.28 C 166.49 115.24 164.16 115.93 161.84 116.53 L 161.93 117.44 C 165.24 117.42 168.55 117.40 171.87 117.35 C 171.80 117.87 171.67 118.91 171.61 119.43 C 168.23 119.43 164.85 119.45 161.47 119.45 C 161.51 118.70 161.58 117.20 161.61 116.45 C 160.09 117.25 158.56 118.05 157.04 118.85 C 158.40 122.61 158.53 126.61 158.56 130.56 C 158.09 130.54 157.14 130.50 156.67 130.48 C 156.56 127.11 156.44 123.73 155.75 120.42 C 151.88 125.04 152.37 131.43 152.89 137.04 C 153.60 141.99 153.38 147.02 154.18 151.96 C 154.49 153.44 154.37 154.96 153.87 156.39 C 151.94 149.16 153.16 141.51 150.98 134.35 C 150.16 140.55 150.93 146.80 150.68 153.03 C 150.64 154.09 150.28 155.05 149.59 155.89 C 148.12 148.33 149.07 140.59 148.76 132.95 C 148.78 127.73 148.13 121.88 151.40 117.40 C 154.74 112.89 160.71 111.38 166.09 111.71 Z" />
<path fill="#010101" opacity="1.00" d=" M 313.04 116.65 C 313.56 114.14 315.44 108.52 318.84 111.16 C 320.62 114.18 316.10 117.56 313.04 116.65 Z" />
<path fill="#010101" opacity="1.00" d=" M 559.18 111.15 C 561.97 109.36 559.58 114.53 559.18 111.15 Z" />
<path fill="#010101" opacity="1.00" d=" M 123.88 112.61 C 124.41 112.47 125.48 112.18 126.01 112.04 C 126.30 112.97 126.60 113.91 126.89 114.85 C 128.38 115.62 129.83 116.44 131.25 117.34 C 127.68 118.48 126.03 114.59 123.88 112.61 Z" />
<path fill="#010101" opacity="1.00" d=" M 593.06 114.36 C 596.80 113.09 600.83 113.98 604.29 115.67 C 600.53 115.39 596.80 114.80 593.06 114.36 Z" />
<path fill="#010101" opacity="1.00" d=" M 145.18 114.18 C 146.66 113.74 147.09 114.20 146.47 115.56 C 144.98 115.98 144.55 115.52 145.18 114.18 Z" />
<path fill="#010101" opacity="1.00" d=" M 562.32 114.16 C 562.72 114.82 562.72 114.82 562.32 114.16 Z" />
<path fill="#010101" opacity="1.00" d=" M 140.46 116.36 C 141.29 114.83 144.28 116.01 142.79 117.60 C 141.94 119.17 139.04 117.98 140.46 116.36 Z" />
<path fill="#010101" opacity="1.00" d=" M 220.57 116.62 C 223.79 116.24 227.11 116.04 230.26 116.98 C 227.12 117.63 223.49 118.38 220.57 116.62 Z" />
<path fill="#010101" opacity="1.00" d=" M 590.88 116.60 C 593.85 115.79 597.05 116.32 598.53 119.31 C 595.52 119.76 591.87 120.32 590.88 116.60 Z" />
<path fill="#010101" opacity="1.00" d=" M 37.13 118.50 C 41.70 117.91 46.25 116.71 50.87 116.97 C 46.71 119.11 41.74 118.51 37.25 119.68 C 37.22 119.38 37.16 118.79 37.13 118.50 Z" />
<path fill="#010101" opacity="1.00" d=" M 131.33 117.08 C 132.26 115.96 134.54 116.37 134.84 117.85 C 134.59 119.78 130.39 119.08 131.33 117.08 Z" />
<path fill="#010101" opacity="1.00" d=" M 135.83 117.96 C 136.12 114.91 140.88 117.88 137.87 119.23 C 137.36 118.91 136.34 118.28 135.83 117.96 Z" />
<path fill="#010101" opacity="1.00" d=" M 229.19 119.46 C 231.13 119.37 233.15 119.25 234.89 120.32 C 235.73 120.44 237.42 120.67 238.26 120.79 C 238.56 120.19 239.15 118.98 239.45 118.38 C 239.90 127.25 239.32 136.15 240.26 145.00 C 239.04 160.57 240.23 176.21 239.46 191.80 C 239.04 190.22 238.75 188.61 238.73 186.97 C 238.47 167.72 239.04 148.47 238.65 129.22 C 237.90 129.27 236.40 129.36 235.65 129.41 C 235.61 127.40 235.57 125.40 235.56 123.39 C 233.73 123.26 231.59 124.13 229.99 123.01 C 229.79 122.12 229.39 120.35 229.19 119.46 Z" />
<path fill="#010101" opacity="1.00" d=" M 43.02 120.87 C 46.14 120.58 49.26 120.17 52.40 120.34 C 47.98 121.92 43.21 122.21 38.56 122.29 C 39.47 120.45 41.36 120.83 43.02 120.87 Z" />
<path fill="#010101" opacity="1.00" d=" M 137.43 123.49 C 137.90 123.56 138.83 123.72 139.29 123.79 C 139.30 134.37 140.60 144.88 140.75 155.45 L 139.07 154.29 C 137.87 144.07 137.15 133.78 137.43 123.49 Z" />
<path fill="#010101" opacity="1.00" d=" M 421.45 125.32 C 423.53 124.35 425.69 123.52 427.90 122.86 C 427.70 123.45 427.30 124.63 427.10 125.22 C 427.88 125.27 429.42 125.39 430.20 125.45 C 430.71 125.05 431.72 124.26 432.23 123.87 C 432.75 124.80 433.27 125.73 433.79 126.66 C 435.44 125.02 437.38 125.42 439.17 126.51 C 438.17 126.45 436.16 126.34 435.16 126.28 L 435.25 128.44 C 436.74 128.41 438.23 128.38 439.73 128.37 C 439.72 128.97 439.70 130.16 439.69 130.76 C 438.47 131.09 437.25 131.41 436.03 131.73 C 436.66 132.54 437.30 133.36 437.94 134.17 C 436.61 134.62 435.29 135.07 433.98 135.54 C 433.26 135.16 432.55 134.79 431.85 134.42 C 431.56 135.42 431.29 136.42 431.05 137.43 C 433.63 138.40 436.19 139.45 438.85 140.20 C 440.87 140.90 442.88 139.65 444.93 139.84 C 447.01 140.46 448.65 141.96 450.31 143.29 C 448.24 143.51 446.15 143.45 444.08 143.30 C 439.22 141.77 433.93 141.10 429.59 138.25 C 429.46 136.93 429.42 135.61 429.45 134.29 L 427.72 134.21 C 426.80 140.67 418.95 140.52 413.99 141.40 C 412.03 141.09 408.27 142.52 407.88 139.70 C 413.18 139.72 418.68 139.71 423.65 137.62 C 425.47 137.00 425.55 134.98 425.88 133.40 C 424.83 133.04 423.79 132.69 422.76 132.34 C 421.78 130.72 419.82 129.35 420.22 127.24 C 422.27 126.70 424.38 126.40 426.45 125.89 C 424.79 125.66 423.11 125.50 421.45 125.32 M 425.71 127.08 C 426.27 127.30 427.37 127.75 427.93 127.97 C 427.88 128.40 427.79 129.26 427.75 129.69 C 426.33 129.63 424.92 129.57 423.51 129.52 C 423.48 130.03 423.42 131.04 423.39 131.55 C 424.40 131.56 425.41 131.58 426.43 131.59 C 427.61 130.47 428.92 129.52 430.48 128.98 C 430.46 129.93 430.44 131.81 430.43 132.75 C 432.08 132.59 433.74 132.42 435.41 132.25 C 434.98 131.63 434.12 130.38 433.70 129.76 C 433.96 129.25 434.48 128.24 434.74 127.73 C 433.85 126.02 431.84 128.57 430.60 128.66 C 430.34 128.00 429.80 126.68 429.54 126.02 C 428.23 126.29 426.95 126.61 425.71 127.08 Z" />
<path fill="#010101" opacity="1.00" d=" M 169.36 124.53 C 181.64 124.09 193.93 125.17 206.22 124.53 C 207.89 126.75 209.22 129.22 209.90 131.94 C 211.84 138.85 214.79 145.77 214.22 153.09 C 213.30 157.20 211.10 160.86 209.19 164.58 C 212.53 166.64 216.33 168.32 220.35 167.34 C 220.02 163.91 219.43 160.51 219.51 157.06 C 220.01 157.17 221.00 157.39 221.49 157.50 C 221.30 161.64 221.91 165.76 221.82 169.91 C 224.41 172.07 225.01 175.34 225.40 178.52 C 228.13 178.38 230.88 178.31 233.61 178.47 C 231.21 180.68 227.59 179.26 224.66 179.55 C 224.62 185.28 224.07 190.98 223.10 196.63 C 228.15 196.29 233.31 196.78 238.24 195.38 C 238.73 194.15 239.23 192.92 239.76 191.70 C 239.73 193.01 239.70 194.31 239.66 195.61 C 235.56 198.20 230.59 197.36 225.99 197.59 C 216.66 197.64 207.40 200.42 198.06 198.92 C 193.71 198.72 190.35 195.73 187.16 193.11 C 186.68 195.26 186.63 197.57 185.53 199.52 C 184.39 201.45 181.94 201.65 180.04 202.39 C 172.91 202.47 165.83 201.41 158.69 201.51 C 155.20 201.45 150.30 200.99 149.22 196.94 C 146.02 184.00 147.42 170.34 150.62 157.55 C 155.96 157.37 161.27 156.63 166.63 156.65 C 166.31 149.29 166.90 141.57 170.44 134.97 C 170.08 131.49 169.54 128.03 169.36 124.53 M 175.41 128.71 C 175.53 138.14 177.59 147.34 179.82 156.45 C 181.75 157.32 183.87 157.34 185.95 157.28 C 186.65 157.99 187.42 158.64 188.24 159.22 C 185.06 159.44 181.82 159.49 178.76 158.50 C 178.39 160.57 177.96 162.63 177.51 164.69 C 183.25 165.37 189.13 166.00 194.87 165.23 L 195.91 163.55 C 195.31 163.21 194.13 162.54 193.54 162.20 C 194.82 162.25 196.10 162.42 197.36 162.70 C 196.96 163.37 196.17 164.71 195.77 165.38 C 199.37 165.08 203.22 165.82 206.67 164.58 C 208.16 162.64 208.93 160.28 209.83 158.04 C 209.28 158.21 208.19 158.56 207.65 158.74 C 207.99 158.09 208.68 156.80 209.03 156.16 C 210.45 154.78 211.92 153.24 211.64 151.07 C 212.68 142.67 207.34 135.44 206.34 127.35 C 199.87 127.28 193.40 127.34 186.92 127.35 C 183.05 127.39 179.01 126.98 175.41 128.71 M 171.50 143.30 C 171.03 143.64 170.08 144.31 169.60 144.65 C 168.62 149.55 168.52 154.55 169.28 159.50 C 170.15 158.95 171.06 158.49 172.01 158.11 C 171.52 157.56 171.04 157.00 170.56 156.45 C 171.52 154.13 171.58 151.63 171.40 149.17 C 172.01 149.15 173.22 149.12 173.83 149.10 C 173.10 154.28 172.56 159.73 172.29 165.06 C 172.34 166.36 171.96 168.96 174.17 168.59 C 175.75 165.87 175.61 162.58 176.76 159.70 C 178.80 155.79 175.86 151.82 175.51 147.86 C 175.20 147.82 174.57 147.73 174.26 147.69 C 174.88 143.09 173.87 138.54 173.10 134.04 C 170.25 136.08 171.66 140.31 171.50 143.30 M 152.24 159.54 C 151.52 162.45 151.23 165.44 151.08 168.43 C 152.90 168.44 154.72 168.44 156.54 168.45 C 156.63 167.81 156.82 166.53 156.92 165.89 C 157.59 166.72 158.31 167.49 159.09 168.23 C 162.30 168.27 165.50 168.23 168.72 168.31 C 168.68 164.92 167.70 161.66 166.49 158.53 C 166.37 160.68 166.34 162.83 166.31 164.99 L 165.46 164.91 C 165.12 163.02 164.77 161.14 164.46 159.25 C 160.39 159.37 156.32 159.48 152.24 159.54 M 177.76 166.23 C 177.58 166.77 177.20 167.84 177.02 168.38 C 179.82 168.39 182.62 168.35 185.41 168.60 C 182.52 170.82 176.80 167.56 176.13 172.35 C 181.63 172.69 187.13 172.45 192.63 172.48 C 193.21 170.51 193.74 168.52 194.27 166.53 C 188.76 166.58 183.27 166.15 177.76 166.23 M 195.95 166.56 C 194.39 168.06 194.57 170.51 193.99 172.46 C 195.98 172.37 198.00 172.47 199.96 172.05 C 202.55 171.03 203.72 168.26 205.31 166.17 C 202.19 166.23 199.05 166.16 195.95 166.56 M 204.01 172.14 C 209.22 172.82 214.48 172.69 219.72 172.40 C 219.70 172.26 219.68 171.98 219.67 171.83 C 216.12 170.06 212.28 169.16 208.32 169.53 C 208.33 168.60 208.35 167.68 208.37 166.76 C 206.90 168.54 205.45 170.33 204.01 172.14 M 158.54 169.45 C 158.59 172.14 158.62 174.83 158.35 177.51 C 156.95 175.03 156.93 172.11 156.50 169.37 C 154.55 169.46 152.60 169.54 150.66 169.61 C 150.56 172.69 147.83 177.74 152.04 179.07 C 156.86 179.81 161.77 179.26 166.63 179.43 C 166.50 176.00 166.40 172.58 166.41 169.16 C 163.78 169.26 161.16 169.35 158.54 169.45 M 167.35 169.28 C 167.47 172.40 167.53 175.53 167.55 178.66 C 173.82 179.91 180.26 179.82 186.61 179.34 C 186.55 178.10 186.49 176.85 186.43 175.61 C 182.21 174.42 177.80 174.55 173.46 174.52 C 172.37 172.82 171.30 171.12 170.26 169.39 C 169.29 169.35 168.32 169.31 167.35 169.28 M 197.59 174.79 C 197.39 182.30 196.58 190.01 198.33 197.39 C 201.95 197.31 205.56 197.11 209.14 196.64 C 209.20 192.82 209.17 188.98 209.71 185.19 C 205.71 185.96 201.60 186.74 197.53 186.04 C 205.54 183.34 214.25 185.47 222.40 183.53 C 222.52 180.45 222.64 177.38 222.69 174.30 C 218.71 174.69 214.75 175.33 210.75 175.44 C 210.52 178.22 210.26 181.02 209.41 183.70 C 209.18 180.91 209.32 178.11 209.51 175.32 C 207.31 174.82 205.11 174.34 202.95 173.69 C 201.17 174.10 199.39 174.46 197.59 174.79 M 189.21 175.30 C 189.42 177.50 189.03 179.83 189.74 181.95 C 191.16 183.33 192.95 184.19 194.62 185.20 C 194.74 181.90 194.77 178.59 194.79 175.28 C 192.92 175.30 191.07 175.30 189.21 175.30 M 149.48 181.25 C 149.57 184.62 149.82 187.98 150.24 191.33 C 154.59 191.76 159.07 191.31 163.33 192.44 C 158.95 192.99 154.53 192.54 150.15 192.35 C 151.06 194.49 150.91 197.99 153.80 198.54 C 157.94 199.69 162.29 199.40 166.54 199.74 C 166.50 196.82 166.41 193.82 167.59 191.09 C 167.77 193.95 167.60 196.81 167.34 199.66 C 172.68 199.66 178.02 199.75 183.35 199.48 C 184.24 196.79 184.71 193.99 184.93 191.16 C 179.99 191.41 175.04 191.59 170.09 191.57 C 170.11 191.30 170.14 190.76 170.15 190.49 C 175.24 190.64 180.33 190.30 185.36 189.58 C 185.18 187.04 187.69 183.46 185.32 181.69 C 179.75 181.56 174.18 181.41 168.61 181.42 C 168.15 184.59 167.73 187.77 167.19 190.94 C 165.71 187.88 168.41 184.21 166.54 181.49 C 160.86 181.35 155.16 181.75 149.48 181.25 M 188.72 182.92 C 188.32 185.34 187.86 187.75 187.40 190.17 C 189.91 192.47 192.52 194.68 195.64 196.13 C 195.40 192.91 194.95 189.72 194.59 186.51 C 192.64 185.31 190.68 184.11 188.72 182.92 M 210.25 185.45 C 210.25 189.20 210.20 192.95 210.23 196.71 C 213.82 196.09 218.55 197.26 221.16 194.10 C 221.94 191.20 221.66 188.15 221.82 185.19 C 217.96 185.30 214.10 185.44 210.25 185.45 Z" />
<path fill="#010101" opacity="1.00" d=" M 212.53 124.64 C 215.84 124.26 219.19 124.34 222.52 124.36 C 222.59 127.60 222.92 130.90 222.06 134.08 C 221.44 131.25 220.97 128.40 220.43 125.56 C 217.80 125.46 214.90 126.11 212.53 124.64 Z" />
<path fill="#010101" opacity="1.00" d=" M 488.03 125.17 C 497.01 124.44 506.03 124.79 515.03 124.50 C 518.97 124.47 522.93 124.15 526.87 124.52 C 528.13 124.57 528.68 125.98 528.64 127.08 C 528.91 130.61 528.65 134.14 528.45 137.66 C 527.90 137.23 527.34 136.79 526.80 136.36 C 526.79 132.99 526.76 129.62 526.75 126.25 C 507.86 126.41 488.96 126.43 470.07 126.77 C 462.74 127.57 455.37 127.21 448.02 127.32 C 446.54 127.58 445.43 126.98 444.81 125.67 C 459.22 125.34 473.62 125.29 488.03 125.17 Z" />
<path fill="#010101" opacity="1.00" d=" M 369.86 124.21 C 372.69 124.58 375.51 125.12 378.30 125.78 C 375.41 126.79 372.05 126.70 369.86 124.21 Z" />
<path fill="#010101" opacity="1.00" d=" M 387.56 132.01 C 387.37 129.31 389.04 126.29 391.92 125.96 C 396.90 125.25 401.95 126.03 406.95 125.84 C 410.06 126.05 413.57 125.42 416.30 127.27 C 408.20 128.08 400.04 126.97 391.94 127.59 C 389.69 127.77 389.21 130.14 389.33 131.99 C 389.22 147.52 390.57 163.01 390.47 178.55 C 390.02 178.48 389.13 178.36 388.68 178.30 C 388.34 167.20 388.71 156.08 387.75 145.01 C 387.64 140.68 387.55 136.34 387.56 132.01 Z" />
<path fill="#010101" opacity="1.00" d=" M 613.21 126.07 C 615.39 126.63 617.51 127.40 619.59 128.31 C 619.24 130.03 620.73 133.20 618.06 133.34 C 616.42 133.15 614.17 132.70 614.10 130.64 C 615.91 130.54 617.72 130.43 619.54 130.33 C 618.10 128.16 615.67 127.53 613.27 127.30 C 613.25 126.99 613.22 126.38 613.21 126.07 Z" />
<path fill="#010101" opacity="1.00" d=" M 609.81 128.44 C 610.70 128.38 612.49 128.26 613.38 128.20 C 613.36 129.11 613.33 130.91 613.31 131.82 C 611.74 131.10 610.34 130.13 609.81 128.44 Z" />
<path fill="#010101" opacity="1.00" d=" M 369.83 130.66 C 372.47 132.14 371.08 135.58 369.12 137.02 C 366.69 138.87 365.76 142.86 362.12 142.60 C 362.97 140.37 364.61 138.67 366.58 137.40 C 368.01 135.34 369.02 133.04 369.83 130.66 Z" />
<path fill="#010101" opacity="1.00" d=" M 551.24 131.40 C 551.75 131.38 552.79 131.34 553.31 131.32 C 555.21 144.46 555.43 157.76 555.45 171.02 C 555.84 170.83 556.64 170.46 557.03 170.28 C 557.29 167.71 559.25 166.16 561.81 166.18 C 561.82 164.36 561.85 162.54 561.85 160.72 C 564.94 158.23 568.79 158.37 572.38 159.65 C 572.40 158.82 572.45 157.16 572.47 156.33 C 573.18 155.96 573.90 155.60 574.62 155.24 C 575.25 156.80 575.86 158.38 576.47 159.96 C 576.18 160.69 575.60 162.16 575.31 162.89 C 575.83 164.01 576.34 165.13 576.85 166.26 C 575.82 165.40 574.81 164.51 573.81 163.63 C 573.07 163.62 571.57 163.59 570.82 163.57 C 570.43 164.51 570.05 165.45 569.67 166.39 C 568.08 166.35 566.50 166.34 564.93 166.33 C 564.16 167.47 563.40 168.61 562.65 169.75 C 561.72 168.24 560.67 166.74 558.68 167.67 C 558.51 168.99 558.40 170.32 558.34 171.66 C 557.84 171.69 556.84 171.75 556.33 171.79 C 556.27 174.44 555.84 177.05 555.38 179.66 C 556.03 179.45 557.34 179.02 558.00 178.80 C 565.11 180.12 572.41 179.30 579.60 179.76 C 577.88 181.75 575.96 183.55 574.06 185.35 C 573.59 184.94 573.14 184.52 572.71 184.10 C 574.16 183.24 575.42 182.07 576.51 180.77 C 570.75 180.63 564.99 180.40 559.24 180.37 C 556.78 181.60 555.15 183.98 553.49 186.09 C 558.61 186.43 563.74 186.78 568.87 187.07 C 569.41 186.75 570.50 186.11 571.05 185.79 C 571.54 186.23 572.03 186.68 572.53 187.14 C 566.77 189.40 560.70 186.96 554.75 187.32 C 554.70 188.97 554.62 190.62 554.53 192.27 C 554.11 190.78 553.73 189.28 553.35 187.79 C 552.40 187.36 551.63 186.75 551.04 185.97 C 552.57 184.27 554.80 183.19 555.88 181.12 C 555.23 180.35 554.56 179.59 553.88 178.87 C 552.67 170.60 553.84 162.22 552.83 153.94 C 552.77 146.40 552.29 138.88 551.24 131.40 M 563.49 161.03 C 563.14 162.52 562.83 164.02 562.55 165.53 C 565.33 165.69 568.60 165.51 570.40 163.06 C 568.12 162.30 565.83 161.58 563.49 161.03 Z" />
<path fill="#010101" opacity="1.00" d=" M 398.33 134.24 C 399.08 133.04 400.05 132.03 401.40 131.48 C 401.09 133.27 402.58 136.12 400.34 137.04 C 399.38 136.71 398.44 136.36 397.51 135.99 C 397.67 137.82 396.78 139.26 395.44 140.43 C 395.74 140.69 396.36 141.21 396.67 141.48 C 398.27 140.56 400.11 139.38 400.88 141.93 C 402.39 141.25 403.87 140.55 405.37 139.85 C 404.34 139.69 402.27 139.36 401.24 139.19 C 400.83 135.53 404.75 136.56 407.09 136.67 C 407.25 137.37 407.59 138.76 407.75 139.45 C 407.14 139.39 405.92 139.27 405.31 139.20 C 405.43 139.89 405.56 140.59 405.70 141.28 C 404.61 141.73 403.53 142.18 402.46 142.64 C 404.99 142.72 407.53 142.75 410.08 142.78 C 414.32 144.33 420.50 143.87 422.47 148.80 C 423.35 148.64 424.25 148.48 425.15 148.33 C 425.57 148.77 426.41 149.66 426.83 150.11 C 425.41 151.37 423.98 152.62 422.52 153.83 C 425.90 153.57 429.31 153.92 432.69 153.50 C 431.45 152.34 430.19 151.19 429.09 149.91 C 429.01 150.60 428.84 152.00 428.76 152.69 C 426.26 153.19 427.26 149.34 428.63 148.62 C 433.99 145.63 440.34 144.14 446.49 144.66 C 445.78 147.14 443.26 146.28 441.39 146.46 C 441.70 150.67 442.11 154.87 442.43 159.07 C 440.84 161.26 439.52 163.82 437.13 165.27 C 434.90 166.66 432.35 167.40 429.93 168.35 C 427.28 168.57 424.62 168.58 421.98 168.36 C 419.53 167.43 417.08 166.52 414.69 165.46 C 413.88 166.21 413.08 166.97 412.29 167.73 C 413.46 164.98 411.65 163.37 409.53 162.10 C 409.43 159.49 409.27 156.88 409.42 154.28 C 410.71 151.86 413.70 152.70 415.94 152.60 C 415.78 152.14 415.46 151.22 415.29 150.77 C 413.75 150.24 412.22 149.70 410.68 149.18 C 410.68 149.98 410.68 151.58 410.68 152.38 C 410.15 152.25 409.09 152.00 408.56 151.88 C 408.63 150.07 408.65 148.27 408.67 146.47 C 405.87 146.57 403.10 146.88 400.39 147.57 C 400.39 147.06 400.39 146.04 400.39 145.52 C 398.54 145.47 396.88 144.76 395.34 143.82 C 394.06 143.48 392.46 143.58 391.67 142.30 C 391.41 141.00 391.32 139.67 391.19 138.36 C 393.34 136.56 395.08 133.59 398.33 134.24 M 413.49 146.12 C 414.64 146.71 415.81 147.30 416.99 147.88 C 418.13 148.73 419.27 149.56 420.44 150.38 C 421.26 146.20 416.21 146.41 413.49 146.12 M 438.41 149.60 C 438.13 153.47 438.20 157.35 438.45 161.22 C 438.87 157.36 438.96 153.45 438.41 149.60 M 434.36 151.18 C 434.32 155.45 434.37 159.71 434.37 163.97 C 434.89 163.85 435.93 163.59 436.45 163.46 C 436.34 160.66 436.29 157.86 436.22 155.06 C 435.95 153.75 435.70 152.44 435.46 151.13 C 435.18 151.14 434.63 151.17 434.36 151.18 M 418.33 153.32 C 418.49 154.95 421.18 154.47 421.37 153.07 C 421.16 151.52 418.51 151.95 418.33 153.32 M 414.44 156.90 C 415.49 157.20 416.55 157.50 417.62 157.79 C 418.46 156.89 419.32 155.99 420.16 155.09 C 418.15 155.33 416.21 155.92 414.44 156.90 M 421.70 155.51 C 421.31 156.29 420.52 157.85 420.13 158.63 C 422.30 158.51 424.42 158.00 426.39 157.06 C 424.89 156.45 423.44 155.02 421.70 155.51 M 411.06 159.40 C 411.15 159.95 411.33 161.06 411.42 161.62 C 414.87 163.88 418.66 165.54 422.65 166.58 C 422.66 164.94 422.66 163.30 422.72 161.66 C 423.90 163.28 424.25 165.72 425.97 166.85 C 428.28 166.92 430.50 166.20 432.70 165.61 C 432.59 162.88 432.51 160.15 432.46 157.42 C 431.56 157.41 429.75 157.41 428.84 157.40 C 427.71 159.66 425.61 161.00 423.46 162.14 C 423.49 161.40 423.55 159.92 423.58 159.18 C 421.35 159.13 420.01 160.54 419.05 162.36 C 418.24 162.47 417.44 162.57 416.64 162.68 C 416.15 161.09 415.67 159.50 415.21 157.91 C 414.26 159.48 412.73 159.74 411.06 159.40 Z" />
<path fill="#010101" opacity="1.00" d=" M 402.48 132.90 C 404.07 133.45 405.52 134.32 406.42 135.81 C 405.01 135.76 403.61 135.71 402.22 135.64 C 402.28 134.96 402.41 133.59 402.48 132.90 Z" />
<path fill="#010101" opacity="1.00" d=" M 616.22 133.92 C 619.12 132.29 616.48 137.27 616.22 133.92 Z" />
<path fill="#010101" opacity="1.00" d=" M 480.86 137.10 C 484.30 135.02 488.42 135.33 492.28 135.29 C 492.62 136.42 492.96 137.55 493.32 138.68 C 494.74 137.65 496.04 136.08 497.96 136.07 C 505.23 135.41 512.53 136.43 519.82 136.17 C 520.06 137.21 520.30 138.26 520.55 139.32 C 522.89 139.32 525.24 139.33 527.60 139.34 C 526.01 145.90 528.30 152.45 528.89 158.98 C 530.43 169.16 530.57 179.47 530.03 189.74 C 532.10 188.41 534.28 185.76 537.06 186.86 C 538.86 187.78 540.16 189.39 541.62 190.77 C 541.84 194.49 539.21 199.15 534.99 198.67 C 531.82 198.74 530.01 195.81 528.37 193.56 C 508.58 193.74 488.79 193.56 469.00 193.72 C 457.04 194.75 445.02 194.32 433.02 194.20 C 425.69 194.28 418.36 194.38 411.03 194.19 C 406.58 193.88 401.39 195.64 397.60 192.62 C 411.04 191.63 424.58 192.87 438.02 191.88 C 437.48 190.71 436.94 189.54 436.40 188.38 C 435.57 188.39 433.93 188.41 433.10 188.42 C 434.41 182.93 438.85 178.92 441.05 173.80 C 443.31 173.74 445.58 173.69 447.85 173.64 C 447.68 172.74 447.32 170.94 447.14 170.04 C 448.90 167.95 451.19 166.49 453.92 166.05 C 453.36 164.35 452.77 162.67 452.19 160.98 C 455.23 158.04 458.06 154.88 460.65 151.53 C 462.13 151.19 463.61 150.84 465.11 150.50 C 464.15 148.91 463.21 147.31 462.28 145.70 C 465.09 143.00 467.91 140.32 470.68 137.57 C 474.06 137.30 477.46 137.23 480.86 137.10 M 484.03 137.39 C 484.53 138.65 485.03 139.90 485.54 141.16 C 487.03 139.84 488.53 138.54 490.05 137.25 C 488.04 137.30 486.03 137.35 484.03 137.39 M 497.37 137.50 C 494.19 140.28 490.95 142.99 487.53 145.47 C 493.01 146.17 498.57 145.35 504.00 146.54 C 510.28 148.32 513.93 141.71 517.09 137.49 C 510.52 137.49 503.94 137.46 497.37 137.50 M 465.33 144.78 C 469.07 144.66 472.85 145.03 476.57 144.56 C 478.48 142.85 479.89 140.67 481.39 138.61 C 478.28 138.57 475.12 138.30 472.07 138.99 C 469.48 140.48 467.54 142.82 465.33 144.78 M 485.83 144.21 C 488.26 142.89 490.36 141.04 492.10 138.89 C 489.48 139.92 486.86 141.43 485.83 144.21 M 509.55 148.09 C 510.58 152.47 511.65 156.86 512.54 161.28 C 513.60 161.78 514.60 162.47 515.76 162.80 C 515.80 161.12 515.61 159.44 515.57 157.76 C 517.97 159.33 517.69 162.48 518.16 164.97 C 517.63 164.75 516.58 164.31 516.05 164.09 L 515.53 164.29 C 515.09 168.33 515.34 172.43 516.35 176.37 C 518.02 176.90 519.69 177.46 521.36 178.04 C 521.64 175.04 522.50 172.04 522.03 169.03 C 521.91 167.43 521.02 165.46 523.03 164.60 C 523.22 165.85 523.42 167.10 523.62 168.36 C 524.27 168.92 524.93 169.50 525.58 170.09 C 522.54 171.83 523.79 175.51 523.38 178.33 C 525.08 178.87 526.77 179.43 528.48 179.97 C 528.11 175.47 529.87 169.80 525.44 166.81 L 527.57 166.49 C 528.24 158.52 525.17 150.81 525.37 142.85 C 523.53 143.40 521.69 143.96 519.86 144.51 C 519.49 142.47 519.09 140.42 518.70 138.38 C 516.06 141.98 513.07 145.33 509.55 148.09 M 477.43 146.41 C 479.34 152.64 481.07 158.94 482.67 165.26 C 485.06 163.26 487.37 161.16 489.59 158.97 C 486.68 152.87 485.06 146.30 482.99 139.90 C 480.88 141.82 478.89 143.94 477.43 146.41 M 521.23 141.12 C 521.53 144.49 524.08 139.37 521.23 141.12 M 465.97 146.98 C 466.35 148.45 466.72 149.93 467.13 151.40 C 467.32 150.52 467.70 148.75 467.88 147.87 C 468.37 148.65 469.35 150.21 469.84 150.99 C 471.76 150.86 472.79 149.66 473.12 147.78 C 473.42 148.51 474.03 149.96 474.33 150.69 C 474.97 150.71 476.24 150.77 476.88 150.79 C 476.31 149.39 475.74 147.99 475.20 146.59 C 472.11 146.54 469.03 146.62 465.97 146.98 M 487.48 147.61 C 487.56 148.40 487.70 149.99 487.77 150.79 C 489.51 150.31 491.24 149.83 492.99 149.38 C 492.87 148.91 492.63 147.95 492.51 147.47 C 490.83 147.53 489.15 147.57 487.48 147.61 M 495.11 147.38 C 495.23 150.26 496.27 152.99 497.77 155.43 C 497.49 152.64 497.85 149.08 495.11 147.38 M 498.27 148.25 C 498.99 150.67 499.71 153.10 500.48 155.51 C 502.42 155.83 504.36 156.19 506.30 156.53 C 505.62 157.90 504.93 159.26 504.25 160.63 C 506.43 160.94 508.61 161.26 510.80 161.55 C 510.08 157.12 509.03 152.76 507.78 148.46 C 504.61 148.39 501.44 148.31 498.27 148.25 M 491.62 151.47 C 491.07 153.34 490.50 155.21 490.01 157.10 C 490.93 156.50 491.85 155.91 492.77 155.31 C 493.51 155.37 494.99 155.50 495.74 155.56 C 495.21 154.23 494.68 152.90 494.17 151.57 C 493.31 151.54 492.46 151.50 491.62 151.47 M 455.78 160.37 C 461.46 160.35 467.13 160.79 472.81 160.69 C 474.72 158.53 475.65 155.67 476.97 153.13 C 472.35 152.27 467.60 152.43 462.94 152.79 C 459.58 154.12 457.85 157.64 455.78 160.37 M 474.40 164.66 C 476.71 173.74 480.01 182.87 479.62 192.37 C 480.45 192.32 482.10 192.23 482.92 192.19 C 482.48 184.97 480.01 178.07 479.32 170.89 C 478.93 168.49 481.00 166.43 480.43 164.02 C 480.03 161.06 479.02 158.23 478.08 155.41 C 476.48 158.26 473.67 161.13 474.40 164.66 M 492.71 157.34 C 489.69 161.59 485.87 165.17 481.87 168.46 C 487.87 169.57 493.96 170.17 499.96 171.34 C 502.12 171.58 504.46 172.32 506.59 171.55 C 509.19 169.28 510.90 166.23 512.92 163.49 C 508.88 162.77 504.66 162.91 500.76 161.51 C 501.88 160.19 503.04 158.90 504.18 157.60 C 500.35 157.45 496.53 157.36 492.71 157.34 M 454.96 162.32 C 456.71 169.38 459.60 176.09 462.19 182.88 C 463.41 186.18 464.85 189.42 466.84 192.35 C 463.55 182.70 459.38 173.37 456.23 163.68 C 460.67 163.64 465.12 163.55 469.57 163.38 C 471.28 172.68 474.27 181.69 475.97 190.97 C 473.55 191.16 471.14 191.29 468.74 191.61 C 472.08 191.78 475.42 191.71 478.76 191.84 C 476.84 181.97 475.45 171.84 471.48 162.52 C 465.97 162.40 460.46 162.24 454.96 162.32 M 459.29 165.48 C 459.32 166.01 459.38 167.09 459.41 167.63 C 462.48 167.56 465.55 167.51 468.63 167.49 C 468.60 166.96 468.53 165.91 468.49 165.38 C 465.42 165.38 462.36 165.45 459.29 165.48 M 513.48 165.78 C 511.68 168.46 509.26 170.65 507.45 173.31 C 507.36 177.75 507.95 182.27 509.42 186.48 C 510.19 182.50 508.77 178.67 508.44 174.78 C 508.86 174.44 509.72 173.78 510.15 173.45 C 510.37 175.30 510.57 177.17 510.87 179.03 C 511.75 177.80 512.64 176.57 513.55 175.36 C 513.66 174.15 513.76 172.95 513.86 171.75 C 513.23 173.26 512.62 174.78 512.02 176.29 C 511.49 174.84 510.97 173.39 510.45 171.94 C 511.50 171.51 512.56 171.08 513.62 170.66 C 513.55 169.03 513.51 167.41 513.48 165.78 M 448.05 173.50 C 450.59 173.50 453.14 173.48 455.69 173.45 C 455.55 171.95 455.50 170.43 455.12 168.96 C 454.21 167.47 452.33 167.77 450.87 167.46 C 449.61 169.31 448.37 171.23 448.05 173.50 M 461.38 169.46 C 461.36 170.50 461.33 171.54 461.32 172.58 C 464.24 172.70 467.17 172.76 470.10 172.70 C 469.78 171.90 469.14 170.30 468.82 169.51 C 466.34 169.29 463.85 169.46 461.38 169.46 M 481.22 170.36 C 481.98 177.85 483.68 185.25 485.45 192.56 C 485.50 190.17 485.44 187.79 485.42 185.40 C 486.90 185.49 488.39 185.61 489.88 185.76 C 489.45 186.80 488.54 187.45 487.17 187.70 C 487.31 189.21 487.47 190.72 487.62 192.24 C 495.33 192.10 503.05 192.43 510.76 191.99 C 510.71 191.26 510.60 189.79 510.55 189.06 C 510.09 189.54 509.15 190.50 508.69 190.98 C 506.73 185.44 506.11 179.55 505.42 173.75 C 497.34 172.71 489.34 171.09 481.22 170.36 M 461.90 174.49 C 463.32 178.42 468.22 176.15 471.33 176.33 C 468.76 173.93 465.10 174.63 461.90 174.49 M 442.18 175.40 C 439.99 179.21 437.76 183.00 435.16 186.55 C 440.84 186.45 446.52 186.42 452.21 186.30 C 451.80 182.31 455.38 180.19 458.86 179.78 C 458.35 178.31 457.82 176.84 457.31 175.38 C 452.26 175.37 447.22 175.38 442.18 175.40 M 463.43 179.43 C 465.90 179.68 468.38 179.70 470.86 179.70 C 470.86 179.38 470.87 178.76 470.88 178.45 C 468.39 178.60 465.65 178.02 463.43 179.43 M 513.47 179.79 C 511.28 183.00 510.80 186.96 512.41 190.55 C 517.52 192.96 523.22 192.04 528.67 192.26 C 528.20 189.15 528.41 185.99 528.22 182.86 C 526.63 180.29 523.05 179.67 520.72 181.62 C 520.16 180.60 519.61 179.57 519.07 178.55 C 518.32 178.55 516.82 178.54 516.07 178.54 C 515.42 178.85 514.12 179.48 513.47 179.79 M 453.78 183.09 C 453.21 184.86 453.42 186.84 454.17 188.54 C 455.46 192.60 460.72 192.39 464.19 192.25 C 462.64 188.22 460.89 184.28 459.27 180.29 C 457.40 181.14 455.43 181.84 453.78 183.09 M 465.52 182.39 C 466.41 184.03 470.36 182.81 471.62 181.99 C 469.76 181.31 467.19 181.21 465.52 182.39 M 439.16 188.35 C 439.34 189.77 439.53 191.18 439.72 192.61 C 441.53 192.10 443.88 192.03 443.80 189.54 C 445.94 189.51 448.09 189.50 450.25 189.49 C 450.48 190.05 450.93 191.16 451.16 191.71 C 451.80 191.76 453.09 191.85 453.73 191.90 C 453.58 190.69 453.43 189.49 453.29 188.28 C 448.58 188.27 443.87 188.33 439.16 188.35 M 531.34 194.64 C 532.47 197.02 535.43 196.59 537.61 196.79 C 538.61 195.27 539.47 193.64 539.87 191.85 C 538.84 190.70 537.85 189.53 536.90 188.34 C 533.43 187.90 530.40 191.22 531.34 194.64 Z" />
<path fill="#010101" opacity="1.00" d=" M 438.74 138.94 C 440.45 137.78 442.30 136.85 444.23 136.09 C 443.22 138.26 440.89 138.74 438.74 138.94 Z" />
<path fill="#010101" opacity="1.00" d=" M 453.71 136.33 C 455.65 136.95 457.78 137.33 459.37 138.71 C 459.68 140.00 459.90 141.31 460.03 142.64 C 459.32 141.31 458.69 139.96 458.06 138.60 C 456.60 138.43 455.14 138.27 453.69 138.13 C 454.91 139.48 456.13 140.79 457.34 142.16 C 456.45 141.68 454.68 140.72 453.80 140.24 C 453.46 140.82 452.78 141.97 452.44 142.54 C 451.92 142.63 450.88 142.80 450.36 142.88 C 450.40 142.22 450.47 140.91 450.50 140.25 C 449.35 140.19 447.06 140.06 445.91 140.00 C 447.19 138.84 448.76 138.63 450.61 139.35 C 451.64 138.35 452.68 137.35 453.71 136.33 Z" />
<path fill="#010101" opacity="1.00" d=" M 179.40 137.57 C 181.57 142.68 181.47 148.49 182.73 153.88 C 182.42 153.89 181.81 153.91 181.50 153.93 C 180.73 148.49 179.39 143.09 179.40 137.57 Z" />
<path fill="#010101" opacity="1.00" d=" M 506.59 138.80 C 509.47 138.51 512.37 138.35 515.26 138.18 C 513.67 140.69 512.00 143.25 509.46 144.91 C 509.90 143.42 510.39 141.96 510.87 140.48 C 509.35 140.17 507.15 140.91 506.59 138.80 Z" />
<path fill="#010101" opacity="1.00" d=" M 187.47 142.55 C 188.18 141.99 188.90 141.43 189.61 140.86 C 193.63 141.54 197.71 141.10 201.76 141.37 C 197.44 143.60 192.16 141.85 187.47 142.55 Z" />
<path fill="#010101" opacity="1.00" d=" M 451.37 143.75 C 454.29 143.02 458.51 140.97 459.82 145.03 C 456.79 146.16 453.83 147.75 450.51 147.77 C 451.86 147.06 453.25 146.43 454.66 145.81 C 453.84 145.30 452.19 144.27 451.37 143.75 Z" />
<path fill="#010101" opacity="1.00" d=" M 482.35 145.90 C 480.95 145.76 480.51 143.07 482.13 142.96 C 483.53 143.10 484.03 145.83 482.35 145.90 Z" />
<path fill="#010101" opacity="1.00" d=" M 575.71 144.25 C 575.75 142.41 578.74 143.72 577.51 145.04 C 577.06 144.84 576.16 144.45 575.71 144.25 Z" />
<path fill="#010101" opacity="1.00" d=" M 186.35 144.36 C 187.74 144.30 189.13 144.25 190.52 144.19 C 189.97 144.55 188.87 145.26 188.32 145.62 C 188.31 146.18 188.29 147.31 188.28 147.87 C 191.58 147.75 194.89 147.64 198.19 147.50 L 198.22 148.49 C 194.23 148.76 190.26 149.23 186.28 149.57 C 186.31 147.93 186.34 146.29 186.35 144.65 L 186.35 144.36 Z" />
<path fill="#010101" opacity="1.00" d=" M 447.55 150.15 C 447.01 147.45 447.28 144.48 450.62 143.97 C 450.73 146.58 450.13 149.00 447.55 150.15 Z" />
<path fill="#010101" opacity="1.00" d=" M 517.31 143.84 C 519.02 146.04 518.85 148.98 519.29 151.59 C 516.34 150.14 517.51 146.40 517.31 143.84 Z" />
<path fill="#010101" opacity="1.00" d=" M 479.80 149.29 C 478.68 148.99 478.03 146.54 479.57 146.48 C 480.66 146.77 481.26 149.20 479.80 149.29 Z" />
<path fill="#010101" opacity="1.00" d=" M 70.42 148.40 C 72.24 147.43 74.74 147.40 76.67 148.04 C 75.42 149.05 71.45 149.99 70.42 148.40 Z" />
<path fill="#010101" opacity="1.00" d=" M 69.76 151.49 C 72.64 150.52 75.69 150.24 78.71 150.42 C 75.93 151.83 72.78 151.71 69.76 151.49 Z" />
<path fill="#010101" opacity="1.00" d=" M 186.22 150.63 C 191.79 150.57 197.38 149.95 202.93 150.62 C 197.49 151.98 191.84 151.57 186.29 151.70 L 186.22 150.63 Z" />
<path fill="#010101" opacity="1.00" d=" M 483.60 150.31 C 485.08 149.50 486.56 152.81 484.95 153.34 C 483.76 153.04 483.00 151.38 483.60 150.31 Z" />
<path fill="#010101" opacity="1.00" d=" M 500.06 150.58 C 502.49 150.22 505.23 149.03 507.29 151.07 C 505.62 151.37 503.96 151.62 502.29 151.86 C 502.37 152.50 502.54 153.80 502.62 154.45 C 500.66 154.01 500.25 152.28 500.06 150.58 Z" />
<path fill="#010101" opacity="1.00" d=" M 512.54 153.30 C 512.60 151.71 512.66 150.13 512.81 148.55 C 513.66 150.35 514.46 152.18 515.18 154.04 C 514.52 153.85 513.20 153.48 512.54 153.30 Z" />
<path fill="#010101" opacity="1.00" d=" M 300.05 152.47 C 300.62 150.94 302.57 151.42 303.83 150.99 C 303.82 151.52 303.80 152.56 303.78 153.08 C 302.53 152.91 301.29 152.71 300.05 152.47 Z" />
<path fill="#010101" opacity="1.00" d=" M 305.63 153.35 C 306.06 151.92 307.34 151.56 308.67 151.35 C 308.71 151.91 308.81 153.03 308.85 153.59 C 308.05 153.53 306.43 153.41 305.63 153.35 Z" />
<path fill="#010101" opacity="1.00" d=" M 329.48 151.25 C 330.25 149.70 332.77 150.99 331.51 152.44 C 330.73 153.99 328.23 152.68 329.48 151.25 Z" />
<path fill="#010101" opacity="1.00" d=" M 195.24 152.62 C 199.54 152.15 203.87 152.37 208.18 152.51 C 207.92 152.65 207.41 152.93 207.16 153.07 C 201.05 154.35 194.85 155.91 188.56 155.40 C 188.29 155.25 187.75 154.96 187.48 154.82 C 190.16 154.44 192.86 153.99 195.24 152.62 Z" />
<path fill="#010101" opacity="1.00" d=" M 294.22 154.22 C 295.12 152.17 297.32 152.15 299.21 152.39 C 297.77 153.44 296.19 155.30 294.22 154.22 Z" />
<path fill="#010101" opacity="1.00" d=" M 323.11 154.13 C 324.40 153.25 328.15 151.09 327.38 154.30 C 325.97 154.72 324.49 154.48 323.11 154.13 Z" />
<path fill="#010101" opacity="1.00" d=" M 481.01 153.33 C 482.21 152.64 483.53 154.60 482.63 155.54 C 481.46 156.19 480.05 154.26 481.01 153.33 Z" />
<path fill="#010101" opacity="1.00" d=" M 70.23 154.55 C 72.47 154.38 74.70 154.16 76.93 153.90 L 76.79 155.03 L 75.14 154.32 C 74.99 154.93 74.70 156.13 74.55 156.73 C 75.51 156.74 77.42 156.75 78.37 156.76 C 77.18 157.11 75.98 157.44 74.78 157.76 C 73.89 155.96 72.15 155.02 70.15 155.28 C 70.17 155.09 70.21 154.73 70.23 154.55 Z" />
<path fill="#010101" opacity="1.00" d=" M 242.33 155.76 C 244.55 154.06 243.70 157.87 243.62 158.95 C 243.15 170.63 243.39 182.36 244.41 194.01 C 245.08 196.44 243.18 198.00 241.63 199.48 C 235.81 200.61 229.88 200.48 223.99 200.58 C 212.25 201.62 200.43 201.84 188.65 201.51 C 191.78 199.76 195.51 199.62 199.02 199.59 C 205.36 199.89 211.72 199.58 218.02 198.81 C 226.15 197.96 234.52 199.45 242.49 197.24 C 242.47 183.41 241.75 169.57 242.33 155.76 Z" />
<path fill="#010101" opacity="1.00" d=" M 522.50 161.61 C 519.56 160.37 520.30 156.77 520.91 154.37 C 521.72 156.71 522.29 159.14 522.50 161.61 Z" />
<path fill="#010101" opacity="1.00" d=" M 189.80 156.66 C 194.70 156.62 199.61 156.44 204.52 156.37 C 202.85 158.73 199.79 158.46 197.28 159.10 C 194.71 158.60 191.45 159.19 189.80 156.66 Z" />
<path fill="#010101" opacity="1.00" d=" M 482.57 162.47 C 482.33 160.13 483.75 158.36 485.20 156.72 C 488.01 159.26 484.93 161.52 482.57 162.47 Z" />
<path fill="#010101" opacity="1.00" d=" M 72.51 164.20 C 73.18 163.35 75.71 163.22 75.52 164.68 C 74.86 165.53 72.31 165.65 72.51 164.20 Z" />
<path fill="#010101" opacity="1.00" d=" M 578.74 164.04 C 580.37 164.95 581.72 166.21 582.06 168.13 C 582.65 168.30 583.82 168.64 584.41 168.82 C 584.29 170.62 584.16 172.43 584.03 174.23 C 585.41 172.84 586.85 171.47 588.31 170.14 C 588.43 169.52 588.69 168.26 588.81 167.63 C 590.16 167.58 591.52 167.55 592.89 167.53 C 594.06 167.05 595.22 166.41 596.52 166.31 C 597.19 167.17 597.86 168.03 598.52 168.91 C 596.73 167.11 594.10 166.93 593.07 169.65 C 591.94 169.07 590.95 167.80 589.52 168.39 C 589.48 169.22 589.42 170.87 589.38 171.70 C 588.73 171.72 587.43 171.77 586.78 171.79 C 586.58 173.31 586.42 174.83 586.28 176.36 C 587.13 177.02 588.01 177.69 588.89 178.35 C 587.83 179.25 586.79 180.16 585.76 181.08 C 587.08 181.95 588.43 182.82 589.73 183.76 C 586.65 183.44 583.83 182.15 581.13 180.73 C 583.05 180.53 585.07 180.41 586.80 179.41 C 585.69 178.21 584.72 176.89 584.29 175.30 C 583.81 175.39 582.86 175.58 582.38 175.67 C 582.51 175.09 582.77 173.92 582.89 173.34 C 582.18 173.50 580.77 173.80 580.06 173.95 C 581.54 172.61 582.87 171.10 584.04 169.48 C 583.14 169.42 581.33 169.30 580.43 169.24 C 580.53 168.66 580.72 167.51 580.82 166.93 C 580.10 165.98 579.41 165.02 578.74 164.04 Z" />
<path fill="#010101" opacity="1.00" d=" M 37.26 169.75 C 40.75 167.85 44.70 167.07 48.57 166.31 C 45.52 169.01 41.13 169.32 37.26 169.75 Z" />
<path fill="#010101" opacity="1.00" d=" M 71.69 167.59 C 74.01 166.28 76.71 166.39 79.27 166.62 C 76.86 167.58 74.25 167.73 71.69 167.59 Z" />
<path fill="#010101" opacity="1.00" d=" M 234.78 167.57 C 235.22 167.45 236.12 167.20 236.57 167.07 C 236.54 170.40 236.53 173.74 236.27 177.06 C 233.38 174.78 234.70 170.72 234.78 167.57 Z" />
<path fill="#010101" opacity="1.00" d=" M 400.11 177.23 C 403.20 172.82 407.51 169.35 411.79 166.14 C 411.33 168.47 409.12 169.54 407.47 170.92 C 403.22 173.90 400.82 178.66 397.36 182.41 C 396.69 182.45 395.34 182.53 394.67 182.57 C 396.50 180.81 398.36 179.08 400.11 177.23 Z" />
<path fill="#010101" opacity="1.00" d=" M 518.21 167.47 C 519.75 169.07 520.08 171.30 520.46 173.40 C 517.75 172.60 518.41 169.59 518.21 167.47 Z" />
<path fill="#010101" opacity="1.00" d=" M 139.47 169.16 C 140.05 169.20 141.21 169.29 141.79 169.34 C 142.30 173.68 139.01 177.38 134.84 178.14 C 127.55 179.19 120.28 177.40 112.99 177.58 C 96.99 177.51 80.98 177.25 65.03 178.48 L 65.91 176.95 C 69.53 176.23 73.25 176.43 76.92 176.28 C 94.91 175.22 112.99 174.95 130.98 176.16 C 134.36 176.40 137.66 175.11 139.66 172.33 C 139.62 171.53 139.52 169.95 139.47 169.16 Z" />
<path fill="#010101" opacity="1.00" d=" M 36.59 172.49 C 40.55 171.76 44.47 170.87 48.42 170.12 C 45.00 172.58 40.67 173.06 36.59 172.49 Z" />
<path fill="#010101" opacity="1.00" d=" M 484.39 172.60 C 490.66 172.72 497.02 173.19 503.10 174.81 C 502.48 175.19 501.25 175.95 500.64 176.32 C 500.26 177.56 499.68 178.71 498.51 179.36 C 498.48 178.41 498.41 176.52 498.37 175.57 C 496.14 175.44 493.91 175.35 491.69 175.29 C 491.58 176.29 491.35 178.28 491.24 179.28 C 490.15 177.06 489.64 173.85 486.41 174.23 C 486.40 175.86 486.42 177.49 486.44 179.13 C 487.33 179.30 489.12 179.64 490.02 179.81 C 488.83 180.37 487.64 180.93 486.46 181.49 C 486.42 182.21 486.32 183.66 486.27 184.38 L 484.88 183.34 C 484.37 179.79 484.57 176.17 484.39 172.60 Z" />
<path fill="#010101" opacity="1.00" d=" M 37.18 176.40 C 41.26 175.39 45.38 174.57 49.50 173.70 C 45.85 175.94 41.43 176.99 37.18 176.40 Z" />
<path fill="#010101" opacity="1.00" d=" M 274.65 177.75 C 280.48 177.32 286.01 175.36 291.44 173.34 C 291.09 179.63 291.93 185.87 292.60 192.10 C 287.08 194.07 281.35 195.44 275.47 195.60 C 273.59 189.81 274.97 183.70 274.65 177.75 M 285.44 176.76 C 285.41 177.88 285.38 178.99 285.36 180.11 C 287.06 179.55 288.75 178.97 290.45 178.39 C 290.41 177.57 290.32 175.95 290.27 175.14 C 288.66 175.69 287.05 176.23 285.44 176.76 M 275.24 181.61 C 278.37 181.68 281.49 181.25 284.52 180.46 C 284.43 179.65 284.26 178.04 284.17 177.23 C 281.13 178.45 276.03 177.50 275.24 181.61 M 285.56 180.89 C 285.52 182.92 285.49 184.95 285.49 186.99 C 287.22 186.42 288.94 185.84 290.67 185.25 C 290.58 183.50 290.48 181.76 290.39 180.02 C 288.78 180.31 287.17 180.60 285.56 180.89 M 275.66 182.85 C 275.60 184.78 275.53 186.71 275.48 188.64 C 278.52 188.45 281.53 188.05 284.52 187.46 C 284.47 185.52 284.42 183.59 284.36 181.66 C 281.50 182.29 278.58 182.61 275.66 182.85 M 285.48 188.44 C 285.59 190.00 285.69 191.56 285.80 193.13 C 287.71 192.55 289.61 191.96 291.52 191.35 C 291.39 189.64 291.26 187.92 291.14 186.21 C 289.24 186.91 287.35 187.65 285.48 188.44 M 275.26 189.68 C 275.68 191.24 275.56 193.13 276.91 194.27 C 279.52 194.54 282.11 193.97 284.66 193.46 C 284.61 191.82 284.56 190.17 284.52 188.53 C 281.46 189.12 278.37 189.49 275.26 189.68 Z" />
<path fill="#010101" opacity="1.00" d=" M 39.27 178.67 C 42.61 178.60 45.96 178.35 49.31 178.53 C 46.10 179.63 42.69 179.72 39.34 179.71 C 39.32 179.45 39.28 178.93 39.27 178.67 Z" />
<path fill="#010101" opacity="1.00" d=" M 95.36 182.30 C 96.25 180.76 97.57 179.55 98.76 178.25 C 102.96 177.69 106.99 180.78 107.53 184.96 C 108.11 188.62 104.79 192.28 101.04 191.70 C 96.48 192.12 92.95 186.14 95.36 182.30 M 98.03 181.95 C 95.06 184.91 97.49 189.46 101.32 189.99 C 101.02 188.89 100.70 187.79 100.35 186.70 C 100.38 184.74 99.71 182.14 102.40 181.69 C 102.60 184.37 101.57 187.27 102.82 189.78 C 103.46 189.13 104.72 187.83 105.36 187.19 C 105.40 186.23 105.45 185.29 105.50 184.34 C 103.95 181.83 100.69 180.02 98.03 181.95 Z" />
<path fill="#010101" opacity="1.00" d=" M 490.29 180.21 C 492.38 180.26 494.59 180.10 496.54 181.06 C 495.18 181.52 493.83 181.97 492.48 182.40 C 492.44 183.44 492.36 185.50 492.31 186.54 C 494.08 186.48 495.88 186.39 497.66 186.50 C 498.27 188.98 494.87 187.98 493.53 188.33 C 493.47 189.08 493.35 190.58 493.29 191.33 C 490.86 188.19 491.09 183.93 490.29 180.21 Z" />
<path fill="#010101" opacity="1.00" d=" M 498.15 180.39 C 499.54 180.43 500.93 180.47 502.33 180.53 C 501.67 181.27 501.01 182.02 500.36 182.76 C 500.46 183.51 500.66 185.03 500.76 185.78 C 500.42 185.83 499.75 185.93 499.42 185.98 C 498.99 184.12 498.57 182.25 498.15 180.39 Z" />
<path fill="#010101" opacity="1.00" d=" M 595.92 182.36 C 597.33 181.88 597.89 182.33 597.61 183.70 C 596.18 184.16 595.62 183.72 595.92 182.36 Z" />
<path fill="#010101" opacity="1.00" d=" M 392.46 182.77 C 394.11 182.25 394.64 182.79 394.05 184.41 C 392.40 184.93 391.87 184.38 392.46 182.77 Z" />
<path fill="#010101" opacity="1.00" d=" M 383.33 184.01 C 384.34 182.49 386.79 184.25 385.61 185.69 C 384.62 187.28 382.21 185.41 383.33 184.01 Z" />
<path fill="#010101" opacity="1.00" d=" M 388.20 186.27 C 386.39 185.75 387.55 183.01 389.20 183.55 C 391.10 183.99 389.81 186.80 388.20 186.27 Z" />
<path fill="#010101" opacity="1.00" d=" M 353.32 187.46 C 358.98 184.74 366.16 193.43 361.16 198.17 C 358.51 201.73 353.17 200.50 350.77 197.32 C 348.08 194.21 349.45 188.86 353.32 187.46 M 353.72 189.68 C 351.63 190.70 350.83 193.69 352.18 195.54 C 353.68 195.68 355.20 195.69 356.72 195.77 C 355.68 194.21 354.74 192.58 353.87 190.93 C 355.30 190.34 356.73 189.75 358.16 189.15 C 356.67 189.28 355.17 189.35 353.72 189.68 M 359.45 190.59 C 359.38 192.85 359.49 195.10 359.70 197.35 C 360.59 195.13 360.80 192.68 359.45 190.59 Z" />
<path fill="#010101" opacity="1.00" d=" M 389.57 191.47 C 388.93 189.93 389.40 188.30 389.93 186.81 C 390.57 188.24 390.49 190.25 391.99 191.16 C 393.41 191.41 394.85 191.62 396.30 191.78 C 394.72 194.26 391.26 193.33 389.57 191.47 Z" />
<path fill="#010101" opacity="1.00" d=" M 423.78 189.43 C 424.47 188.08 424.99 186.09 427.00 186.71 C 427.78 187.28 428.56 187.88 429.31 188.50 C 427.98 188.41 426.66 188.31 425.34 188.21 C 425.06 188.80 424.49 189.98 424.20 190.57 C 420.69 190.54 417.04 190.92 413.72 189.57 C 417.06 189.35 420.42 189.55 423.78 189.43 Z" />
<path fill="#010101" opacity="1.00" d=" M 500.17 187.16 C 501.83 187.22 503.50 187.29 505.18 187.37 C 504.40 187.85 503.62 188.33 502.86 188.82 C 502.21 189.72 501.47 190.54 500.58 191.20 C 500.43 189.85 500.29 188.51 500.17 187.16 Z" />
<path fill="#010101" opacity="1.00" d=" M 400.49 190.95 C 399.77 189.54 401.87 188.48 403.02 188.88 C 405.32 190.11 401.73 192.75 400.49 190.95 Z" />
<path fill="#010101" opacity="1.00" d=" M 405.55 189.17 C 406.78 188.28 407.45 188.53 407.56 189.91 C 406.32 190.79 405.65 190.54 405.55 189.17 Z" />
<path fill="#010101" opacity="1.00" d=" M 535.17 188.79 C 536.03 190.17 536.87 191.57 537.73 192.96 C 537.39 193.66 536.71 195.07 536.36 195.77 C 534.78 195.24 533.32 194.38 532.10 193.27 C 532.96 191.67 534.08 190.23 535.17 188.79 Z" />
<path fill="#010101" opacity="1.00" d=" M 609.92 191.00 C 607.49 189.72 611.31 187.24 612.50 189.11 C 613.22 190.54 611.01 191.43 609.92 191.00 Z" />
<path fill="#010101" opacity="1.00" d=" M 664.20 195.99 C 663.83 193.64 665.88 192.04 667.00 190.26 L 667.00 191.40 C 665.07 193.90 664.95 196.89 667.00 199.36 L 667.00 200.43 C 666.07 198.97 664.31 197.82 664.20 195.99 Z" />
<path fill="#010101" opacity="1.00" d=" M 244.28 200.43 C 248.70 199.16 254.71 203.06 252.90 207.99 C 251.44 213.30 243.27 213.94 240.56 209.40 C 238.46 206.15 240.54 201.25 244.28 200.43 M 242.71 202.80 C 242.45 205.00 242.41 207.22 242.54 209.44 C 245.13 209.25 248.47 210.57 250.47 208.40 C 250.68 206.81 250.58 205.21 250.56 203.61 C 249.38 203.44 248.19 203.27 247.01 203.11 C 247.31 205.05 248.08 206.76 250.25 207.20 C 248.51 209.36 245.41 208.24 243.06 208.61 C 243.45 207.87 244.22 206.38 244.61 205.64 C 243.97 204.70 243.34 203.75 242.71 202.80 Z" />
</g>
<g id="#6b0002a7">
<path fill="#6b0002" opacity="0.65" d=" M 123.20 64.23 C 126.58 64.38 121.59 67.15 123.20 64.23 Z" />
<path fill="#6b0002" opacity="0.65" d=" M 182.51 130.32 C 186.28 129.17 190.26 129.43 194.15 129.48 C 194.44 130.30 194.73 131.13 195.02 131.95 C 195.32 131.39 195.90 130.27 196.20 129.71 C 198.97 129.25 201.79 129.48 204.59 129.47 C 204.58 130.80 204.57 132.13 204.58 133.46 C 202.33 133.45 200.09 133.47 197.85 133.55 C 202.06 135.66 206.82 137.44 209.42 141.65 C 212.57 145.96 211.50 151.80 209.03 156.16 C 208.68 156.80 207.99 158.09 207.65 158.74 C 204.34 160.38 201.11 162.28 197.36 162.70 C 196.10 162.42 194.82 162.25 193.54 162.20 C 191.73 161.28 189.93 160.33 188.24 159.22 C 187.42 158.64 186.65 157.99 185.95 157.28 C 180.64 151.53 182.52 142.73 186.76 136.93 C 189.21 135.94 191.66 134.92 193.98 133.65 C 192.50 132.92 191.16 134.64 189.82 133.73 C 188.16 133.86 186.48 133.57 184.89 134.26 C 183.01 133.89 181.12 133.54 179.22 133.29 C 179.30 132.33 179.39 131.37 179.47 130.41 C 180.48 130.38 181.49 130.36 182.51 130.32 M 192.57 137.80 C 190.39 138.69 188.63 140.30 186.71 141.61 C 186.62 142.30 186.44 143.68 186.35 144.36 L 186.35 144.65 C 185.96 146.63 185.77 148.64 185.58 150.65 L 186.22 150.63 L 186.29 151.70 C 186.70 152.73 187.10 153.77 187.48 154.82 C 187.75 154.96 188.29 155.25 188.56 155.40 C 188.87 155.71 189.49 156.34 189.80 156.66 C 191.45 159.19 194.71 158.60 197.28 159.10 C 199.79 158.46 202.85 158.73 204.52 156.37 C 206.18 156.17 206.54 154.29 207.16 153.07 C 207.41 152.93 207.92 152.65 208.18 152.51 C 207.49 148.07 207.90 142.31 203.49 139.63 C 200.44 137.11 196.25 137.26 192.57 137.80 Z" />
<path fill="#6b0002" opacity="0.65" d=" M 495.82 140.91 C 497.68 139.69 499.81 138.74 502.06 138.58 C 503.51 139.13 504.80 140.01 506.13 140.81 C 504.55 142.20 503.36 144.72 500.96 144.68 C 499.06 144.80 497.17 144.65 495.29 144.55 C 495.45 143.35 495.20 142.01 495.82 140.91 Z" />
<path fill="#6b0002" opacity="0.65" d=" M 422.47 141.48 C 425.50 139.82 428.95 141.12 431.72 142.68 C 431.35 143.32 430.59 144.61 430.21 145.25 C 427.80 146.26 425.10 146.77 422.84 145.07 C 421.11 144.82 420.73 141.84 422.47 141.48 Z" />
</g>
</svg>
