<?xml version="1.0" encoding="UTF-8" ?>
<!DOCTYPE svg PUBLIC "-//W3C//DTD SVG 1.1//EN" "http://www.w3.org/Graphics/SVG/1.1/DTD/svg11.dtd">
<svg width="667pt" height="215pt" viewBox="0 0 667 215" version="1.1" xmlns="http://www.w3.org/2000/svg">
<g id="#010101fe">
<path fill="#010101" opacity="1.00" d=" M 122.54 13.86 C 121.77 9.25 128.64 7.50 131.03 10.96 C 132.61 13.24 131.21 16.09 129.32 17.71 C 126.60 17.83 122.57 17.40 122.54 13.86 Z" />
<path fill="#010101" opacity="1.00" d=" M 483.39 11.34 C 485.66 11.29 487.95 11.26 490.24 11.24 C 487.96 17.64 485.01 24.02 485.25 30.98 C 484.65 39.44 486.50 47.95 490.68 55.34 C 488.30 55.43 485.94 55.51 483.57 55.60 C 475.57 42.34 475.71 24.71 483.39 11.34 Z" />
<path fill="#010101" opacity="1.00" d=" M 565.83 11.22 C 568.19 11.26 570.56 11.31 572.92 11.40 C 580.60 24.72 580.46 42.01 573.04 55.41 C 570.56 55.47 568.10 55.45 565.64 55.37 C 570.18 46.72 572.30 36.68 570.73 26.97 C 570.19 21.43 567.85 16.33 565.83 11.22 Z" />
<path fill="#010101" opacity="1.00" d=" M 84.84 13.33 C 87.51 13.32 90.19 13.32 92.87 13.34 C 96.44 20.92 99.27 28.83 102.97 36.36 C 106.58 28.77 109.72 20.97 113.17 13.32 C 115.70 13.32 118.24 13.34 120.78 13.39 C 116.11 24.50 111.34 35.56 106.40 46.54 C 103.88 46.51 101.35 46.50 98.83 46.48 C 94.27 35.39 88.91 24.62 84.84 13.33 Z" />
<path fill="#010101" opacity="1.00" d=" M 312.32 13.32 C 320.87 13.91 330.22 11.55 338.04 16.03 C 346.97 21.01 348.13 34.98 340.71 41.77 C 337.57 44.73 333.30 46.35 329.01 46.48 C 323.48 46.65 317.95 46.44 312.42 46.55 C 312.13 35.47 312.30 24.39 312.32 13.32 M 320.36 19.60 C 320.00 26.37 320.25 33.15 320.13 39.92 C 324.32 39.79 328.86 40.69 332.75 38.73 C 339.28 35.47 339.39 24.50 332.83 21.23 C 329.03 19.06 324.53 19.75 320.36 19.60 Z" />
<path fill="#010101" opacity="1.00" d=" M 490.95 13.31 C 493.62 13.31 496.28 13.31 498.95 13.28 C 502.58 20.87 505.47 28.78 509.09 36.36 C 512.83 28.83 515.83 20.97 519.33 13.32 C 521.84 13.32 524.36 13.33 526.88 13.36 C 522.41 24.52 517.40 35.46 512.66 46.52 C 510.23 46.51 507.79 46.65 505.37 46.38 C 504.14 45.16 503.69 43.37 502.94 41.85 C 499.00 32.31 494.50 23.00 490.95 13.31 Z" />
<path fill="#010101" opacity="1.00" d=" M 529.79 13.27 C 537.96 13.92 546.72 11.77 554.38 15.44 C 561.54 18.81 564.76 27.87 562.25 35.21 C 560.23 42.13 552.99 46.52 546.00 46.51 C 540.52 46.56 535.04 46.58 529.57 46.40 C 529.75 35.36 529.32 24.31 529.79 13.27 M 537.52 19.64 C 537.30 26.38 537.49 33.12 537.36 39.86 C 541.70 39.78 546.49 40.80 550.46 38.54 C 556.58 35.15 556.66 24.99 550.66 21.44 C 546.73 18.98 541.91 19.76 537.52 19.64 Z" />
<path fill="#010101" opacity="1.00" d=" M 138.52 15.41 C 140.97 15.40 143.43 15.38 145.89 15.36 C 146.04 17.45 146.18 19.53 146.29 21.62 C 148.28 21.62 150.27 21.63 152.26 21.63 C 152.30 23.55 152.34 25.47 152.38 27.39 C 150.36 27.40 148.34 27.41 146.32 27.40 C 146.32 31.44 145.82 35.52 146.49 39.53 C 147.97 41.25 150.29 40.23 152.19 40.12 C 152.77 42.12 155.32 45.33 152.18 46.35 C 149.46 46.85 146.64 46.87 143.92 46.36 C 140.83 45.34 138.71 42.22 138.56 39.02 C 138.30 35.17 138.48 31.31 138.43 27.46 C 137.15 27.42 135.86 27.38 134.57 27.35 C 134.61 25.47 134.65 23.60 134.69 21.73 C 135.94 21.65 137.20 21.58 138.45 21.51 C 138.47 19.48 138.49 17.44 138.52 15.41 Z" />
<path fill="#010101" opacity="1.00" d=" M 123.53 20.75 C 125.92 20.79 128.32 20.84 130.71 20.93 C 130.77 29.45 130.77 37.98 130.73 46.50 C 128.28 46.50 125.84 46.49 123.40 46.45 C 123.48 37.89 123.28 29.32 123.53 20.75 Z" />
<path fill="#010101" opacity="1.00" d=" M 157.38 23.66 C 161.99 20.87 167.65 19.82 172.92 21.04 C 176.70 21.92 180.06 25.06 180.45 29.04 C 180.90 34.84 180.54 40.67 180.62 46.49 C 178.24 46.49 175.86 46.49 173.48 46.49 C 173.49 45.64 173.51 43.94 173.52 43.10 C 173.14 43.89 172.77 44.68 172.40 45.47 C 168.64 46.91 164.16 47.41 160.43 45.72 C 156.05 43.64 154.94 36.88 158.76 33.76 C 162.70 30.43 168.24 31.60 172.98 31.35 C 172.61 30.09 172.68 28.52 171.52 27.66 C 167.63 26.88 163.49 27.13 159.84 28.75 C 159.02 27.05 158.20 25.36 157.38 23.66 M 164.31 36.51 C 164.31 37.86 164.26 39.22 164.42 40.56 C 168.01 43.72 174.24 40.52 173.44 35.65 C 170.37 35.54 167.26 35.53 164.31 36.51 Z" />
<path fill="#010101" opacity="1.00" d=" M 187.47 20.80 C 189.75 20.82 192.04 20.83 194.33 20.85 C 194.35 21.59 194.39 23.05 194.41 23.79 C 196.91 21.72 199.94 20.50 203.21 20.49 C 203.24 22.72 203.26 24.96 203.29 27.20 C 200.31 27.27 196.48 27.81 195.41 31.10 C 194.08 36.11 195.00 41.37 194.67 46.50 C 192.22 46.49 189.78 46.49 187.34 46.46 C 187.40 37.90 187.20 29.35 187.47 20.80 Z" />
<path fill="#010101" opacity="1.00" d=" M 206.94 23.28 C 211.85 20.91 217.57 19.64 222.92 21.26 C 226.37 22.25 229.20 25.28 229.67 28.88 C 230.66 34.67 230.03 40.57 230.21 46.41 C 227.65 46.47 225.10 46.49 222.55 46.47 C 222.63 45.87 222.79 44.68 222.88 44.08 C 220.26 46.67 216.53 47.05 213.03 46.63 C 207.51 46.64 203.42 39.46 206.97 34.91 C 210.70 30.15 217.38 31.68 222.62 31.29 C 222.16 30.12 221.70 28.95 221.26 27.77 C 217.31 26.00 213.08 26.99 209.38 28.87 C 208.26 27.15 207.41 25.28 206.94 23.28 M 213.43 37.33 C 211.73 41.71 217.92 42.92 220.61 40.75 C 222.50 39.71 222.41 37.47 222.61 35.62 C 219.58 35.92 215.65 34.63 213.43 37.33 Z" />
<path fill="#010101" opacity="1.00" d=" M 236.55 20.84 C 238.86 20.84 241.16 20.84 243.47 20.84 C 243.47 21.53 243.46 22.90 243.46 23.58 C 246.49 21.39 250.23 19.97 254.02 20.72 C 258.29 21.17 261.87 24.80 262.31 29.07 C 262.86 34.84 262.42 40.65 262.56 46.44 C 260.11 46.49 257.66 46.52 255.22 46.54 C 254.57 41.36 255.14 36.13 254.64 30.94 C 254.64 29.48 253.46 28.47 252.72 27.34 C 249.75 27.24 245.82 26.93 244.59 30.37 C 243.62 35.69 244.61 41.16 243.81 46.51 C 241.35 46.50 238.89 46.48 236.43 46.44 C 236.49 37.91 236.31 29.37 236.55 20.84 Z" />
<path fill="#010101" opacity="1.00" d=" M 268.38 23.67 C 273.44 20.64 279.84 19.51 285.46 21.56 C 289.00 22.81 291.52 26.31 291.56 30.07 C 291.83 35.52 291.59 40.99 291.65 46.45 C 289.26 46.48 286.89 46.49 284.51 46.50 C 284.53 45.90 284.58 44.69 284.60 44.09 C 281.31 47.34 276.25 47.20 272.09 46.07 C 267.24 44.27 265.73 37.08 269.78 33.74 C 273.81 30.40 279.42 31.68 284.22 31.26 C 283.68 29.99 283.48 28.44 282.27 27.59 C 278.46 26.90 274.43 27.14 270.86 28.74 C 270.03 27.05 269.21 25.36 268.38 23.67 M 275.28 36.72 C 275.53 38.33 274.45 40.89 276.66 41.38 C 280.56 43.07 285.31 39.93 283.65 35.51 C 281.78 35.59 279.91 35.65 278.04 35.72 C 277.35 35.97 275.97 36.47 275.28 36.72 Z" />
<path fill="#010101" opacity="1.00" d=" M 350.62 21.22 C 352.94 20.92 355.27 20.78 357.61 20.73 C 357.64 21.50 357.69 23.02 357.72 23.79 C 360.21 21.73 363.25 20.65 366.46 20.38 C 366.51 22.65 366.55 24.91 366.58 27.18 C 364.25 27.39 361.98 27.98 359.78 28.77 C 356.97 34.29 358.95 40.65 357.99 46.54 C 355.53 46.52 353.07 46.48 350.62 46.42 C 350.62 38.02 350.64 29.62 350.62 21.22 Z" />
<path fill="#010101" opacity="1.00" d=" M 377.33 21.48 C 383.55 19.22 391.61 21.04 395.05 27.03 C 398.02 32.21 397.21 39.61 392.49 43.51 C 388.65 47.20 382.90 47.09 378.00 46.31 C 372.72 44.72 368.72 39.59 368.71 34.03 C 368.54 28.58 372.06 23.14 377.33 21.48 M 379.46 27.61 C 374.44 30.69 375.67 40.11 382.01 40.57 C 387.47 41.58 391.04 34.81 388.46 30.38 C 387.16 26.62 382.60 26.97 379.46 27.61 Z" />
<path fill="#010101" opacity="1.00" d=" M 401.69 20.88 C 403.97 20.85 406.25 20.83 408.54 20.80 C 408.56 21.49 408.62 22.87 408.65 23.56 C 414.07 18.87 424.36 19.48 426.94 26.94 C 428.37 33.31 427.32 39.96 427.65 46.44 C 425.19 46.48 422.73 46.50 420.28 46.50 C 419.88 40.83 421.01 34.96 419.44 29.43 C 418.20 26.70 414.80 27.18 412.40 27.57 C 410.00 28.79 409.01 31.48 409.22 34.04 C 409.16 38.20 409.42 42.38 408.86 46.52 C 406.42 46.50 403.99 46.48 401.56 46.43 C 401.64 37.92 401.42 29.39 401.69 20.88 Z" />
<path fill="#010101" opacity="1.00" d=" M 435.02 25.96 C 440.04 18.86 452.13 18.65 457.15 25.84 C 459.41 28.82 459.60 32.66 459.36 36.25 C 453.13 36.35 446.90 36.22 440.68 36.34 C 442.54 42.09 450.07 41.27 454.03 38.33 C 455.27 39.83 456.51 41.35 457.73 42.88 C 453.12 47.47 445.76 47.67 440.00 45.50 C 432.54 42.52 430.27 32.16 435.02 25.96 M 440.16 31.37 C 444.20 31.41 448.24 31.41 452.28 31.22 C 451.24 24.80 440.81 24.82 440.16 31.37 Z" />
<path fill="#010101" opacity="1.00" d=" M 119.80 63.74 C 121.74 61.27 124.95 61.35 127.79 61.68 C 129.22 61.03 130.71 60.13 132.36 60.66 C 133.94 64.78 129.32 66.45 127.17 69.00 C 129.74 67.54 132.49 65.27 135.41 67.46 C 134.72 66.09 133.67 65.07 132.27 64.39 C 133.30 64.35 134.32 64.40 135.34 64.55 C 135.41 65.27 135.55 66.71 135.62 67.44 C 137.14 68.27 139.03 69.00 138.68 71.15 C 136.70 73.75 132.95 72.56 130.52 71.28 C 130.48 76.04 125.69 78.36 124.94 82.76 C 131.00 85.24 136.66 89.21 143.33 89.81 C 141.44 88.69 138.31 88.59 138.16 85.82 C 140.09 83.98 142.75 85.36 144.99 85.69 C 147.16 85.82 147.35 88.31 148.27 89.78 C 148.38 87.58 148.54 85.39 148.78 83.20 C 145.99 83.97 143.06 83.99 140.73 82.09 C 145.12 79.79 149.88 81.70 154.51 81.76 C 155.15 85.25 152.64 87.83 150.77 90.43 C 153.51 90.30 156.25 90.24 158.99 90.32 C 157.98 88.16 156.92 86.02 156.00 83.81 C 158.11 85.44 159.34 87.85 159.48 90.52 C 160.06 90.80 161.22 91.36 161.80 91.65 C 161.67 92.67 161.54 93.70 161.41 94.73 C 158.59 94.87 155.89 94.14 153.21 93.36 C 151.79 95.60 150.16 98.57 147.05 98.33 C 143.07 97.60 139.63 94.91 135.43 95.13 C 134.99 100.49 134.76 105.94 133.35 111.17 C 133.14 112.50 132.27 113.50 131.23 114.29 C 132.19 107.92 134.09 101.63 133.50 95.10 C 132.23 95.59 130.97 96.09 129.70 96.60 C 129.59 101.64 129.74 107.58 126.03 111.48 C 126.38 106.62 128.98 101.99 127.94 97.04 C 126.98 97.45 126.02 97.88 125.07 98.31 C 124.40 98.39 123.04 98.55 122.37 98.63 C 121.93 100.71 123.48 100.71 125.09 100.49 C 124.43 101.76 123.78 103.03 123.14 104.30 C 122.68 104.51 121.77 104.93 121.31 105.14 C 121.47 104.48 121.80 103.16 121.96 102.50 C 121.46 102.62 120.47 102.87 119.98 102.99 C 120.36 102.08 120.75 101.17 121.13 100.26 C 120.51 100.36 119.27 100.54 118.64 100.63 C 118.18 102.56 117.69 104.48 117.23 106.41 C 114.76 106.31 111.87 107.14 109.83 105.31 C 108.65 104.36 107.64 103.22 106.58 102.14 C 106.54 105.11 106.62 108.08 106.39 111.04 C 104.23 107.45 104.58 103.11 104.46 99.07 C 105.22 97.54 106.47 96.26 107.01 94.59 C 105.10 93.75 102.12 92.20 100.81 94.79 C 97.29 98.19 98.17 103.62 95.43 107.31 C 94.62 101.44 97.64 96.17 101.02 91.67 C 96.37 90.27 91.51 90.61 86.73 90.51 C 83.95 87.05 86.73 81.12 91.37 82.48 C 93.21 81.04 95.11 79.67 96.99 78.27 C 98.87 78.81 99.99 80.01 99.71 82.02 C 98.71 82.56 97.80 83.23 97.00 84.03 C 98.72 85.26 100.92 85.92 102.98 85.14 C 107.51 83.77 112.11 82.44 116.34 80.29 C 119.78 77.92 119.73 73.35 120.62 69.69 C 121.90 69.00 123.16 68.25 124.43 67.52 C 125.28 65.70 126.15 63.89 127.02 62.08 C 124.79 62.51 122.58 63.06 120.42 63.72 C 121.18 65.15 122.53 66.47 122.41 68.22 C 118.95 69.00 115.08 68.40 112.22 66.21 C 112.25 65.61 112.31 64.40 112.34 63.79 C 114.74 62.91 117.32 63.68 119.80 63.74 M 122.69 69.39 C 122.21 70.73 121.72 72.07 121.24 73.41 C 123.31 71.93 125.63 70.96 128.23 71.22 C 126.88 69.38 124.73 69.35 122.69 69.39 M 119.65 78.65 C 118.61 81.05 115.02 81.85 115.54 84.88 C 114.59 85.38 113.64 85.88 112.69 86.39 C 115.40 86.47 118.25 85.95 120.84 86.94 C 122.82 87.82 125.38 89.55 124.34 92.08 C 120.03 95.37 114.50 93.67 109.64 93.05 C 111.18 94.46 112.82 95.75 114.54 96.94 C 115.76 100.59 111.23 100.57 109.01 101.88 C 110.35 104.41 113.14 104.67 115.67 104.91 C 115.99 103.39 116.30 101.86 116.58 100.33 C 119.41 97.38 123.60 96.93 127.21 95.45 C 124.22 95.68 121.29 96.84 118.27 96.23 C 122.60 94.10 127.66 93.91 131.78 91.23 C 128.49 89.23 124.86 87.79 121.64 85.66 C 121.52 85.25 121.27 84.43 121.14 84.02 C 124.95 85.76 128.58 87.87 132.32 89.77 C 132.46 90.71 132.60 91.64 132.74 92.58 C 137.81 92.56 142.19 95.26 147.00 96.29 C 149.81 96.85 150.89 93.96 151.02 91.72 C 147.47 89.36 143.49 92.54 139.80 91.08 C 134.24 89.08 129.10 86.08 123.55 84.06 C 122.98 79.70 126.00 76.00 126.41 71.74 C 123.17 72.89 121.11 75.69 119.65 78.65 M 113.33 82.98 C 113.13 86.37 116.39 81.71 113.33 82.98 M 87.47 85.48 C 87.40 86.54 87.33 87.60 87.26 88.67 C 92.37 88.74 97.53 88.67 102.53 89.96 C 102.44 89.32 102.26 88.05 102.17 87.41 C 97.37 86.40 92.36 83.51 87.47 85.48 M 103.89 88.94 C 102.12 91.13 105.59 91.81 107.07 91.29 C 107.48 91.48 108.30 91.85 108.71 92.03 C 108.71 90.06 109.51 88.32 110.80 86.86 C 108.50 87.56 106.15 88.12 103.89 88.94 M 112.50 88.16 C 112.18 88.99 111.52 90.64 111.19 91.47 C 115.21 92.94 119.63 93.03 123.54 91.17 C 121.28 87.31 116.38 87.21 112.50 88.16 M 108.36 96.54 C 108.45 96.97 108.65 97.82 108.75 98.24 C 109.32 98.48 110.46 98.94 111.03 99.18 C 113.02 98.07 109.75 95.42 108.36 96.54 M 106.66 99.92 C 107.49 101.33 108.33 101.32 109.19 99.90 C 108.36 98.45 107.51 98.46 106.66 99.92 Z" />
<path fill="#010101" opacity="1.00" d=" M 89.07 80.87 C 89.04 76.78 92.47 73.70 96.12 72.56 C 98.03 72.56 98.05 74.32 97.63 75.72 C 96.07 78.95 92.83 81.42 89.07 80.87 Z" />
<path fill="#010101" opacity="1.00" d=" M 80.08 78.09 C 82.83 75.23 86.88 73.98 90.79 74.32 C 87.21 75.55 83.60 76.71 80.08 78.09 Z" />
<path fill="#010101" opacity="1.00" d=" M 98.94 75.16 C 101.91 76.85 102.86 80.28 102.81 83.49 C 101.47 80.74 100.40 77.86 98.94 75.16 Z" />
<path fill="#010101" opacity="1.00" d=" M 83.14 79.52 C 84.37 77.66 86.51 77.28 88.59 77.26 C 87.40 78.27 85.89 78.67 84.43 79.06 C 86.49 81.66 86.33 85.64 82.77 86.86 C 81.82 83.71 78.20 84.16 75.69 83.30 C 75.52 82.32 75.36 81.34 75.19 80.35 C 77.80 79.74 80.47 79.54 83.14 79.52 Z" />
<path fill="#010101" opacity="1.00" d=" M 350.73 86.71 C 353.34 85.36 356.91 84.45 359.48 86.32 C 356.57 86.52 353.65 86.68 350.73 86.71 Z" />
<path fill="#010101" opacity="1.00" d=" M 54.05 87.68 C 60.72 87.30 67.35 86.21 74.06 86.43 L 73.38 88.14 C 58.63 89.78 43.79 90.55 29.05 92.29 C 24.36 92.73 19.71 93.52 15.00 93.66 C 10.08 94.40 5.14 97.68 4.60 102.99 C 3.42 118.27 6.17 133.47 6.65 148.71 C 6.17 148.63 5.20 148.48 4.71 148.40 C 3.93 139.93 2.51 131.50 2.54 122.97 C 2.62 114.83 0.33 106.30 3.69 98.52 C 5.88 93.92 11.07 91.95 15.84 91.47 C 28.56 90.00 41.31 88.90 54.05 87.68 Z" />
<path fill="#010101" opacity="1.00" d=" M 361.19 87.36 C 362.38 88.13 363.71 87.80 364.80 87.14 C 368.22 87.73 371.04 89.87 373.07 92.61 C 370.33 91.91 368.54 89.40 365.94 88.35 C 365.21 88.62 363.73 89.14 362.99 89.41 C 363.61 90.88 364.33 92.33 364.96 93.80 C 364.00 93.35 363.06 92.86 362.13 92.36 C 361.06 93.18 359.98 94.00 358.91 94.81 C 358.13 93.98 357.34 93.15 356.57 92.32 C 355.71 92.26 353.98 92.16 353.11 92.10 C 354.29 90.44 356.66 90.93 358.38 90.33 C 356.28 90.17 354.17 90.15 352.07 90.11 C 352.51 91.25 353.00 92.37 353.47 93.51 C 355.84 92.99 357.85 94.18 359.47 95.80 C 360.52 100.03 356.19 102.45 355.49 106.07 C 359.54 110.79 365.41 114.88 371.96 113.71 C 370.01 111.89 369.05 109.47 369.62 106.81 C 373.13 106.55 376.87 106.23 380.10 107.98 C 380.29 108.59 380.67 109.81 380.86 110.42 C 382.62 110.70 384.36 111.15 386.04 111.76 C 385.52 112.58 385.00 113.40 384.49 114.21 C 384.77 116.96 383.33 119.75 384.73 122.36 C 387.89 119.90 387.95 116.02 387.49 112.42 C 390.28 115.81 388.75 122.15 384.13 123.03 C 381.26 124.70 379.27 121.47 378.13 119.32 C 377.80 120.03 377.48 120.74 377.16 121.45 C 372.99 121.76 368.71 120.71 364.68 122.11 C 362.83 121.89 363.66 119.34 365.17 119.11 C 368.90 117.31 373.17 120.34 376.99 118.48 C 376.70 117.53 376.38 116.59 376.03 115.67 C 372.71 115.19 369.35 116.44 366.05 115.62 C 363.02 115.01 360.40 113.27 357.79 111.71 C 359.84 114.29 363.59 116.19 363.46 119.92 C 360.17 117.83 357.72 114.73 354.62 112.40 C 352.46 110.58 349.71 109.22 348.57 106.46 C 351.56 106.14 353.60 108.55 355.86 110.07 C 355.03 109.14 354.24 108.19 353.50 107.20 C 351.49 102.74 359.23 99.93 356.11 95.57 C 353.38 94.98 352.23 98.26 351.01 100.07 C 349.58 103.10 346.97 105.30 343.92 106.60 C 345.52 106.63 347.10 106.69 348.71 106.77 C 348.31 108.30 346.98 109.20 345.89 110.21 C 348.24 110.52 350.81 110.48 352.79 111.99 C 358.07 115.71 362.81 120.50 365.67 126.33 C 366.43 132.11 363.60 137.71 360.29 142.26 C 358.85 143.95 357.50 146.23 355.06 146.47 C 349.46 147.89 343.63 147.82 337.90 147.55 C 337.45 147.15 336.57 146.33 336.13 145.93 C 335.10 146.86 333.05 148.72 332.02 149.66 C 332.51 148.36 333.48 145.76 333.97 144.46 C 329.80 141.06 325.29 137.34 323.54 132.07 C 324.67 125.69 328.99 120.56 331.09 114.54 C 327.47 114.31 323.15 114.47 320.53 111.51 C 318.44 108.48 321.09 105.12 321.89 102.09 C 322.36 99.90 324.57 98.43 326.74 99.30 C 327.73 101.11 326.44 103.04 326.12 104.87 C 328.06 105.68 330.02 106.46 332.00 107.20 C 331.21 104.86 330.13 102.65 328.96 100.48 C 331.76 101.87 332.98 104.61 332.42 107.68 C 337.71 106.82 343.06 105.30 347.33 101.93 C 344.46 100.36 341.23 98.90 339.69 95.82 C 342.57 97.43 345.21 99.44 347.83 101.45 C 349.00 98.94 350.35 96.51 351.94 94.24 C 351.18 94.30 349.67 94.42 348.91 94.48 C 347.51 93.37 346.11 92.27 344.70 91.17 C 344.71 90.28 344.72 89.39 344.74 88.50 C 349.46 89.52 354.15 88.66 358.91 88.75 C 359.48 88.40 360.62 87.71 361.19 87.36 M 322.00 107.20 C 322.35 108.73 322.10 110.88 324.13 111.24 C 327.81 111.69 331.53 112.20 334.88 113.93 C 334.79 113.10 334.61 111.44 334.52 110.61 C 335.36 110.18 336.21 109.76 337.06 109.35 C 331.72 110.84 327.29 106.58 322.00 107.20 M 337.46 111.63 C 339.85 111.69 342.32 111.59 344.45 110.35 C 342.05 110.28 339.65 110.65 337.46 111.63 M 375.44 109.26 C 375.49 110.23 375.60 112.18 375.66 113.16 C 378.11 115.20 380.51 117.32 383.21 119.06 C 383.28 117.83 383.35 116.61 383.42 115.39 C 381.75 115.09 379.64 115.92 378.26 114.70 C 377.64 113.09 379.11 111.98 379.92 110.82 C 378.43 110.31 376.92 109.78 375.44 109.26 M 345.98 113.44 C 343.96 119.47 338.80 123.77 336.90 129.87 C 339.39 129.77 341.87 129.59 344.35 129.37 C 347.03 124.22 349.28 118.84 350.94 113.27 C 349.28 113.31 347.63 113.37 345.98 113.44 M 336.49 116.82 C 334.72 121.86 331.01 125.82 328.88 130.65 C 330.70 130.65 332.53 130.63 334.36 130.60 C 335.71 124.31 340.65 119.88 343.16 114.14 C 340.79 114.48 337.36 113.86 336.49 116.82 M 352.83 115.26 C 350.95 120.87 348.24 126.13 346.07 131.62 C 350.05 134.89 353.38 138.83 356.41 142.98 C 360.53 138.58 363.56 132.84 363.70 126.71 C 362.63 130.63 361.54 134.64 359.19 138.02 C 358.30 139.06 357.63 141.06 355.88 140.58 C 353.46 137.71 351.18 134.72 348.53 132.05 C 350.23 127.78 351.61 123.41 353.05 119.05 C 353.28 117.65 354.99 117.73 356.02 117.20 C 354.94 116.57 353.88 115.92 352.83 115.26 M 325.94 131.12 C 328.16 125.76 332.41 121.47 334.00 115.83 C 330.66 120.54 327.84 125.66 325.94 131.12 M 354.80 121.10 C 353.88 124.55 352.70 127.91 351.20 131.15 C 352.92 133.39 354.79 135.51 356.86 137.43 C 358.16 135.13 359.56 132.83 360.33 130.28 C 361.82 126.40 358.41 122.21 354.80 121.10 M 337.15 132.47 C 337.46 134.41 337.84 136.39 337.26 138.32 C 335.83 136.62 334.89 134.61 334.13 132.55 C 332.76 132.71 331.40 132.87 330.05 133.04 C 331.36 134.53 332.65 136.04 333.88 137.61 C 330.64 138.44 329.20 135.37 327.50 133.34 C 327.19 133.33 326.57 133.31 326.26 133.30 C 329.86 137.92 333.76 142.63 339.27 145.03 C 340.46 141.32 343.30 145.06 345.27 145.84 C 345.43 144.47 345.59 143.10 345.79 141.74 C 346.68 142.76 347.57 143.79 348.46 144.83 C 350.36 144.65 352.26 144.45 354.16 144.21 C 351.12 139.48 347.10 135.45 342.89 131.77 C 340.95 131.80 339.05 132.22 337.15 132.47 Z" />
<path fill="#010101" opacity="1.00" d=" M 170.09 93.53 C 170.78 93.66 171.49 93.79 172.19 93.93 C 170.28 95.07 168.38 96.37 166.13 96.69 C 167.44 95.63 168.78 94.60 170.09 93.53 Z" />
<path fill="#010101" opacity="1.00" d=" M 359.43 95.51 C 362.70 92.78 367.00 95.82 367.99 99.31 C 368.63 98.69 369.91 97.46 370.55 96.85 C 369.78 100.05 366.78 103.56 363.16 102.39 C 364.50 101.70 365.86 101.03 367.23 100.38 C 365.09 99.94 362.95 99.54 360.80 99.23 C 360.34 97.99 359.88 96.74 359.43 95.51 Z" />
<path fill="#010101" opacity="1.00" d=" M 164.20 97.32 C 164.92 96.02 165.61 95.99 166.28 97.25 C 165.54 98.57 164.84 98.59 164.20 97.32 Z" />
<path fill="#010101" opacity="1.00" d=" M 310.85 100.78 C 313.59 98.01 317.49 96.81 321.34 97.53 C 317.89 98.74 314.35 99.73 310.85 100.78 Z" />
<path fill="#010101" opacity="1.00" d=" M 564.91 99.62 C 595.25 97.37 625.71 96.95 656.13 97.56 C 661.08 97.74 662.80 103.89 662.39 108.01 C 661.61 124.98 661.30 142.01 662.32 158.97 C 662.17 171.15 663.11 183.35 662.45 195.51 C 634.64 195.61 606.83 195.37 579.02 195.53 C 570.19 195.22 561.33 195.78 552.53 195.22 L 551.69 193.76 C 558.34 193.61 564.99 193.77 571.65 193.72 C 571.83 192.19 572.04 190.67 572.27 189.15 C 572.47 190.56 572.65 191.98 572.80 193.40 C 574.12 193.55 575.45 193.69 576.79 193.83 C 576.73 192.38 576.67 190.94 576.62 189.49 C 578.27 189.04 579.94 188.64 581.62 188.26 C 581.64 190.03 581.65 191.80 581.68 193.57 C 582.66 193.61 584.63 193.69 585.62 193.73 C 585.54 190.89 585.49 188.05 585.43 185.22 C 585.70 185.18 586.23 185.11 586.50 185.07 C 586.62 187.10 586.72 189.14 586.77 191.18 C 587.23 192.31 587.72 193.42 588.23 194.52 C 588.10 192.22 587.74 189.94 587.43 187.66 C 590.55 187.22 593.67 186.21 596.85 186.57 C 599.49 187.18 602.03 188.12 604.67 188.75 C 604.92 190.43 605.17 192.11 605.41 193.79 C 608.87 193.77 612.33 193.79 615.80 193.81 C 615.75 192.02 615.71 190.24 615.69 188.46 C 612.64 187.80 609.59 187.12 606.56 186.38 C 606.39 185.88 606.03 184.88 605.86 184.37 C 603.80 184.55 601.74 184.58 599.69 184.54 C 599.47 183.40 599.06 182.34 598.47 181.38 C 596.54 181.30 594.62 181.51 592.70 181.54 C 595.47 179.22 599.99 179.96 601.01 183.70 C 601.72 183.68 603.14 183.65 603.85 183.64 C 603.30 181.42 602.78 179.19 602.47 176.93 C 602.05 176.48 601.20 175.58 600.78 175.13 C 601.63 175.27 603.35 175.55 604.21 175.69 C 602.40 174.12 600.80 172.33 601.24 169.75 C 600.43 168.73 599.63 167.71 598.86 166.67 C 601.67 167.60 602.76 170.30 602.38 173.09 C 605.55 172.99 604.54 176.06 603.90 177.95 C 602.88 179.92 604.67 181.52 605.62 183.04 C 605.73 177.25 605.29 171.40 606.39 165.67 C 614.17 164.32 621.91 162.75 629.67 161.31 C 629.67 160.36 629.67 158.44 629.67 157.48 C 628.81 157.48 627.08 157.48 626.22 157.48 C 625.77 155.84 625.58 154.16 625.64 152.47 C 620.63 153.01 615.56 152.84 610.67 151.57 C 614.91 155.27 620.79 153.82 625.68 155.38 C 619.81 156.41 613.89 155.00 608.71 152.24 C 604.77 150.27 600.46 148.91 596.01 149.42 C 590.43 149.74 584.80 149.15 579.51 147.27 C 579.14 142.79 579.16 138.23 580.33 133.85 C 578.33 132.36 576.32 130.91 574.27 129.50 C 570.55 129.76 566.82 129.68 563.11 129.48 C 563.20 128.75 563.37 127.31 563.46 126.58 C 564.82 126.38 566.20 126.11 567.49 125.59 C 566.70 125.67 565.12 125.81 564.33 125.89 C 564.34 124.26 564.33 122.63 564.35 121.01 C 566.64 121.97 570.85 122.99 570.29 126.14 C 569.76 126.28 568.68 126.56 568.15 126.70 C 568.14 126.95 568.13 127.45 568.12 127.70 C 568.74 127.73 570.00 127.79 570.62 127.82 C 571.07 125.77 571.51 123.71 571.96 121.66 C 571.45 121.57 570.42 121.38 569.90 121.29 C 569.53 120.89 568.77 120.07 568.39 119.66 C 566.26 120.11 564.76 119.08 564.01 117.18 C 566.49 119.05 569.57 118.67 572.50 118.61 C 572.45 119.35 572.36 120.82 572.31 121.56 C 574.03 121.40 575.79 121.34 577.53 121.43 C 576.59 123.32 575.59 125.81 578.17 126.90 C 582.94 128.73 588.13 126.90 592.96 126.08 C 596.22 125.80 595.82 121.98 596.68 119.66 C 597.99 119.68 599.30 119.68 600.62 119.69 C 602.05 117.61 604.40 117.17 606.78 117.24 C 606.65 118.33 606.52 119.43 606.39 120.53 C 605.06 120.49 603.74 120.46 602.43 120.42 C 602.43 121.59 602.43 122.76 602.42 123.94 C 600.42 125.06 598.58 126.46 597.10 128.22 C 600.56 130.21 604.51 131.00 608.42 131.56 C 608.46 130.80 608.55 129.30 608.60 128.54 C 609.10 129.91 609.59 131.28 610.10 132.66 C 607.58 132.55 605.07 132.39 602.56 132.30 C 604.96 134.97 608.48 134.83 611.75 134.32 C 612.25 134.05 613.26 133.49 613.76 133.21 C 614.39 136.84 608.92 135.89 606.61 136.60 C 606.80 140.64 607.04 144.88 604.99 148.54 C 606.73 148.27 609.32 146.45 609.81 149.29 C 614.99 152.33 621.77 152.98 627.23 150.30 C 628.82 149.63 630.46 149.11 632.12 148.60 C 630.05 147.54 628.61 145.86 628.10 143.58 C 629.10 142.92 630.13 142.26 631.14 141.60 C 629.96 141.23 628.78 140.86 627.61 140.49 C 627.04 138.79 626.37 137.10 626.23 135.31 C 628.23 134.67 630.67 134.65 631.65 132.43 C 635.24 130.37 639.57 131.92 642.46 134.47 C 644.78 137.96 643.46 142.39 642.46 146.11 C 643.17 148.69 644.34 151.12 645.25 153.64 C 646.01 153.93 647.54 154.50 648.31 154.78 C 647.20 155.16 646.08 155.45 644.95 155.67 C 643.47 154.06 642.15 152.32 640.66 150.74 C 640.00 156.28 640.62 162.35 645.00 166.32 L 643.75 166.15 C 643.78 167.27 643.81 168.41 643.84 169.54 C 649.38 169.57 654.85 170.75 660.43 170.58 C 660.40 166.92 660.36 163.26 660.34 159.60 C 654.65 159.49 648.96 159.38 643.27 159.44 C 643.24 159.19 643.17 158.70 643.14 158.45 C 648.85 158.43 654.56 158.62 660.28 158.56 C 660.41 149.02 659.34 139.53 659.66 130.00 C 659.92 122.65 659.36 115.29 660.08 107.97 C 660.22 105.97 659.59 104.03 659.28 102.08 C 658.59 101.26 657.91 100.44 657.24 99.63 C 641.17 99.49 625.10 99.47 609.03 99.60 C 602.61 99.29 596.26 100.54 589.85 100.43 C 580.60 100.43 571.38 102.22 562.13 101.28 C 562.83 100.28 563.75 99.73 564.91 99.62 M 597.70 121.39 C 597.49 122.84 597.28 124.28 597.05 125.72 C 598.52 124.45 600.46 123.47 601.01 121.46 C 599.90 121.43 598.80 121.41 597.70 121.39 M 572.80 125.34 C 572.62 125.84 572.25 126.83 572.07 127.33 C 575.28 127.59 577.63 129.79 580.19 131.47 C 581.76 131.33 583.10 130.32 584.51 129.65 C 582.31 129.18 580.01 129.03 577.91 128.20 C 576.23 127.20 574.85 125.56 572.80 125.34 M 589.90 129.13 C 591.72 129.44 593.58 129.69 595.43 129.93 C 595.94 128.52 596.48 127.12 597.05 125.72 C 594.73 126.99 592.30 128.05 589.90 129.13 M 586.33 128.95 C 586.38 132.34 589.28 127.44 586.33 128.95 M 582.46 132.47 C 581.24 133.59 580.66 136.52 581.78 137.66 C 582.58 136.47 584.39 133.06 582.46 132.47 M 584.77 132.64 C 584.39 134.88 583.97 137.11 583.66 139.36 C 586.04 137.83 585.78 134.64 586.71 132.25 C 586.22 132.35 585.25 132.54 584.77 132.64 M 589.55 131.39 C 588.93 134.09 588.45 136.82 588.13 139.58 C 589.86 139.62 591.59 139.65 593.34 139.68 C 593.38 136.88 593.42 134.08 593.43 131.28 C 592.46 131.31 590.52 131.36 589.55 131.39 M 594.42 131.21 C 594.39 133.50 594.31 135.80 594.55 138.09 C 596.90 139.43 599.92 137.97 602.53 138.05 C 602.60 137.08 602.75 135.15 602.82 134.19 C 600.60 134.27 598.40 134.34 596.19 134.42 L 596.16 133.89 C 597.06 133.71 598.85 133.36 599.75 133.18 C 598.42 132.69 595.76 131.70 594.42 131.21 M 631.53 137.55 C 631.59 136.81 631.70 135.35 631.75 134.61 C 630.16 135.15 628.57 135.63 626.96 136.06 C 627.58 137.48 628.20 138.90 628.83 140.33 C 629.68 140.30 631.39 140.25 632.24 140.23 C 631.18 142.12 630.23 144.07 629.45 146.09 C 632.05 147.07 634.69 147.94 637.35 148.78 C 634.02 149.81 630.64 150.67 627.28 151.61 C 627.40 153.02 627.58 154.42 627.81 155.82 C 629.04 156.11 630.28 156.35 631.54 156.55 C 633.52 160.16 633.31 164.33 633.54 168.32 C 636.29 168.42 639.05 168.57 641.80 168.84 C 642.00 168.17 642.41 166.84 642.61 166.17 C 638.52 161.31 639.08 154.79 639.49 148.90 C 637.64 147.08 637.06 144.78 637.60 142.27 C 635.29 139.46 636.08 135.23 633.99 132.18 C 632.89 133.84 632.39 135.78 631.53 137.55 M 635.97 132.40 C 636.63 134.95 637.30 137.52 637.68 140.14 C 638.13 140.58 639.01 141.46 639.46 141.90 C 638.85 143.79 638.38 145.74 639.91 147.40 C 641.81 144.16 643.90 140.32 642.48 136.48 C 641.27 133.97 638.38 133.22 635.97 132.40 M 596.40 139.26 C 596.60 139.64 597.00 140.38 597.20 140.75 C 599.32 140.79 601.62 139.36 603.19 141.59 C 603.37 140.77 603.72 139.13 603.90 138.31 C 601.39 138.52 598.83 138.56 596.40 139.26 M 583.46 140.18 C 583.53 142.59 583.69 145.02 584.45 147.33 C 584.63 144.92 584.68 142.50 584.72 140.08 C 584.41 140.10 583.77 140.15 583.46 140.18 M 588.10 140.10 C 587.75 142.56 587.61 145.03 587.51 147.51 C 592.80 148.42 598.48 146.36 603.48 148.65 C 603.52 147.79 603.57 146.92 603.62 146.05 C 602.48 145.36 601.67 144.41 601.21 143.19 C 600.50 143.33 599.08 143.60 598.37 143.73 C 598.86 143.26 599.30 142.74 599.70 142.18 C 599.07 142.13 597.80 142.02 597.17 141.97 C 594.95 142.28 597.60 145.16 597.35 146.51 C 596.43 144.29 595.71 141.99 594.92 139.74 C 594.37 142.05 593.98 144.40 593.46 146.72 C 593.21 144.56 593.21 142.39 593.22 140.22 C 591.50 140.18 589.80 140.14 588.10 140.10 M 614.16 165.80 C 619.28 166.39 624.37 167.28 629.51 167.70 C 629.57 165.89 629.64 164.08 629.71 162.28 C 624.53 163.46 619.09 163.68 614.16 165.80 M 607.17 185.46 C 611.90 186.57 616.68 187.69 621.58 187.71 C 621.12 181.92 621.22 176.11 621.21 170.30 L 622.37 170.54 C 622.27 176.44 622.22 182.36 622.59 188.26 C 624.56 188.37 626.54 188.48 628.53 188.60 C 628.83 182.52 629.19 176.44 629.55 170.37 C 628.79 170.29 627.28 170.14 626.52 170.06 C 626.35 174.70 626.47 179.35 626.42 183.99 C 626.47 185.20 626.18 186.37 625.51 187.38 C 625.07 181.50 625.38 175.61 625.37 169.73 C 623.39 169.28 621.41 168.81 619.46 168.33 C 618.96 174.46 619.53 180.59 619.18 186.72 C 617.41 183.44 618.51 179.50 618.24 175.94 C 617.99 173.15 619.22 169.56 616.56 167.61 C 614.55 173.68 616.84 180.44 614.49 186.32 C 614.19 180.28 614.78 174.25 614.75 168.20 C 613.72 168.23 611.64 168.28 610.61 168.31 C 610.49 173.71 610.75 179.12 610.53 184.52 C 610.32 184.11 609.90 183.31 609.68 182.91 C 609.19 177.87 609.86 172.79 609.41 167.76 C 609.00 167.25 608.17 166.25 607.76 165.75 C 605.88 172.10 606.62 178.95 607.17 185.46 M 630.23 170.22 C 630.34 176.33 630.17 182.43 629.55 188.50 C 630.91 188.59 632.27 188.67 633.65 188.75 C 633.51 182.69 633.43 176.62 633.33 170.56 C 632.56 170.47 631.00 170.30 630.23 170.22 M 634.43 170.58 C 634.39 176.75 634.60 182.91 634.65 189.08 C 635.75 189.23 637.95 189.51 639.04 189.65 C 639.23 183.32 640.04 176.82 638.46 170.61 C 637.45 170.60 635.44 170.59 634.43 170.58 M 639.63 187.77 C 640.11 188.42 640.61 189.06 641.12 189.69 C 645.70 190.81 651.46 190.23 654.98 193.81 C 656.83 193.80 658.70 193.75 660.57 193.68 C 660.56 190.69 660.54 187.69 660.44 184.70 C 659.78 186.96 659.95 189.58 658.45 191.51 C 658.21 185.47 659.61 179.51 659.43 173.46 C 658.75 173.40 657.39 173.29 656.71 173.24 C 655.84 179.26 656.34 185.48 654.89 191.39 C 654.17 185.12 655.76 178.89 655.41 172.61 C 654.47 172.61 652.60 172.61 651.66 172.61 C 651.00 178.28 652.33 184.27 650.46 189.73 C 650.02 184.01 650.63 178.27 650.40 172.54 C 649.95 172.85 649.06 173.45 648.62 173.76 C 648.05 178.94 649.27 184.38 647.47 189.38 C 647.09 183.72 647.58 178.05 647.51 172.38 C 646.51 172.37 645.53 172.36 644.55 172.35 C 644.74 177.74 644.96 183.15 644.57 188.54 C 642.81 183.27 644.69 177.33 643.28 171.88 C 642.56 171.67 641.12 171.25 640.39 171.05 C 639.89 176.61 641.01 182.29 639.63 187.77 M 589.14 189.49 C 589.21 190.93 589.28 192.36 589.35 193.80 C 590.96 193.78 592.57 193.78 594.19 193.66 C 594.33 192.98 594.63 191.62 594.78 190.95 C 594.01 190.50 592.48 189.60 591.72 189.15 C 593.59 188.69 599.04 191.16 598.83 187.89 C 595.48 186.54 592.20 188.23 589.14 189.49 M 616.68 188.43 C 616.75 190.22 616.82 192.01 616.90 193.80 C 628.74 193.66 640.58 194.29 652.41 193.59 C 651.01 192.78 649.53 192.09 647.94 191.83 C 637.63 189.74 627.05 189.98 616.68 188.43 M 600.16 190.40 C 600.59 191.22 601.45 192.84 601.88 193.66 C 602.43 193.69 603.54 193.76 604.09 193.80 C 604.14 192.57 604.19 191.34 604.25 190.12 C 602.88 190.21 601.52 190.31 600.16 190.40 M 596.38 191.12 C 596.23 191.54 595.91 192.38 595.76 192.80 C 597.70 196.28 600.05 189.31 596.38 191.12 Z" />
<path fill="#010101" opacity="1.00" d=" M 161.36 98.96 C 162.75 98.55 163.15 99.06 162.57 100.49 C 161.17 100.89 160.77 100.38 161.36 98.96 Z" />
<path fill="#010101" opacity="1.00" d=" M 311.14 104.98 C 312.04 104.10 312.94 103.23 313.85 102.36 C 316.48 103.63 319.78 105.21 318.62 108.72 C 315.64 108.63 312.91 107.41 311.14 104.98 Z" />
<path fill="#010101" opacity="1.00" d=" M 306.79 105.98 C 307.15 105.84 307.86 105.54 308.22 105.39 C 308.25 107.24 307.97 109.16 308.57 110.95 C 309.76 112.39 311.14 113.65 312.33 115.10 C 308.20 114.10 306.14 109.99 306.79 105.98 Z" />
<path fill="#010101" opacity="1.00" d=" M 152.02 107.94 C 152.47 107.81 153.36 107.56 153.81 107.43 C 153.94 110.63 151.09 111.89 148.31 112.12 C 149.08 111.28 149.87 110.47 150.70 109.69 C 151.03 109.25 151.69 108.38 152.02 107.94 Z" />
<path fill="#010101" opacity="1.00" d=" M 258.57 111.49 C 260.71 108.56 264.53 107.64 267.98 107.60 C 277.98 107.41 287.98 107.48 297.99 107.23 C 300.08 107.16 302.18 107.34 304.23 107.83 C 303.39 108.87 302.34 109.40 301.07 109.41 C 290.38 109.74 279.69 109.51 269.01 109.75 C 265.74 110.10 261.33 110.19 259.77 113.69 C 257.70 118.52 258.99 123.92 259.17 128.98 C 259.53 140.61 259.62 152.26 259.41 163.89 C 267.37 161.41 276.30 158.63 284.35 162.33 C 288.32 159.29 292.86 156.49 298.01 156.33 C 303.26 156.13 308.47 155.04 313.74 155.70 C 314.59 154.00 311.84 153.65 311.00 152.63 C 313.19 151.63 315.12 152.56 315.34 155.06 L 316.03 156.05 C 316.46 155.34 317.32 153.92 317.75 153.21 C 318.75 153.26 319.74 153.31 320.75 153.36 C 318.50 155.95 322.54 157.71 324.51 158.53 C 324.39 166.35 325.73 174.12 325.30 181.96 C 334.85 181.04 344.51 181.20 354.02 182.37 C 356.37 182.83 357.64 180.80 358.72 179.13 C 358.96 167.96 358.39 156.82 357.22 145.72 L 358.97 146.55 C 361.18 154.50 360.35 162.88 361.20 171.02 C 361.08 175.51 362.14 182.07 357.08 184.28 C 351.04 185.22 345.05 183.31 339.00 183.48 C 333.76 183.55 328.24 183.13 323.37 185.45 C 317.35 188.16 310.70 188.81 304.18 188.88 C 301.87 191.49 298.61 189.94 295.86 189.09 C 295.85 191.11 295.85 193.14 295.87 195.17 C 287.76 198.50 278.89 199.61 270.19 199.36 C 264.65 197.93 260.06 194.18 256.83 189.55 C 255.06 182.56 255.01 175.28 255.66 168.13 C 255.81 166.69 256.67 165.46 257.30 164.20 C 257.77 149.45 256.78 134.74 256.60 120.01 C 256.54 117.08 256.64 113.88 258.57 111.49 M 301.40 158.68 C 301.44 162.94 301.61 167.20 301.71 171.46 C 305.78 171.30 309.85 171.17 313.90 170.70 C 313.84 166.19 313.62 161.68 313.17 157.19 C 309.20 157.29 305.28 157.86 301.40 158.68 M 292.49 159.50 C 292.43 161.61 292.14 163.74 292.44 165.85 C 293.33 167.87 294.50 169.76 295.54 171.70 C 296.91 171.44 298.29 171.18 299.67 170.93 C 299.48 166.75 299.34 162.58 299.24 158.40 C 296.95 158.51 294.70 158.93 292.49 159.50 M 314.43 157.97 C 314.55 162.21 314.94 166.43 315.47 170.64 C 317.91 170.46 320.36 170.27 322.81 170.07 C 322.70 166.64 322.48 163.20 322.22 159.78 C 319.68 158.94 317.08 158.30 314.43 157.97 M 286.83 163.08 C 288.34 163.82 289.85 164.56 291.38 165.28 C 291.15 163.52 290.90 161.77 290.66 160.02 C 289.38 161.04 288.10 162.06 286.83 163.08 M 272.92 162.69 C 274.91 167.03 279.96 165.15 283.50 164.34 C 280.13 163.01 276.55 162.31 272.92 162.69 M 258.85 166.76 C 259.92 167.86 261.01 168.95 262.09 170.04 C 266.11 168.54 270.23 167.31 274.30 165.94 C 272.06 165.00 269.82 163.27 267.26 163.70 C 264.30 164.25 261.60 165.61 258.85 166.76 M 279.01 166.39 C 279.25 167.10 279.73 168.51 279.97 169.21 C 275.09 165.36 269.20 169.14 264.09 170.41 C 265.92 173.00 269.22 173.96 271.87 175.51 C 275.18 173.45 280.27 174.75 282.65 171.36 C 285.91 172.59 289.08 170.67 291.93 169.28 C 290.55 167.38 288.22 166.60 286.22 165.56 C 283.83 165.98 281.43 166.26 279.01 166.39 M 257.75 169.19 C 257.58 172.54 257.09 175.95 257.69 179.28 C 258.63 180.62 260.00 181.56 261.21 182.62 C 261.40 179.58 261.68 176.53 262.44 173.57 C 261.07 171.91 259.45 170.49 257.75 169.19 M 272.07 176.56 C 273.47 183.49 271.37 190.69 273.57 197.48 C 280.46 197.56 287.33 196.36 293.76 193.90 C 293.89 186.35 293.73 178.80 293.34 171.25 C 286.56 173.97 279.49 176.66 272.07 176.56 M 315.50 171.63 C 315.51 176.38 315.59 181.13 315.63 185.88 C 318.13 184.92 322.23 185.26 323.19 182.16 C 323.53 178.57 323.22 174.96 323.22 171.37 C 320.64 171.40 318.07 171.51 315.50 171.63 M 295.43 172.49 C 295.81 177.26 295.88 182.05 296.22 186.83 C 297.63 187.44 299.02 188.03 300.44 188.64 C 300.38 183.20 300.02 177.78 299.63 172.36 C 298.58 172.39 296.48 172.46 295.43 172.49 M 302.12 172.54 C 302.25 177.26 302.35 181.98 302.50 186.70 C 306.52 186.78 310.53 186.72 314.53 186.32 C 314.61 181.66 314.45 177.00 314.46 172.34 C 310.34 172.16 306.23 172.39 302.12 172.54 M 263.48 173.85 C 262.70 177.19 262.41 180.60 262.57 184.02 C 265.17 185.28 267.85 186.33 270.65 187.03 C 270.78 183.55 270.54 180.05 269.54 176.70 C 267.53 175.72 265.52 174.75 263.48 173.85 M 258.12 181.70 C 257.94 185.77 258.86 190.02 262.40 192.49 C 261.68 188.63 262.30 183.69 258.12 181.70 M 262.39 185.19 C 262.97 188.24 262.99 191.61 264.80 194.27 C 266.48 195.92 268.80 196.60 270.90 197.53 C 270.61 194.53 270.42 191.53 270.44 188.52 C 267.76 187.41 265.07 186.31 262.39 185.19 Z" />
<path fill="#010101" opacity="1.00" d=" M 648.37 111.12 C 649.54 109.80 650.36 107.92 652.09 107.23 C 653.85 106.65 654.75 108.45 655.66 109.58 C 656.41 109.54 657.91 109.46 658.65 109.42 C 659.10 113.00 654.89 112.48 652.91 114.28 C 649.88 114.46 646.85 114.59 643.84 114.91 C 644.67 112.81 645.59 110.52 648.37 111.12 Z" />
<path fill="#010101" opacity="1.00" d=" M 556.44 108.37 C 557.39 107.41 559.22 108.87 558.52 110.02 C 557.58 111.06 555.73 109.49 556.44 108.37 Z" />
<path fill="#010101" opacity="1.00" d=" M 19.76 112.90 C 21.80 109.86 25.82 110.56 28.96 110.31 C 35.89 110.50 42.78 109.48 49.71 109.75 C 53.93 114.99 59.33 119.10 63.78 124.12 C 65.09 125.78 66.37 127.76 66.29 129.95 C 65.61 133.44 64.42 136.81 63.34 140.19 C 70.09 140.62 76.85 140.40 83.60 140.12 C 86.42 151.31 87.39 162.93 86.56 174.44 C 79.00 175.10 71.40 175.42 63.86 176.30 C 61.57 174.96 59.17 173.80 56.65 172.95 C 56.68 173.96 56.73 175.99 56.75 177.00 C 56.17 176.98 55.01 176.93 54.42 176.91 C 54.50 175.93 54.66 173.95 54.74 172.96 C 54.02 173.18 52.58 173.62 51.86 173.83 C 51.66 176.39 51.74 178.97 51.73 181.53 C 46.01 183.07 40.16 184.17 34.23 184.29 C 34.30 181.62 34.37 178.96 34.47 176.30 C 32.76 176.42 31.05 176.56 29.34 176.68 C 29.37 180.02 29.46 183.37 29.60 186.71 C 38.27 187.50 46.95 185.71 54.60 181.57 C 54.66 180.48 54.78 178.28 54.84 177.19 C 56.64 178.65 56.87 180.77 56.59 182.96 C 47.67 187.22 37.65 190.08 27.74 188.21 C 20.71 185.53 13.63 182.10 8.16 176.87 C 7.10 171.29 7.02 165.52 6.13 159.89 C 5.64 157.26 5.53 154.58 5.69 151.92 C 10.09 150.23 14.63 148.96 19.21 147.86 C 16.25 143.31 13.15 138.69 9.12 135.00 C 10.67 126.89 14.87 119.46 19.76 112.90 M 24.21 112.49 C 27.45 114.92 29.57 119.44 33.92 119.90 C 32.06 117.74 30.20 115.52 29.21 112.80 C 35.69 112.36 42.10 113.79 48.57 113.91 L 48.56 115.31 C 43.81 115.20 39.05 115.48 34.31 115.87 C 34.46 115.41 34.75 114.49 34.90 114.03 C 33.59 114.22 32.28 114.41 30.97 114.60 C 34.19 118.26 37.30 122.03 40.57 125.65 C 43.61 124.09 47.09 124.16 50.41 124.39 C 47.41 125.76 44.03 125.56 40.83 125.92 C 41.98 127.58 43.51 128.82 45.60 128.94 C 45.90 128.39 46.52 127.28 46.82 126.73 C 50.29 126.53 53.76 126.22 57.23 126.40 C 55.33 127.00 53.34 127.25 51.38 127.54 C 53.68 127.69 56.00 127.72 58.31 127.75 C 55.58 122.70 52.15 118.00 48.51 113.60 C 40.44 112.63 32.33 112.05 24.21 112.49 M 20.66 115.09 C 19.50 117.53 16.38 119.91 17.60 122.84 C 19.99 125.98 23.81 128.21 24.41 132.43 C 24.91 132.53 25.92 132.74 26.42 132.84 C 29.82 135.49 32.34 139.28 36.38 141.08 C 38.07 138.12 39.66 135.10 40.83 131.89 C 37.84 129.21 35.30 126.05 32.17 123.53 C 28.81 122.29 28.02 126.92 25.85 128.57 C 26.57 125.72 28.32 123.33 29.90 120.91 C 26.91 118.83 24.71 114.99 20.66 115.09 M 55.90 120.43 C 57.16 123.45 59.05 126.15 60.25 129.20 C 57.98 129.37 55.56 129.05 53.46 130.13 C 57.03 130.63 60.64 130.25 64.16 129.59 C 63.05 125.40 59.72 122.24 55.90 120.43 M 15.64 123.80 C 13.89 127.14 12.45 130.62 11.24 134.18 C 13.22 135.98 14.94 138.01 16.49 140.18 C 19.41 137.72 22.84 134.52 22.81 130.44 C 21.15 127.63 18.67 125.13 15.64 123.80 M 43.17 132.26 C 41.73 135.88 39.83 139.28 37.93 142.67 C 41.76 142.99 45.86 141.93 49.53 143.40 C 45.37 143.76 41.20 143.53 37.04 143.59 C 34.27 147.17 31.39 150.69 27.96 153.67 C 33.21 154.34 38.64 154.94 43.86 153.86 C 46.03 152.14 46.40 148.94 48.01 146.71 C 47.61 149.19 46.72 151.54 45.90 153.91 C 46.67 153.80 48.20 153.59 48.96 153.49 C 54.38 153.14 56.94 147.37 59.38 143.30 C 57.44 143.41 55.50 143.45 53.56 143.44 C 55.73 142.35 58.34 142.63 60.44 141.43 C 62.24 138.63 62.98 135.33 63.64 132.12 C 60.85 132.23 58.05 132.35 55.26 132.44 C 54.03 136.11 53.72 140.37 51.04 143.36 C 52.01 139.72 53.43 136.22 54.17 132.52 C 50.51 132.44 46.84 132.33 43.17 132.26 M 23.77 132.96 C 22.29 135.91 19.80 138.18 18.18 141.03 C 18.59 143.92 21.25 145.83 22.74 148.22 C 24.01 149.46 24.71 151.98 26.82 151.82 C 30.04 149.14 33.35 146.05 34.92 142.09 C 33.18 140.13 30.95 138.68 29.08 136.85 C 27.46 135.37 26.02 133.48 23.77 132.96 M 62.26 142.30 C 63.53 147.33 63.47 152.54 64.47 157.61 C 65.30 157.59 66.94 157.54 67.76 157.51 C 67.40 152.83 66.46 148.23 65.45 143.66 C 68.34 143.64 71.24 143.64 74.12 143.34 C 70.36 141.84 66.21 142.50 62.26 142.30 M 76.67 142.50 C 77.54 142.95 78.42 143.38 79.31 143.80 C 80.13 147.94 81.11 152.14 80.65 156.39 C 79.81 152.65 79.40 148.83 78.53 145.10 C 74.68 145.18 70.84 145.20 66.99 145.20 C 67.70 150.43 68.50 155.66 69.18 160.90 C 72.61 160.61 76.05 160.25 79.49 160.45 C 76.34 162.12 72.60 161.38 69.19 161.32 C 69.45 164.43 69.55 167.55 69.61 170.67 C 73.66 170.64 77.71 170.53 81.76 170.38 C 81.55 165.70 81.62 160.95 80.42 156.38 C 81.82 156.46 83.22 156.54 84.62 156.61 C 83.93 151.79 83.18 146.99 82.09 142.25 C 80.28 142.35 78.47 142.41 76.67 142.50 M 56.60 151.62 C 57.07 154.08 57.37 156.58 57.53 159.08 C 59.24 158.70 60.92 158.21 62.55 157.58 C 61.83 153.70 61.44 149.76 60.91 145.85 C 59.36 147.68 57.93 149.61 56.60 151.62 M 9.35 153.46 C 12.19 155.81 15.13 159.23 19.21 158.63 C 19.30 161.02 21.89 161.53 23.61 162.47 C 28.90 165.38 35.04 163.28 40.59 162.39 C 41.46 160.45 38.65 160.11 37.55 159.15 C 31.98 155.31 25.24 158.21 19.14 158.44 C 21.33 157.48 23.62 156.83 25.84 155.96 C 24.89 153.81 23.19 152.08 21.53 150.46 C 17.42 150.36 12.67 151.16 9.35 153.46 M 54.20 154.33 C 52.51 154.53 53.28 158.01 54.90 157.39 C 55.79 156.55 55.43 154.65 54.20 154.33 M 35.70 156.48 C 38.15 158.19 40.50 160.07 43.11 161.53 C 46.53 161.99 49.88 160.34 53.16 159.54 C 51.97 158.10 50.69 156.74 49.35 155.44 C 44.92 156.73 40.27 156.44 35.70 156.48 M 8.34 155.88 C 8.46 158.95 8.33 162.05 8.86 165.09 C 10.27 167.98 13.70 169.01 16.37 170.42 C 16.39 167.60 16.54 164.76 16.23 161.95 C 14.19 159.29 10.98 157.87 8.34 155.88 M 64.54 159.73 C 65.31 164.26 65.34 168.85 65.80 173.41 C 66.07 173.60 66.61 173.99 66.88 174.18 C 72.82 173.68 78.76 173.30 84.68 172.60 C 85.74 167.83 84.85 163.00 84.35 158.22 C 83.85 158.42 82.86 158.82 82.36 159.02 C 82.16 163.09 82.64 167.15 82.80 171.22 C 78.09 171.64 73.35 171.51 68.63 171.63 C 68.59 167.54 68.69 163.40 67.75 159.39 C 66.68 159.50 65.61 159.62 64.54 159.73 M 56.34 162.56 C 56.26 165.17 56.49 167.77 56.57 170.37 C 58.91 171.66 61.30 172.87 63.71 174.01 C 63.61 169.36 63.36 164.69 62.43 160.12 C 60.43 160.90 57.85 160.91 56.34 162.56 M 29.28 166.34 C 29.25 169.49 29.22 172.64 29.22 175.79 C 30.94 175.61 32.65 175.43 34.37 175.26 C 34.38 172.56 34.21 169.85 34.40 167.16 C 39.94 165.24 45.75 164.18 51.50 163.12 C 51.39 165.23 51.28 167.37 50.61 169.40 C 50.49 168.30 50.26 166.09 50.15 164.99 C 45.11 165.70 40.12 166.80 35.29 168.42 C 35.41 173.44 35.27 178.47 35.44 183.50 C 40.62 182.97 45.80 182.18 50.82 180.75 C 50.84 178.03 50.73 175.31 50.49 172.59 C 51.79 172.26 53.45 172.67 54.49 171.70 C 54.90 168.45 54.20 165.21 53.53 162.05 C 45.45 163.55 37.43 165.28 29.28 166.34 M 17.51 162.12 C 17.47 165.15 17.45 168.19 17.43 171.23 C 20.45 172.70 23.59 173.91 26.80 174.87 C 26.77 171.86 26.71 168.85 26.58 165.84 C 23.53 164.66 20.52 163.39 17.51 162.12 M 9.38 167.91 C 9.65 170.51 9.37 173.24 10.24 175.74 C 12.11 178.12 15.00 179.36 17.53 180.88 C 17.11 177.88 16.63 174.89 16.42 171.87 C 14.10 170.51 11.75 169.19 9.38 167.91 M 17.41 173.17 C 17.71 176.13 18.22 179.07 18.81 182.00 C 21.68 183.41 24.58 184.77 27.57 185.91 C 27.54 182.52 27.36 179.12 26.62 175.81 C 23.60 174.76 20.61 173.52 17.41 173.17 Z" />
<path fill="#010101" opacity="1.00" d=" M 166.03 111.71 C 190.30 111.05 214.58 110.21 238.87 110.56 C 241.85 111.68 243.53 115.03 243.60 118.10 C 243.78 125.08 244.67 132.05 243.84 139.03 C 244.03 144.04 242.95 149.26 244.51 154.11 C 243.48 154.12 242.45 154.14 241.42 154.18 C 242.63 151.97 242.36 149.41 242.41 147.00 C 242.29 137.65 242.56 128.30 242.30 118.96 C 242.02 116.13 240.66 111.78 237.07 112.29 C 220.03 112.30 203.00 112.31 185.97 112.69 C 177.78 113.35 169.55 113.10 161.35 113.51 C 154.30 113.99 148.46 121.74 151.08 128.55 C 152.09 125.57 152.63 122.27 154.77 119.83 C 158.19 115.71 163.82 114.32 168.93 113.87 C 188.63 113.61 208.34 113.51 228.04 113.33 C 231.78 113.41 236.49 112.25 238.94 115.94 C 236.67 115.22 234.39 114.27 231.96 114.46 C 222.29 114.70 212.62 114.51 202.96 114.79 C 194.65 115.57 186.30 115.12 177.97 115.27 C 172.64 115.40 167.19 114.75 162.01 116.37 C 162.12 116.59 162.34 117.02 162.45 117.24 C 165.56 117.66 168.70 117.36 171.82 117.32 C 171.78 117.85 171.68 118.90 171.64 119.43 C 168.38 119.43 165.12 119.47 161.86 119.42 C 161.58 118.87 161.03 117.78 160.75 117.23 C 159.34 117.11 158.24 118.24 157.03 118.77 C 158.44 122.55 158.51 126.60 158.55 130.59 C 158.08 130.55 157.13 130.48 156.66 130.45 C 156.50 127.15 156.39 123.86 156.17 120.57 C 155.02 121.72 153.71 122.89 153.40 124.57 C 151.37 131.91 153.62 139.46 153.62 146.90 C 153.49 150.04 155.21 153.31 153.82 156.32 C 152.17 149.25 152.86 141.91 151.26 134.84 C 149.40 141.82 151.91 149.30 150.03 156.33 C 147.99 149.40 149.06 142.09 148.78 134.98 C 148.91 129.31 147.85 123.06 151.00 117.97 C 154.20 113.08 160.45 111.35 166.03 111.71 Z" />
<path fill="#010101" opacity="1.00" d=" M 313.07 116.61 C 313.57 113.56 315.43 109.13 319.38 110.58 C 320.15 114.06 316.58 117.61 313.07 116.61 Z" />
<path fill="#010101" opacity="1.00" d=" M 559.21 111.08 C 562.12 109.54 559.36 114.48 559.21 111.08 Z" />
<path fill="#010101" opacity="1.00" d=" M 124.21 112.09 C 124.75 112.18 125.84 112.37 126.38 112.47 C 126.49 113.08 126.69 114.31 126.79 114.92 C 128.31 115.58 129.80 116.32 131.24 117.17 C 128.37 118.60 126.76 115.54 124.90 114.04 C 124.73 113.55 124.38 112.58 124.21 112.09 Z" />
<path fill="#010101" opacity="1.00" d=" M 593.16 114.45 C 596.82 112.96 600.89 114.03 604.30 115.70 C 600.57 115.37 596.88 114.74 593.16 114.45 Z" />
<path fill="#010101" opacity="1.00" d=" M 145.11 114.27 C 146.59 113.73 147.06 114.15 146.52 115.52 C 145.04 116.05 144.57 115.63 145.11 114.27 Z" />
<path fill="#010101" opacity="1.00" d=" M 562.18 114.23 C 562.78 114.71 562.78 114.71 562.18 114.23 Z" />
<path fill="#010101" opacity="1.00" d=" M 140.47 116.36 C 141.33 114.85 144.35 116.05 142.78 117.62 C 141.90 119.16 139.00 117.96 140.47 116.36 Z" />
<path fill="#010101" opacity="1.00" d=" M 220.69 116.55 C 223.96 116.27 227.33 115.98 230.50 117.03 C 227.33 117.44 223.50 118.62 220.69 116.55 Z" />
<path fill="#010101" opacity="1.00" d=" M 591.41 118.11 C 591.02 115.40 594.01 116.22 595.62 116.50 C 596.98 116.82 597.48 118.38 598.36 119.30 C 596.03 119.35 592.94 120.53 591.41 118.11 Z" />
<path fill="#010101" opacity="1.00" d=" M 36.26 119.10 C 40.85 117.46 45.78 117.28 50.57 116.66 C 49.35 118.48 47.16 118.23 45.27 118.49 C 42.27 118.71 39.28 119.85 36.26 119.10 Z" />
<path fill="#010101" opacity="1.00" d=" M 131.34 117.03 C 132.31 115.95 134.59 116.42 134.86 117.91 C 134.49 119.77 130.34 119.01 131.34 117.03 Z" />
<path fill="#010101" opacity="1.00" d=" M 135.84 117.96 C 136.12 114.92 140.88 117.90 137.89 119.23 C 137.38 118.91 136.35 118.28 135.84 117.96 Z" />
<path fill="#010101" opacity="1.00" d=" M 229.18 119.50 C 231.13 119.37 233.20 119.13 234.87 120.39 C 235.71 120.48 237.40 120.66 238.24 120.75 C 238.55 120.21 239.17 119.14 239.48 118.60 C 239.95 126.73 239.26 134.88 240.11 142.99 C 239.42 156.95 239.57 170.99 240.00 184.96 C 239.87 187.23 239.70 189.50 239.45 191.75 C 239.12 190.46 238.82 189.16 238.76 187.83 C 238.43 168.30 239.04 148.77 238.65 129.24 C 237.92 129.28 236.44 129.36 235.70 129.40 C 235.61 127.34 235.52 125.29 235.44 123.24 C 234.58 123.32 232.85 123.49 231.99 123.58 C 229.50 124.37 229.75 120.89 229.18 119.50 Z" />
<path fill="#010101" opacity="1.00" d=" M 40.03 120.95 C 44.15 120.53 48.30 120.35 52.44 120.35 C 48.01 121.96 43.20 122.15 38.54 122.26 C 38.91 121.93 39.66 121.28 40.03 120.95 Z" />
<path fill="#010101" opacity="1.00" d=" M 137.44 123.49 C 137.90 123.56 138.81 123.71 139.27 123.79 C 139.37 134.31 140.53 144.76 140.80 155.28 L 139.03 154.37 C 137.95 144.11 137.11 133.82 137.44 123.49 Z" />
<path fill="#010101" opacity="1.00" d=" M 421.52 125.40 C 423.50 124.27 425.65 123.47 427.86 122.91 C 427.68 123.49 427.31 124.66 427.13 125.25 C 427.83 125.26 429.23 125.27 429.93 125.27 C 431.59 123.81 433.49 124.42 433.89 126.69 C 435.49 124.92 437.41 125.39 439.17 126.58 C 438.26 126.65 436.42 126.80 435.51 126.88 L 435.59 127.91 C 436.85 128.54 438.23 128.68 439.71 128.35 C 439.72 128.93 439.73 130.10 439.73 130.69 C 438.47 131.06 437.22 131.42 435.96 131.78 C 436.47 132.35 437.49 133.49 438.00 134.06 C 436.64 134.58 435.28 135.11 433.93 135.66 C 433.19 135.15 432.44 134.64 431.70 134.15 C 431.54 135.29 431.40 136.43 431.26 137.57 C 434.00 138.54 436.71 139.65 439.54 140.37 C 441.61 140.84 443.72 139.06 445.74 140.14 C 447.55 140.73 449.00 141.98 449.89 143.66 C 447.93 143.57 445.99 143.41 444.05 143.21 C 439.20 141.81 433.94 141.13 429.68 138.25 C 429.45 137.05 429.27 135.84 429.15 134.63 C 427.53 135.24 426.75 136.74 426.02 138.18 C 420.84 140.81 414.75 141.95 408.99 141.18 C 408.57 140.81 407.72 140.07 407.30 139.70 C 412.79 139.77 418.49 139.75 423.66 137.62 C 425.46 136.99 425.59 135.04 425.86 133.45 C 424.83 133.07 423.80 132.69 422.78 132.32 C 421.79 130.71 419.77 129.37 420.23 127.25 C 422.25 126.65 424.35 126.42 426.40 125.94 C 424.80 125.56 423.16 125.47 421.52 125.40 M 425.27 127.04 C 426.23 127.29 428.14 127.79 429.10 128.04 C 427.92 130.78 423.29 128.20 423.12 131.49 C 424.21 131.54 425.31 131.57 426.41 131.61 C 427.59 130.51 428.91 129.58 430.43 129.00 C 430.44 129.94 430.44 131.82 430.44 132.76 C 432.19 132.58 433.95 132.39 435.71 132.20 C 435.14 131.57 434.02 130.32 433.46 129.69 C 433.75 129.20 434.34 128.23 434.64 127.74 C 433.39 126.45 431.82 128.34 430.64 128.72 C 430.37 128.06 429.83 126.74 429.57 126.08 C 428.13 126.38 426.69 126.69 425.27 127.04 Z" />
<path fill="#010101" opacity="1.00" d=" M 169.34 124.56 C 181.61 124.05 193.89 125.19 206.17 124.53 C 207.66 126.47 208.99 128.57 209.60 130.97 C 211.62 138.21 214.79 145.46 214.22 153.13 C 213.24 157.28 211.00 160.98 209.23 164.81 C 212.57 166.21 217.34 169.48 220.43 166.36 C 219.78 163.15 219.30 159.89 219.68 156.61 C 220.10 156.92 220.93 157.53 221.34 157.84 C 221.62 161.24 221.35 164.67 222.08 168.03 C 220.91 170.30 223.72 171.44 224.41 173.31 C 224.79 174.99 224.79 176.72 224.93 178.44 C 227.58 178.39 230.23 178.36 232.89 178.31 C 232.88 178.64 232.87 179.31 232.87 179.65 C 230.13 179.63 227.40 179.61 224.67 179.56 C 224.64 185.29 223.99 190.99 223.13 196.65 C 228.17 196.20 233.35 196.90 238.25 195.35 C 238.72 194.12 239.21 192.91 239.72 191.71 C 239.70 193.00 239.68 194.29 239.66 195.59 C 235.85 198.13 231.18 197.36 226.86 197.58 C 216.96 197.68 207.10 200.48 197.20 198.82 C 193.22 198.37 190.16 195.56 187.24 193.10 C 186.53 195.98 186.60 199.89 183.46 201.34 C 177.46 203.54 171.08 201.63 164.92 201.65 C 161.01 201.46 156.99 201.84 153.19 200.78 C 150.96 200.20 149.31 198.29 148.95 196.04 C 146.19 183.34 147.42 170.04 150.63 157.55 C 155.97 157.39 161.28 156.61 166.63 156.66 C 166.30 149.31 166.89 141.58 170.43 134.98 C 170.27 131.49 169.55 128.05 169.34 124.56 M 175.53 129.94 C 175.55 138.91 177.75 147.69 179.82 156.37 C 181.74 157.48 183.96 157.33 186.10 157.24 C 186.78 157.91 187.48 158.57 188.20 159.21 C 185.04 159.45 181.83 159.48 178.77 158.54 C 178.40 160.58 177.96 162.60 177.49 164.62 C 183.44 165.47 189.55 166.02 195.52 165.10 C 195.04 164.05 194.56 163.00 194.06 161.97 C 195.07 162.24 196.05 162.58 197.00 163.02 C 196.72 163.63 196.16 164.86 195.88 165.47 C 199.55 165.38 203.21 165.03 206.86 164.65 C 207.93 162.51 208.93 160.32 209.82 158.09 C 209.28 158.23 208.21 158.51 207.67 158.65 C 208.01 158.01 208.70 156.74 209.05 156.11 C 210.53 154.77 211.93 153.21 211.65 151.04 C 212.72 142.64 207.26 135.46 206.38 127.35 C 197.57 127.31 188.76 127.27 179.95 127.44 C 178.28 127.46 175.62 127.84 175.53 129.94 M 171.60 135.67 C 171.16 138.78 172.21 142.47 169.68 144.89 C 168.45 149.74 168.56 154.73 169.38 159.64 C 170.15 158.77 171.18 158.34 172.29 158.09 C 171.84 157.69 170.93 156.89 170.47 156.49 C 171.58 154.22 171.61 151.71 171.36 149.25 C 171.98 149.23 173.22 149.20 173.84 149.18 L 174.23 149.55 C 172.25 155.37 172.81 161.65 172.20 167.69 C 172.90 167.72 174.29 167.78 174.99 167.80 C 175.32 164.06 176.45 160.48 177.63 156.94 C 177.40 153.75 175.57 150.87 175.65 147.63 C 175.30 147.68 174.58 147.76 174.23 147.81 C 175.09 143.10 173.60 138.51 173.16 133.85 C 172.77 134.31 171.99 135.21 171.60 135.67 M 152.25 159.53 C 151.45 162.44 151.23 165.45 151.11 168.44 C 152.94 168.44 154.77 168.44 156.60 168.44 C 156.62 167.95 156.66 166.97 156.68 166.48 C 157.10 166.48 157.95 166.46 158.37 166.46 C 158.41 166.93 158.50 167.88 158.54 168.36 C 161.90 168.23 165.28 168.20 168.65 168.32 C 168.76 164.94 167.65 161.71 166.53 158.57 C 166.41 160.90 166.39 163.26 165.83 165.55 C 165.24 163.47 164.76 161.37 164.40 159.25 C 160.35 159.37 156.30 159.49 152.25 159.53 M 177.69 166.21 C 177.55 166.76 177.26 167.87 177.12 168.42 C 179.84 168.40 182.58 168.34 185.30 168.52 C 182.73 170.37 179.28 169.07 176.41 170.18 C 176.46 170.74 176.56 171.85 176.60 172.40 C 181.89 172.64 187.19 172.47 192.49 172.48 C 193.24 170.48 193.99 168.48 194.73 166.48 C 189.05 166.61 183.37 166.17 177.69 166.21 M 195.65 166.40 C 195.05 168.39 194.46 170.39 193.92 172.40 C 195.93 172.32 198.01 172.55 199.99 172.04 C 202.56 170.96 203.76 168.21 205.44 166.17 C 202.18 166.23 198.92 166.34 195.65 166.40 M 204.10 171.71 C 209.29 173.25 214.77 172.58 220.09 172.28 C 216.52 170.12 212.50 169.07 208.32 169.55 C 208.34 168.63 208.36 167.70 208.38 166.77 C 206.94 168.41 205.51 170.05 204.10 171.71 M 158.51 169.44 C 158.55 171.89 158.59 174.33 158.62 176.78 C 158.34 176.80 157.78 176.84 157.50 176.87 C 157.35 174.34 156.98 171.84 156.52 169.37 C 154.58 169.45 152.64 169.53 150.71 169.60 C 150.50 172.67 147.86 177.73 152.06 179.08 C 156.87 179.79 161.79 179.26 166.64 179.42 C 166.48 176.05 166.38 172.66 166.51 169.28 C 163.84 169.28 161.17 169.34 158.51 169.44 M 167.34 169.28 C 167.47 172.38 167.55 175.48 167.53 178.58 C 173.85 179.98 180.44 179.93 186.85 179.15 C 186.67 178.03 186.49 176.92 186.32 175.80 C 185.22 175.43 184.12 175.06 183.02 174.69 C 179.85 174.65 176.68 174.55 173.52 174.53 C 172.39 172.85 171.31 171.14 170.29 169.40 C 169.30 169.36 168.32 169.32 167.34 169.28 M 197.61 174.75 C 197.24 181.82 197.01 188.96 197.81 196.01 C 198.06 196.30 198.55 196.89 198.79 197.18 C 202.33 197.56 205.89 197.10 209.36 196.41 C 209.17 192.68 209.08 188.92 209.74 185.22 C 205.83 185.78 201.90 186.22 197.96 186.45 L 197.97 185.42 C 206.06 184.08 214.37 185.14 222.41 183.44 C 222.53 180.39 222.64 177.35 222.68 174.30 C 218.70 174.64 214.75 175.37 210.75 175.41 C 210.52 178.16 210.36 180.96 209.37 183.56 C 209.16 180.82 209.33 178.08 209.55 175.35 C 207.33 174.86 205.12 174.36 202.96 173.66 C 201.20 174.14 199.41 174.50 197.61 174.75 M 189.23 175.29 C 189.41 177.48 189.05 179.78 189.70 181.91 C 191.08 183.36 192.93 184.17 194.63 185.15 C 194.74 181.86 194.76 178.58 194.79 175.29 C 192.93 175.30 191.08 175.30 189.23 175.29 M 149.50 181.25 C 149.53 184.64 149.81 188.02 150.35 191.38 C 154.65 191.82 159.10 191.21 163.29 192.44 C 158.94 193.00 154.55 192.54 150.19 192.33 C 151.02 194.28 150.77 197.24 153.02 198.25 C 157.34 199.82 162.05 199.32 166.56 199.73 C 166.70 197.00 166.06 193.96 167.64 191.51 C 167.77 194.24 167.57 196.96 167.33 199.67 C 172.56 199.44 177.87 200.16 183.05 199.25 C 184.98 197.03 184.44 193.85 184.87 191.15 C 179.96 191.43 175.05 191.58 170.13 191.58 C 170.14 191.30 170.15 190.75 170.15 190.48 C 175.31 190.66 180.45 190.28 185.55 189.56 C 185.70 186.87 185.74 184.18 185.65 181.49 C 179.98 181.86 174.31 181.26 168.64 181.43 C 168.14 184.25 167.70 187.08 167.57 189.95 L 166.54 189.98 C 166.75 187.09 167.55 184.18 166.83 181.31 C 161.06 181.58 155.27 181.67 149.50 181.25 M 188.70 182.95 C 188.31 185.36 187.86 187.76 187.41 190.16 C 189.92 192.43 192.46 194.77 195.66 196.06 C 195.38 192.87 194.90 189.72 194.60 186.54 C 192.66 185.30 190.69 184.10 188.70 182.95 M 210.20 185.51 C 210.26 189.25 210.21 192.99 210.29 196.73 C 213.87 196.07 218.62 197.28 221.19 194.06 C 221.91 191.15 221.82 188.11 221.66 185.14 C 217.90 184.82 214.02 185.74 210.20 185.51 Z" />
<path fill="#010101" opacity="1.00" d=" M 213.22 124.35 C 216.32 124.36 219.42 124.36 222.53 124.37 C 222.62 127.62 222.77 130.90 222.23 134.12 C 221.45 131.30 220.94 128.41 220.41 125.53 C 218.03 125.56 215.65 125.56 213.27 125.55 C 213.26 125.25 213.23 124.65 213.22 124.35 Z" />
<path fill="#010101" opacity="1.00" d=" M 488.03 125.17 C 497.02 124.42 506.05 124.80 515.06 124.50 C 518.99 124.47 522.94 124.16 526.87 124.51 C 528.13 124.56 528.68 125.96 528.64 127.06 C 528.91 130.67 528.71 134.31 528.33 137.91 C 525.32 134.88 527.30 130.07 526.76 126.25 C 507.84 126.42 488.92 126.41 470.00 126.78 C 462.00 127.57 453.94 127.31 445.93 127.21 C 445.66 126.82 445.13 126.04 444.87 125.65 C 459.26 125.37 473.64 125.27 488.03 125.17 Z" />
<path fill="#010101" opacity="1.00" d=" M 369.84 124.16 C 372.66 124.59 375.47 125.12 378.26 125.74 C 375.40 126.92 372.00 126.62 369.84 124.16 Z" />
<path fill="#010101" opacity="1.00" d=" M 387.75 129.92 C 388.34 127.03 391.24 125.59 394.01 125.68 C 401.42 125.71 408.84 125.89 416.23 126.48 C 415.38 127.35 414.23 127.69 413.03 127.58 C 406.02 127.68 399.00 127.15 392.00 127.57 C 389.30 127.72 389.26 130.93 389.30 132.96 C 389.50 141.64 389.39 150.34 390.20 158.99 C 390.40 165.52 390.22 172.06 390.46 178.59 C 390.02 178.51 389.13 178.34 388.68 178.25 C 388.35 166.82 388.67 155.37 387.70 143.96 C 387.77 139.29 387.27 134.58 387.75 129.92 Z" />
<path fill="#010101" opacity="1.00" d=" M 612.59 126.34 C 615.07 126.31 617.37 127.26 619.57 128.33 C 619.58 129.79 619.64 131.26 619.58 132.73 C 617.87 134.15 615.75 132.78 614.23 131.79 C 614.18 129.41 618.11 131.12 619.43 130.25 C 617.98 127.60 614.66 128.11 612.59 126.34 Z" />
<path fill="#010101" opacity="1.00" d=" M 610.20 128.36 C 610.98 128.32 612.55 128.24 613.33 128.20 C 613.35 128.89 613.39 130.29 613.41 130.99 C 612.66 130.87 611.16 130.63 610.42 130.52 C 610.36 129.98 610.26 128.90 610.20 128.36 Z" />
<path fill="#010101" opacity="1.00" d=" M 369.70 130.76 C 373.19 132.41 370.33 136.98 367.72 138.07 C 366.40 139.59 365.33 143.53 362.74 142.23 C 362.02 139.92 365.15 138.82 366.53 137.45 C 368.01 135.44 369.04 133.17 369.70 130.76 Z" />
<path fill="#010101" opacity="1.00" d=" M 551.25 131.16 C 551.74 131.26 552.74 131.46 553.23 131.56 C 555.48 144.69 555.20 158.07 555.56 171.34 C 557.65 169.47 558.17 165.79 561.75 166.23 C 561.81 164.46 561.74 162.67 562.03 160.92 C 564.69 157.76 568.94 158.61 572.40 159.64 C 572.41 158.85 572.43 157.27 572.44 156.48 C 573.15 156.06 573.88 155.64 574.61 155.22 C 576.08 157.64 576.58 160.36 575.46 163.05 C 575.94 164.08 576.41 165.12 576.88 166.17 C 575.83 165.39 574.82 164.55 573.86 163.68 C 573.10 163.65 571.59 163.59 570.84 163.56 C 570.43 164.51 570.03 165.45 569.63 166.40 C 568.04 166.35 566.45 166.32 564.88 166.31 C 564.18 167.46 563.50 168.63 562.84 169.80 C 561.89 169.04 561.46 167.01 559.96 167.54 C 557.55 166.99 558.84 170.16 558.34 171.43 C 557.44 171.83 556.56 172.24 555.68 172.65 C 556.61 174.97 555.78 177.35 555.36 179.67 C 556.10 179.39 557.57 178.82 558.31 178.54 C 558.63 178.77 559.27 179.22 559.60 179.44 C 566.22 179.43 572.84 179.65 579.46 179.74 C 578.29 181.44 576.86 182.96 575.18 184.17 C 575.09 185.19 572.80 185.18 573.23 184.09 C 574.26 182.96 575.34 181.88 576.40 180.79 C 570.49 180.54 564.57 180.51 558.65 180.33 C 556.82 182.12 554.98 183.94 553.60 186.12 C 559.66 186.17 565.82 187.72 571.80 186.26 C 572.02 187.70 569.96 187.84 569.04 188.28 C 564.26 188.05 559.51 187.25 554.71 187.34 C 554.70 189.03 554.66 190.72 554.61 192.41 C 554.13 190.83 553.73 189.23 553.38 187.63 C 552.43 187.12 551.49 186.62 550.55 186.12 C 552.40 184.64 554.26 183.17 556.12 181.71 C 555.38 180.76 554.63 179.83 553.88 178.90 C 552.65 170.65 553.85 162.28 552.82 154.01 C 552.83 146.35 552.22 138.75 551.25 131.16 M 563.38 161.08 C 563.30 162.69 563.23 164.31 563.17 165.92 C 565.66 165.26 568.80 165.50 570.31 163.00 C 568.04 162.24 565.74 161.54 563.38 161.08 Z" />
<path fill="#010101" opacity="1.00" d=" M 398.58 134.40 C 399.06 133.29 399.55 132.17 400.04 131.06 C 401.93 132.55 401.82 135.00 401.22 137.09 C 399.84 137.99 398.75 136.23 397.55 135.81 C 397.28 137.59 396.73 139.31 396.10 140.99 C 397.35 140.69 398.62 140.40 399.88 140.11 C 400.10 140.61 400.53 141.62 400.74 142.12 C 402.24 141.39 403.73 140.67 405.23 139.96 C 404.38 139.73 402.67 139.29 401.82 139.07 C 399.94 135.63 405.41 136.51 407.30 136.68 C 407.91 138.58 407.25 139.53 405.32 139.53 C 405.45 140.12 405.58 140.71 405.72 141.30 C 404.91 141.60 403.28 142.21 402.47 142.51 C 408.55 142.55 414.71 143.28 420.30 145.80 C 421.35 146.40 421.66 147.69 422.32 148.64 C 423.80 148.65 425.28 148.66 426.77 148.70 C 425.96 150.91 424.39 152.65 422.76 154.28 C 425.98 153.71 429.26 153.55 432.54 153.59 C 431.35 152.36 430.18 151.12 429.06 149.84 C 429.20 150.78 429.47 152.65 429.61 153.59 C 426.44 153.18 426.87 149.10 429.34 148.14 C 434.60 145.67 440.48 144.08 446.35 144.64 C 445.89 147.32 443.21 146.23 441.39 146.44 C 441.69 150.65 442.13 154.84 442.42 159.05 C 438.82 166.55 429.80 169.57 421.97 168.32 C 419.52 167.45 417.07 166.56 414.72 165.45 C 413.88 166.21 413.05 166.96 412.22 167.72 C 413.54 164.96 411.65 163.39 409.51 162.12 C 409.43 159.42 409.49 156.71 409.22 154.02 C 411.16 152.20 413.86 152.57 416.31 152.50 C 415.29 151.51 414.28 150.51 413.28 149.51 C 412.39 149.51 411.51 149.51 410.63 149.52 C 410.65 150.25 410.69 151.71 410.71 152.44 C 410.17 152.29 409.09 151.98 408.56 151.83 C 408.62 150.05 408.65 148.28 408.67 146.50 C 406.00 146.54 403.35 146.77 400.79 147.53 C 400.37 144.81 397.13 145.09 395.29 143.80 C 394.03 143.47 392.44 143.61 391.67 142.34 C 391.41 141.04 391.32 139.71 391.19 138.40 C 393.41 136.57 395.16 133.26 398.58 134.40 M 413.73 146.26 C 414.82 146.79 415.92 147.32 417.02 147.86 C 418.09 149.00 419.27 150.09 420.97 149.46 C 420.50 148.77 419.57 147.39 419.10 146.71 C 417.31 146.55 415.52 146.40 413.73 146.26 M 438.55 161.31 C 438.82 157.45 438.89 153.57 438.57 149.71 C 438.04 153.55 438.15 157.46 438.55 161.31 M 434.45 152.10 C 434.14 156.46 434.30 160.86 434.69 165.21 C 437.96 161.13 435.97 155.27 435.30 150.55 C 435.09 150.94 434.66 151.72 434.45 152.10 M 418.29 153.27 C 418.42 154.91 421.12 154.48 421.37 153.10 C 421.19 151.55 418.54 151.93 418.29 153.27 M 414.59 156.96 C 415.57 157.23 416.55 157.50 417.54 157.76 C 418.44 156.95 419.35 156.13 420.27 155.32 C 418.24 155.34 416.20 155.62 414.59 156.96 M 420.27 158.37 C 421.34 158.40 423.49 158.46 424.57 158.49 C 424.56 157.40 424.56 156.31 424.55 155.23 C 422.48 155.38 420.18 155.70 420.27 158.37 M 413.55 159.72 C 412.72 159.54 411.90 159.35 411.09 159.17 C 411.16 159.77 411.32 160.98 411.40 161.58 C 414.85 163.87 418.64 165.58 422.67 166.54 C 422.65 164.92 422.66 163.30 422.76 161.68 C 423.65 163.32 424.43 165.02 425.38 166.63 C 427.75 167.07 430.15 166.30 432.52 166.04 C 432.58 163.18 432.54 160.33 432.51 157.48 C 431.53 157.43 429.58 157.35 428.61 157.31 C 428.15 158.23 427.69 159.15 427.24 160.07 C 425.91 160.69 424.60 161.33 423.28 161.96 C 423.38 161.29 423.58 159.94 423.68 159.26 C 421.32 158.98 419.98 160.44 419.09 162.40 C 418.28 162.48 417.47 162.56 416.66 162.65 C 416.34 161.49 416.00 160.35 415.64 159.21 C 415.53 157.08 413.98 159.11 413.55 159.72 Z" />
<path fill="#010101" opacity="1.00" d=" M 402.34 133.23 C 403.31 133.39 404.30 133.55 405.28 133.71 C 405.45 134.27 405.77 135.39 405.93 135.95 C 404.70 135.83 403.47 135.70 402.25 135.58 C 402.27 134.99 402.31 133.82 402.34 133.23 Z" />
<path fill="#010101" opacity="1.00" d=" M 616.27 133.89 C 619.34 132.61 616.15 137.25 616.27 133.89 Z" />
<path fill="#010101" opacity="1.00" d=" M 480.86 137.12 C 484.28 134.96 488.44 135.33 492.30 135.33 C 492.65 136.46 493.00 137.59 493.37 138.72 C 494.95 137.38 496.61 135.60 498.92 135.97 C 505.84 136.43 512.76 135.61 519.67 136.23 C 520.00 137.24 520.38 138.23 520.79 139.21 C 523.03 139.40 525.29 139.36 527.55 139.37 C 526.23 147.96 529.05 156.37 529.57 164.89 C 530.71 173.12 530.27 181.45 530.06 189.72 C 532.09 188.32 534.27 185.85 537.05 186.82 C 538.86 187.75 540.14 189.38 541.58 190.77 C 541.92 194.52 539.16 199.13 534.99 198.67 C 531.82 198.73 529.98 195.83 528.41 193.53 C 514.60 193.79 500.78 193.51 486.97 193.68 C 482.98 194.02 478.98 193.87 474.99 193.62 C 452.05 195.03 429.01 193.96 406.03 194.31 C 403.21 194.20 399.80 194.94 397.73 192.53 C 411.15 191.71 424.64 192.89 438.04 191.82 C 437.49 190.67 436.93 189.53 436.38 188.38 C 435.58 188.39 433.98 188.41 433.17 188.42 C 434.28 182.90 438.92 178.95 441.05 173.80 C 443.32 173.74 445.60 173.68 447.88 173.61 C 447.70 172.72 447.33 170.95 447.15 170.06 C 448.89 167.94 451.17 166.47 453.91 166.02 C 453.35 164.36 452.69 162.73 452.34 161.02 C 455.08 157.84 458.17 154.96 460.64 151.54 C 462.11 151.20 463.59 150.86 465.08 150.53 C 464.13 148.93 463.20 147.32 462.28 145.71 C 465.09 143.01 467.90 140.32 470.67 137.58 C 474.06 137.29 477.46 137.22 480.86 137.12 M 484.17 137.35 C 484.48 138.61 484.79 139.86 485.12 141.12 C 486.81 139.91 488.45 138.63 490.05 137.30 C 488.09 137.31 486.12 137.33 484.17 137.35 M 497.35 137.51 C 494.21 140.25 490.96 142.87 487.76 145.53 C 493.15 146.31 498.65 145.21 503.99 146.54 C 510.28 148.36 513.96 141.75 517.05 137.47 C 510.49 137.51 503.92 137.44 497.35 137.51 M 465.53 144.78 C 469.24 144.76 472.95 144.76 476.67 144.74 C 478.29 142.76 479.87 140.73 481.34 138.64 C 478.24 138.58 475.06 138.23 472.04 139.06 C 469.42 140.37 467.62 142.81 465.53 144.78 M 485.89 144.16 C 488.31 142.90 490.36 141.07 492.06 138.96 C 489.45 139.88 486.84 141.40 485.89 144.16 M 509.56 148.04 C 510.56 152.39 511.55 156.75 512.60 161.09 C 513.60 161.71 514.46 163.01 515.80 162.80 C 516.08 161.14 515.56 159.48 515.41 157.83 C 517.89 159.09 517.65 162.27 518.54 164.55 C 517.70 164.39 516.86 164.26 516.03 164.16 L 515.47 164.50 C 515.19 168.47 515.26 172.54 516.41 176.39 C 518.07 176.91 519.73 177.47 521.38 178.05 C 521.59 175.06 522.49 172.07 522.06 169.08 C 521.94 167.47 520.80 165.37 523.09 164.73 C 523.26 165.93 523.43 167.14 523.60 168.35 C 524.27 168.93 524.94 169.52 525.60 170.13 C 522.45 171.77 523.85 175.54 523.38 178.34 C 525.08 178.87 526.79 179.42 528.50 179.94 C 528.50 175.98 528.50 172.00 527.81 168.10 C 527.10 168.15 525.69 168.25 524.99 168.30 C 525.63 167.76 526.91 166.69 527.55 166.15 C 528.23 158.32 525.12 150.70 525.37 142.85 C 523.52 143.40 521.69 143.96 519.86 144.52 C 519.49 142.47 519.09 140.43 518.68 138.40 C 516.04 141.97 513.11 145.35 509.56 148.04 M 477.45 146.87 C 479.61 152.87 481.01 159.09 482.66 165.24 C 485.07 163.27 487.38 161.17 489.58 158.96 C 486.72 152.78 484.89 146.23 483.03 139.70 C 481.12 141.99 478.37 144.00 477.45 146.87 M 521.27 141.04 C 521.25 144.43 524.27 139.59 521.27 141.04 M 465.93 146.98 C 466.34 148.39 466.76 149.81 467.20 151.22 C 467.36 150.40 467.66 148.77 467.82 147.96 C 468.30 148.70 469.25 150.19 469.73 150.94 C 471.60 150.92 472.72 149.74 473.15 147.95 C 473.45 148.64 474.05 150.00 474.36 150.69 C 474.99 150.72 476.25 150.77 476.88 150.80 C 476.31 149.40 475.74 148.01 475.19 146.60 C 472.10 146.53 469.00 146.61 465.93 146.98 M 487.73 147.78 C 487.71 148.54 487.65 150.05 487.62 150.81 C 489.40 150.32 491.19 149.84 492.99 149.40 C 492.86 148.89 492.59 147.86 492.46 147.35 C 490.87 147.45 489.30 147.60 487.73 147.78 M 497.79 155.35 C 497.74 152.36 497.09 149.41 495.83 146.70 C 494.58 149.78 496.16 152.80 497.79 155.35 M 498.29 148.24 C 498.99 150.65 499.70 153.06 500.47 155.46 C 502.59 155.87 504.71 156.32 506.83 156.80 C 505.90 158.04 504.98 159.27 504.05 160.50 C 506.28 160.88 508.50 161.26 510.74 161.59 C 510.14 157.12 509.05 152.74 507.73 148.44 C 504.58 148.40 501.43 148.32 498.29 148.24 M 491.57 151.42 C 491.81 153.29 491.04 154.57 489.16 155.03 C 490.50 157.95 493.40 154.84 495.69 155.33 C 495.18 154.10 494.67 152.86 494.19 151.63 C 493.31 151.56 492.44 151.49 491.57 151.42 M 455.84 160.38 C 461.50 160.37 467.16 160.75 472.82 160.72 C 474.86 158.44 475.81 155.45 476.81 152.63 C 472.19 152.66 467.55 152.33 462.95 152.80 C 459.61 154.11 457.81 157.58 455.84 160.38 M 476.92 156.68 C 475.93 159.25 473.75 161.72 474.38 164.64 C 476.74 173.72 479.97 182.86 479.64 192.37 C 480.46 192.33 482.08 192.25 482.90 192.21 C 482.51 184.97 480.01 178.06 479.30 170.86 C 478.92 169.29 479.53 167.83 480.61 166.70 C 480.43 163.06 479.49 159.54 478.49 156.06 C 478.10 156.22 477.31 156.53 476.92 156.68 M 492.63 157.37 C 489.69 161.62 485.93 165.23 481.83 168.34 C 487.48 169.67 493.29 169.99 498.97 171.16 C 501.45 171.47 504.10 172.36 506.58 171.57 C 509.19 169.31 510.88 166.23 512.91 163.48 C 508.91 162.60 504.58 163.18 500.83 161.40 C 501.92 160.12 503.05 158.87 504.17 157.60 C 500.32 157.44 496.48 157.34 492.63 157.37 M 455.00 162.30 C 456.16 167.66 458.32 172.71 460.22 177.83 C 462.25 182.72 463.73 187.93 466.85 192.28 C 463.53 182.67 459.37 173.35 456.25 163.68 C 460.68 163.64 465.11 163.57 469.54 163.37 C 471.30 172.66 474.27 181.69 475.96 190.98 C 473.70 191.14 471.45 191.26 469.20 191.38 L 469.22 191.77 C 472.40 191.68 475.58 191.69 478.76 191.85 C 476.82 181.98 475.49 171.81 471.46 162.52 C 465.97 162.41 460.49 162.24 455.00 162.30 M 459.32 165.48 C 459.33 166.01 459.36 167.08 459.37 167.62 C 462.46 167.56 465.55 167.51 468.64 167.49 C 468.60 166.96 468.51 165.90 468.46 165.36 C 465.41 165.38 462.36 165.45 459.32 165.48 M 507.45 173.25 C 507.32 175.17 507.58 177.09 507.74 179.01 C 508.20 181.49 508.41 184.07 509.45 186.41 C 510.22 182.43 508.75 178.61 508.41 174.72 C 508.86 174.45 509.76 173.91 510.21 173.64 C 510.38 175.48 510.57 177.32 510.81 179.15 C 511.70 177.89 512.60 176.63 513.53 175.39 C 513.62 174.06 513.71 172.75 513.80 171.43 C 513.36 172.74 512.94 174.06 512.54 175.39 C 511.69 174.61 510.92 173.76 510.26 172.83 C 511.27 171.94 512.39 171.19 513.52 170.44 C 513.54 168.87 513.56 167.30 513.61 165.73 C 511.75 168.40 509.31 170.60 507.45 173.25 M 448.15 173.52 C 450.65 173.50 453.15 173.48 455.65 173.47 C 455.66 171.42 455.24 169.41 454.31 167.57 C 453.45 167.61 451.73 167.68 450.87 167.71 C 449.51 169.42 448.17 171.22 448.15 173.52 M 461.36 169.47 C 461.35 170.50 461.34 171.53 461.34 172.56 C 464.13 172.68 466.93 172.77 469.73 172.86 C 469.61 172.10 469.36 170.57 469.23 169.81 C 466.74 168.94 463.95 169.63 461.36 169.47 M 481.24 170.37 C 481.98 177.86 483.67 185.27 485.47 192.57 C 485.51 190.19 485.45 187.82 485.41 185.44 C 487.11 185.55 488.82 185.68 490.53 185.82 C 489.41 186.47 488.29 187.10 487.17 187.72 C 487.32 189.22 487.47 190.72 487.62 192.23 C 495.35 192.07 503.10 192.44 510.80 191.80 C 510.77 191.24 510.70 190.12 510.66 189.56 C 509.76 189.48 508.66 189.97 507.93 189.29 C 506.79 184.17 505.96 178.96 505.42 173.74 C 497.34 172.75 489.35 171.07 481.24 170.37 M 462.16 174.44 C 462.43 175.21 462.70 175.97 462.97 176.74 C 465.69 176.68 468.40 176.59 471.12 176.47 C 470.51 175.87 469.89 175.26 469.29 174.66 C 466.91 174.61 464.53 174.54 462.16 174.44 M 442.19 175.39 C 439.98 179.20 437.77 183.01 435.16 186.56 C 440.85 186.43 446.55 186.43 452.25 186.29 C 451.76 182.32 455.36 180.11 458.87 179.87 C 458.35 178.36 457.82 176.87 457.31 175.37 C 452.27 175.38 447.22 175.39 442.19 175.39 M 463.74 178.91 C 465.81 180.60 469.02 179.35 471.52 179.46 C 469.34 177.72 466.25 178.44 463.74 178.91 M 513.54 179.78 C 511.22 182.93 510.78 186.96 512.44 190.53 C 517.53 193.03 523.25 191.99 528.70 192.26 C 527.38 188.53 530.27 182.93 525.91 180.87 C 524.17 179.89 522.23 180.59 520.76 181.67 C 520.17 180.62 519.59 179.57 519.01 178.52 C 518.28 178.53 516.81 178.54 516.08 178.55 C 515.44 178.86 514.18 179.47 513.54 179.78 M 455.22 181.91 C 454.73 182.38 453.76 183.32 453.27 183.79 C 453.53 186.15 454.15 188.45 454.94 190.70 C 457.84 191.99 460.96 192.61 464.15 192.26 C 462.71 188.25 460.90 184.39 459.33 180.44 C 457.96 180.94 456.59 181.43 455.22 181.91 M 465.50 182.41 C 466.41 184.06 470.31 182.75 471.66 182.03 C 469.80 181.31 467.17 181.20 465.50 182.41 M 439.23 188.35 C 439.30 189.54 439.37 190.73 439.44 191.92 C 441.46 192.62 443.80 192.12 443.77 189.53 C 445.91 189.51 448.05 189.50 450.20 189.50 C 450.46 190.06 450.98 191.18 451.24 191.74 C 451.84 191.78 453.05 191.86 453.65 191.90 C 453.60 190.75 453.56 189.61 453.54 188.47 C 448.77 188.15 444.00 188.34 439.23 188.35 M 531.33 194.70 C 532.55 197.00 535.36 196.62 537.55 196.77 C 538.23 195.74 538.98 194.74 539.54 193.64 C 540.27 191.48 537.95 190.05 537.08 188.35 C 533.51 187.77 530.40 191.17 531.33 194.70 Z" />
<path fill="#010101" opacity="1.00" d=" M 438.86 139.00 C 440.46 137.65 442.32 136.38 444.53 136.67 C 442.87 137.94 440.92 138.72 438.86 139.00 Z" />
<path fill="#010101" opacity="1.00" d=" M 453.72 136.35 C 455.65 136.94 457.76 137.30 459.33 138.68 C 459.99 140.02 459.53 141.60 459.59 143.03 C 459.10 141.55 458.65 140.07 458.21 138.58 C 456.70 138.44 455.17 138.30 453.67 138.19 C 454.91 139.50 456.16 140.77 457.40 142.11 C 456.50 141.65 454.71 140.73 453.81 140.26 C 453.45 140.85 452.72 142.01 452.36 142.59 C 451.86 142.65 450.84 142.77 450.33 142.82 C 450.38 142.18 450.47 140.88 450.51 140.24 C 449.38 140.18 447.13 140.08 446.00 140.03 C 447.15 138.75 448.67 138.53 450.56 139.39 C 451.62 138.38 452.67 137.37 453.72 136.35 Z" />
<path fill="#010101" opacity="1.00" d=" M 179.35 137.69 C 180.68 139.17 180.55 141.25 180.91 143.09 C 181.41 146.91 182.52 150.66 182.57 154.54 C 180.94 153.00 180.90 150.67 180.58 148.60 C 180.21 144.95 179.30 141.37 179.35 137.69 Z" />
<path fill="#010101" opacity="1.00" d=" M 506.63 140.28 C 508.26 137.24 512.36 138.81 515.18 138.16 C 513.63 140.70 512.07 143.37 509.43 144.94 C 509.86 143.38 510.37 141.86 510.88 140.33 C 509.46 140.33 508.04 140.32 506.63 140.28 Z" />
<path fill="#010101" opacity="1.00" d=" M 187.30 143.13 C 188.16 142.55 188.80 141.46 189.90 141.38 C 193.95 141.13 198.02 141.15 202.07 141.43 C 197.48 143.67 192.08 141.34 187.30 143.13 Z" />
<path fill="#010101" opacity="1.00" d=" M 451.53 143.71 C 454.38 142.86 458.60 141.02 459.79 145.06 C 456.82 146.16 453.92 147.64 450.71 147.85 C 451.67 146.75 453.09 146.41 454.40 145.91 C 453.68 145.36 452.25 144.26 451.53 143.71 Z" />
<path fill="#010101" opacity="1.00" d=" M 481.47 143.27 C 482.82 142.40 484.17 144.77 483.05 145.72 C 481.66 146.60 480.38 144.23 481.47 143.27 Z" />
<path fill="#010101" opacity="1.00" d=" M 575.79 144.23 C 576.48 142.99 577.17 143.04 577.84 144.38 C 577.15 145.63 576.47 145.59 575.79 144.23 Z" />
<path fill="#010101" opacity="1.00" d=" M 186.25 144.31 C 187.67 144.29 189.10 144.27 190.53 144.25 C 189.98 144.59 188.87 145.26 188.32 145.60 C 188.31 146.15 188.30 147.24 188.29 147.79 C 192.02 147.61 195.80 147.37 199.50 148.06 C 195.16 148.80 190.78 149.18 186.41 149.65 C 186.37 147.98 186.33 146.30 186.26 144.63 L 186.25 144.31 Z" />
<path fill="#010101" opacity="1.00" d=" M 447.61 150.11 C 446.97 147.53 447.24 144.31 450.63 144.07 C 450.74 146.63 450.16 149.01 447.61 150.11 Z" />
<path fill="#010101" opacity="1.00" d=" M 519.26 151.47 C 516.90 150.16 515.65 145.50 518.18 143.93 C 518.58 146.43 518.95 148.95 519.26 151.47 Z" />
<path fill="#010101" opacity="1.00" d=" M 479.84 149.32 C 478.74 149.00 478.02 146.58 479.53 146.44 C 480.62 146.75 481.27 149.14 479.84 149.32 Z" />
<path fill="#010101" opacity="1.00" d=" M 70.36 148.57 C 72.26 147.73 74.74 147.26 76.72 148.01 C 75.49 149.20 71.53 149.92 70.36 148.57 Z" />
<path fill="#010101" opacity="1.00" d=" M 69.80 151.58 C 72.60 150.49 75.69 150.00 78.64 150.79 C 75.76 151.61 72.76 151.72 69.80 151.58 Z" />
<path fill="#010101" opacity="1.00" d=" M 186.20 150.64 C 191.68 151.14 197.43 148.89 202.68 150.99 C 197.20 151.76 191.65 151.59 186.13 151.73 L 186.20 150.64 Z" />
<path fill="#010101" opacity="1.00" d=" M 483.59 150.29 C 485.09 149.54 486.56 152.83 484.94 153.36 C 483.78 153.00 482.98 151.37 483.59 150.29 Z" />
<path fill="#010101" opacity="1.00" d=" M 500.13 150.61 C 502.30 150.49 505.59 148.27 506.29 151.53 C 504.93 151.60 503.58 151.67 502.24 151.73 C 502.35 152.37 502.58 153.64 502.69 154.28 C 500.61 154.00 500.14 152.42 500.13 150.61 Z" />
<path fill="#010101" opacity="1.00" d=" M 514.13 155.12 C 513.07 153.12 511.93 150.93 512.79 148.62 C 513.89 150.57 515.44 152.85 514.13 155.12 Z" />
<path fill="#010101" opacity="1.00" d=" M 299.77 151.99 C 301.07 151.55 302.41 151.25 303.76 150.95 C 303.79 151.47 303.86 152.51 303.89 153.03 C 302.48 152.83 301.00 152.78 299.77 151.99 Z" />
<path fill="#010101" opacity="1.00" d=" M 306.19 151.58 C 306.83 151.60 308.09 151.63 308.73 151.65 C 308.75 152.13 308.80 153.10 308.83 153.58 C 308.15 153.55 306.78 153.50 306.10 153.47 C 306.12 153.00 306.17 152.05 306.19 151.58 Z" />
<path fill="#010101" opacity="1.00" d=" M 329.47 151.23 C 330.25 149.71 332.81 150.97 331.51 152.42 C 330.71 153.93 328.19 152.67 329.47 151.23 Z" />
<path fill="#010101" opacity="1.00" d=" M 194.91 152.42 C 199.30 152.29 203.69 152.39 208.08 152.43 C 207.86 152.60 207.40 152.96 207.17 153.14 C 200.96 154.44 194.70 155.64 188.33 155.68 C 188.20 155.36 187.94 154.71 187.81 154.38 C 189.50 154.36 191.19 154.34 192.89 154.32 C 193.39 153.84 194.40 152.90 194.91 152.42 Z" />
<path fill="#010101" opacity="1.00" d=" M 294.20 153.05 C 295.65 152.65 297.13 152.08 298.68 152.25 C 298.28 154.21 294.85 155.77 294.20 153.05 Z" />
<path fill="#010101" opacity="1.00" d=" M 323.81 154.80 C 323.95 152.83 325.87 152.74 327.36 152.35 C 327.39 152.84 327.43 153.82 327.45 154.31 C 326.24 154.48 325.02 154.65 323.81 154.80 Z" />
<path fill="#010101" opacity="1.00" d=" M 480.97 153.33 C 482.16 152.62 483.48 154.58 482.66 155.56 C 481.49 156.22 480.10 154.29 480.97 153.33 Z" />
<path fill="#010101" opacity="1.00" d=" M 70.25 154.50 C 72.65 154.57 75.28 153.44 77.49 154.75 L 75.17 154.39 C 75.01 154.99 74.67 156.18 74.51 156.77 C 75.45 156.74 77.34 156.68 78.28 156.65 C 77.18 157.27 75.94 157.52 74.71 157.75 C 73.88 155.94 72.19 154.97 70.20 155.35 C 70.22 155.14 70.24 154.71 70.25 154.50 Z" />
<path fill="#010101" opacity="1.00" d=" M 242.17 154.77 C 242.77 154.80 243.95 154.86 244.55 154.89 C 242.93 156.56 243.54 158.96 243.40 161.02 C 243.53 171.34 243.15 181.71 244.32 191.99 C 244.65 194.56 244.79 197.74 241.97 199.00 C 236.61 201.12 230.68 200.23 225.05 200.54 C 212.97 201.58 200.79 201.87 188.66 201.50 C 191.77 199.67 195.58 199.70 199.07 199.60 C 205.71 199.96 212.35 199.46 218.95 198.75 C 225.31 198.41 231.69 198.59 238.06 198.30 C 239.80 198.35 241.24 197.27 242.71 196.50 C 242.02 182.60 242.13 168.68 242.17 154.77 Z" />
<path fill="#010101" opacity="1.00" d=" M 522.42 161.60 C 519.66 160.29 520.17 156.81 520.95 154.46 C 521.77 156.76 522.34 159.15 522.42 161.60 Z" />
<path fill="#010101" opacity="1.00" d=" M 189.79 156.63 C 194.67 156.65 199.54 156.43 204.41 156.37 C 202.96 158.97 199.69 158.35 197.23 159.14 C 194.67 158.60 191.33 159.28 189.79 156.63 Z" />
<path fill="#010101" opacity="1.00" d=" M 482.61 162.36 C 482.24 160.06 483.73 158.38 485.17 156.82 C 488.04 159.24 485.00 161.57 482.61 162.36 Z" />
<path fill="#010101" opacity="1.00" d=" M 72.47 164.25 C 73.15 163.43 75.71 163.20 75.56 164.67 C 74.88 165.48 72.32 165.71 72.47 164.25 Z" />
<path fill="#010101" opacity="1.00" d=" M 578.87 164.25 C 579.72 164.71 580.58 165.18 581.44 165.65 C 581.53 166.27 581.69 167.51 581.78 168.13 C 582.43 168.30 583.73 168.63 584.37 168.79 C 584.28 170.64 584.20 172.48 584.12 174.33 C 586.07 172.36 588.46 170.54 589.03 167.65 C 590.33 167.59 591.64 167.56 592.96 167.54 C 594.12 167.04 595.27 166.30 596.60 166.32 C 597.22 167.16 597.82 168.03 598.40 168.93 C 596.73 167.03 593.93 166.91 593.12 169.70 C 592.01 168.84 590.68 168.34 589.30 168.18 C 589.36 169.00 589.48 170.65 589.54 171.47 C 588.46 171.88 587.38 172.29 586.32 172.70 C 586.04 175.05 586.69 177.19 588.83 178.41 C 587.80 179.28 586.79 180.16 585.80 181.05 C 587.03 181.93 588.30 182.81 589.51 183.75 C 586.51 183.38 583.73 182.17 581.16 180.64 C 583.10 180.49 585.20 180.60 586.83 179.31 C 585.67 178.19 584.52 177.00 584.39 175.30 C 583.90 175.38 582.92 175.56 582.44 175.64 C 582.54 175.08 582.75 173.95 582.85 173.39 C 582.15 173.50 580.75 173.73 580.06 173.84 C 581.58 172.60 582.92 171.15 584.03 169.51 C 583.13 169.45 581.34 169.31 580.44 169.24 C 580.54 168.66 580.73 167.50 580.83 166.92 C 580.17 166.03 579.51 165.14 578.87 164.25 Z" />
<path fill="#010101" opacity="1.00" d=" M 37.03 169.77 C 40.53 167.82 44.56 167.24 48.39 166.24 C 45.62 169.28 40.84 169.20 37.03 169.77 Z" />
<path fill="#010101" opacity="1.00" d=" M 71.71 167.60 C 73.97 166.23 76.65 166.41 79.18 166.57 C 76.86 167.71 74.24 167.69 71.71 167.60 Z" />
<path fill="#010101" opacity="1.00" d=" M 234.93 167.24 L 236.25 167.16 C 236.76 169.90 236.58 172.72 236.49 175.49 C 236.06 175.59 235.21 175.79 234.78 175.89 C 234.35 173.04 234.30 170.06 234.93 167.24 Z" />
<path fill="#010101" opacity="1.00" d=" M 406.28 170.91 C 407.73 168.92 409.63 167.23 412.03 166.48 C 409.95 169.91 405.99 171.42 403.57 174.53 C 401.54 177.18 399.58 179.90 397.36 182.40 C 396.70 182.45 395.37 182.56 394.71 182.62 C 396.43 180.74 398.35 179.07 400.14 177.27 C 401.51 174.56 403.91 172.69 406.28 170.91 Z" />
<path fill="#010101" opacity="1.00" d=" M 518.17 167.62 C 519.62 168.97 520.63 170.96 520.18 172.99 C 517.43 172.82 518.62 169.41 518.17 167.62 Z" />
<path fill="#010101" opacity="1.00" d=" M 139.70 169.20 C 140.22 169.22 141.25 169.28 141.76 169.30 C 142.37 173.66 139.02 177.31 134.90 178.16 C 129.28 178.84 123.61 178.21 118.01 177.67 C 105.67 177.48 93.32 177.48 80.98 177.62 C 75.62 177.56 70.32 178.64 64.96 178.41 L 65.95 176.95 C 69.88 176.16 73.93 176.45 77.92 176.26 C 93.24 175.23 108.61 175.17 123.96 175.71 C 128.45 175.83 133.53 177.19 137.56 174.54 C 139.41 173.38 139.54 171.14 139.70 169.20 Z" />
<path fill="#010101" opacity="1.00" d=" M 36.60 172.64 C 40.49 171.61 44.48 170.97 48.41 170.07 C 45.06 172.67 40.66 172.92 36.60 172.64 Z" />
<path fill="#010101" opacity="1.00" d=" M 484.38 172.63 C 490.64 172.64 496.99 173.19 503.05 174.84 C 502.44 175.21 501.22 175.95 500.62 176.31 C 500.22 177.53 499.76 178.75 498.50 179.30 C 498.47 178.37 498.40 176.51 498.36 175.59 C 496.14 175.43 493.90 175.34 491.68 175.33 C 491.54 176.32 491.27 178.29 491.13 179.28 C 490.45 177.72 489.84 176.16 489.26 174.57 C 488.54 174.56 487.10 174.53 486.39 174.52 C 486.40 176.11 486.41 177.69 486.43 179.28 C 487.23 179.33 488.83 179.42 489.63 179.46 C 488.67 180.20 487.71 180.93 486.76 181.68 C 486.52 182.89 485.84 183.76 484.74 184.29 C 484.60 180.40 484.54 176.51 484.38 172.63 Z" />
<path fill="#010101" opacity="1.00" d=" M 37.32 176.74 C 40.96 175.06 45.04 174.66 48.97 174.08 C 45.41 176.00 41.32 176.68 37.32 176.74 Z" />
<path fill="#010101" opacity="1.00" d=" M 274.65 177.73 C 280.49 177.38 286.00 175.31 291.45 173.35 C 291.05 179.66 291.99 185.90 292.54 192.16 C 287.05 194.05 281.37 195.42 275.55 195.62 C 273.46 189.85 275.04 183.69 274.65 177.73 M 285.46 176.75 C 285.41 177.86 285.36 178.97 285.32 180.08 C 287.04 179.54 288.75 178.97 290.46 178.40 C 290.41 177.59 290.32 175.96 290.27 175.15 C 288.67 175.68 287.07 176.22 285.46 176.75 M 283.31 177.55 C 281.80 177.71 280.31 178.03 278.85 178.40 C 277.43 178.85 274.52 179.19 275.71 181.52 C 278.81 181.43 285.54 182.39 284.44 177.48 C 284.16 177.50 283.59 177.53 283.31 177.55 M 285.64 180.84 C 285.56 182.89 285.50 184.93 285.45 186.99 C 287.19 186.42 288.93 185.84 290.67 185.26 C 290.57 183.51 290.48 181.77 290.38 180.02 C 288.80 180.30 287.22 180.57 285.64 180.84 M 275.68 182.84 C 275.61 184.77 275.53 186.69 275.47 188.62 C 278.51 188.47 281.54 188.07 284.53 187.44 C 284.47 185.51 284.41 183.58 284.35 181.66 C 281.50 182.31 278.59 182.63 275.68 182.84 M 285.51 188.52 C 285.60 190.05 285.70 191.58 285.79 193.12 C 287.76 192.53 289.72 191.92 291.69 191.30 C 291.35 189.56 291.00 187.83 290.65 186.10 C 288.93 186.90 287.22 187.70 285.51 188.52 M 275.25 189.66 C 275.66 191.28 276.10 192.90 276.57 194.51 C 279.27 194.33 281.97 194.01 284.64 193.48 C 284.60 191.82 284.56 190.17 284.53 188.51 C 281.47 189.13 278.37 189.51 275.25 189.66 Z" />
<path fill="#010101" opacity="1.00" d=" M 39.36 178.65 C 42.70 178.62 46.03 178.38 49.36 178.35 C 46.17 179.74 42.67 179.73 39.25 179.68 C 39.28 179.42 39.33 178.91 39.36 178.65 Z" />
<path fill="#010101" opacity="1.00" d=" M 95.19 187.78 C 93.19 184.11 96.23 180.61 98.80 178.26 C 104.06 177.36 109.14 183.03 107.13 188.11 C 105.15 193.16 96.94 192.89 95.19 187.78 M 96.66 186.09 C 97.33 187.50 98.96 190.41 100.74 188.80 C 100.68 186.64 100.31 184.50 100.22 182.34 C 100.81 182.36 102.00 182.39 102.60 182.41 C 102.40 184.93 102.16 187.46 102.16 189.99 C 104.22 188.77 105.71 186.90 105.65 184.44 C 104.10 182.85 102.64 180.55 100.05 181.27 C 97.53 181.04 96.56 184.09 96.66 186.09 Z" />
<path fill="#010101" opacity="1.00" d=" M 490.27 180.29 C 492.12 180.28 493.98 180.29 495.84 180.30 C 495.86 180.58 495.90 181.16 495.92 181.45 C 494.76 181.75 493.61 182.06 492.46 182.37 C 492.42 183.41 492.35 185.50 492.31 186.54 C 494.36 186.52 496.67 185.98 498.39 187.45 C 496.41 188.25 492.41 187.45 493.45 190.80 C 493.05 190.66 492.26 190.38 491.86 190.24 C 491.56 186.89 490.79 183.61 490.27 180.29 Z" />
<path fill="#010101" opacity="1.00" d=" M 498.13 180.40 C 499.49 180.43 500.86 180.46 502.24 180.49 C 501.64 181.24 501.04 181.99 500.44 182.74 C 500.48 183.67 500.54 185.53 500.58 186.46 C 498.59 185.11 498.72 182.48 498.13 180.40 Z" />
<path fill="#010101" opacity="1.00" d=" M 595.95 182.33 C 597.40 181.92 597.95 182.39 597.60 183.73 C 596.13 184.12 595.58 183.65 595.95 182.33 Z" />
<path fill="#010101" opacity="1.00" d=" M 392.49 182.76 C 394.16 182.30 394.66 182.87 393.99 184.46 C 392.32 184.91 391.82 184.34 392.49 182.76 Z" />
<path fill="#010101" opacity="1.00" d=" M 383.32 184.01 C 384.33 182.48 386.78 184.25 385.60 185.69 C 384.61 187.29 382.21 185.42 383.32 184.01 Z" />
<path fill="#010101" opacity="1.00" d=" M 388.17 186.27 C 386.36 185.74 387.56 183.02 389.20 183.57 C 391.12 184.02 389.78 186.82 388.17 186.27 Z" />
<path fill="#010101" opacity="1.00" d=" M 353.35 187.46 C 359.02 184.73 366.15 193.46 361.15 198.20 C 357.56 202.86 349.67 199.17 349.39 193.82 C 349.12 191.11 350.80 188.40 353.35 187.46 M 353.71 189.66 C 351.59 190.74 351.24 193.24 351.74 195.35 C 353.48 195.82 355.31 195.63 357.10 195.73 C 356.69 195.43 355.87 194.81 355.46 194.50 C 354.99 193.27 354.53 192.05 354.07 190.82 C 355.43 190.31 356.78 189.78 358.14 189.25 C 356.66 189.34 355.16 189.35 353.71 189.66 M 359.44 190.59 C 359.37 192.80 359.46 195.01 359.65 197.22 C 360.67 195.06 360.79 192.63 359.44 190.59 Z" />
<path fill="#010101" opacity="1.00" d=" M 391.30 192.73 C 388.78 191.92 388.80 188.75 390.04 186.86 C 390.65 188.24 390.38 190.36 392.00 191.08 C 393.51 191.46 395.07 191.70 396.60 192.03 C 395.04 193.09 393.04 193.91 391.30 192.73 Z" />
<path fill="#010101" opacity="1.00" d=" M 423.80 189.43 C 424.13 188.80 424.78 187.54 425.11 186.91 C 426.82 185.94 428.05 187.54 429.23 188.54 C 428.02 188.45 426.83 188.35 425.64 188.25 C 425.00 189.03 424.34 189.79 423.65 190.51 C 420.41 190.76 417.10 190.68 413.93 189.92 C 417.04 188.72 420.54 189.86 423.80 189.43 Z" />
<path fill="#010101" opacity="1.00" d=" M 500.06 187.23 C 501.70 187.23 503.35 187.22 505.01 187.19 C 503.42 188.14 502.49 190.52 500.60 190.68 C 500.38 189.53 500.20 188.38 500.06 187.23 Z" />
<path fill="#010101" opacity="1.00" d=" M 401.29 189.16 C 402.31 188.30 404.63 189.22 403.57 190.67 C 402.44 192.83 398.48 190.45 401.29 189.16 Z" />
<path fill="#010101" opacity="1.00" d=" M 405.53 189.22 C 406.74 188.29 407.43 188.50 407.61 189.87 C 406.39 190.79 405.69 190.57 405.53 189.22 Z" />
<path fill="#010101" opacity="1.00" d=" M 531.96 194.11 C 532.72 191.95 533.73 189.62 536.23 189.12 C 537.05 191.49 537.82 194.09 536.18 196.32 C 535.79 195.85 535.01 194.92 534.62 194.46 C 533.96 194.37 532.62 194.20 531.96 194.11 Z" />
<path fill="#010101" opacity="1.00" d=" M 608.77 189.89 C 609.06 187.92 613.64 188.15 612.45 190.33 C 611.45 191.03 609.24 191.33 608.77 189.89 Z" />
<path fill="#010101" opacity="1.00" d=" M 664.20 196.01 C 663.80 193.66 665.80 192.07 667.00 190.35 L 667.00 191.43 C 665.10 193.88 664.81 196.82 667.00 199.20 L 667.00 200.33 C 666.03 198.94 664.24 197.86 664.20 196.01 Z" />
<path fill="#010101" opacity="1.00" d=" M 244.30 200.42 C 248.73 199.17 254.66 203.06 252.94 207.98 C 251.41 213.24 243.33 213.97 240.57 209.43 C 238.45 206.17 240.53 201.24 244.30 200.42 M 242.76 202.82 C 242.41 205.00 242.36 207.21 242.55 209.40 C 244.79 209.50 247.06 209.81 249.29 209.41 C 251.46 208.31 250.34 205.57 250.55 203.64 C 249.39 203.45 248.23 203.26 247.08 203.08 C 247.30 205.03 247.88 206.83 250.19 207.04 C 248.83 209.61 245.37 208.12 243.08 208.60 C 243.46 207.85 244.22 206.36 244.60 205.61 C 243.98 204.68 243.37 203.75 242.76 202.82 Z" />
</g>
<g id="#6b0002a7">
<path fill="#6b0002" opacity="0.65" d=" M 123.19 64.25 C 126.57 64.23 121.74 67.26 123.19 64.25 Z" />
<path fill="#6b0002" opacity="0.65" d=" M 186.80 136.78 C 190.05 135.53 193.38 133.99 196.95 134.35 C 202.77 134.67 208.11 138.49 210.57 143.72 C 212.27 147.80 211.10 152.38 209.05 156.11 C 208.70 156.74 208.01 158.01 207.67 158.65 C 204.26 160.45 200.85 162.32 197.00 163.02 C 196.05 162.58 195.07 162.24 194.06 161.97 C 191.94 161.44 189.94 160.53 188.20 159.21 C 187.48 158.57 186.78 157.91 186.10 157.24 C 185.31 156.47 184.52 155.71 183.73 154.95 C 183.28 151.97 182.46 148.97 182.77 145.94 C 183.30 142.58 185.26 139.73 186.80 136.78 M 187.40 140.58 C 187.02 141.82 186.64 143.07 186.25 144.31 L 186.26 144.63 C 185.90 146.62 185.76 148.63 185.61 150.64 L 186.20 150.64 L 186.13 151.73 C 186.69 152.61 187.25 153.50 187.81 154.38 C 187.94 154.71 188.20 155.36 188.33 155.68 C 188.70 155.92 189.43 156.39 189.79 156.63 C 191.33 159.28 194.67 158.60 197.23 159.14 C 199.69 158.35 202.96 158.97 204.41 156.37 C 206.14 156.34 206.54 154.33 207.17 153.14 C 207.40 152.96 207.86 152.60 208.08 152.43 C 207.50 148.20 207.95 142.86 204.05 140.05 C 199.31 135.98 192.11 137.00 187.40 140.58 Z" />
<path fill="#6b0002" opacity="0.65" d=" M 495.41 144.57 C 494.12 140.55 498.79 138.86 501.96 138.61 C 503.56 138.81 504.71 140.10 506.06 140.86 C 504.87 142.07 503.89 143.55 502.40 144.43 C 500.11 144.99 497.73 144.64 495.41 144.57 Z" />
<path fill="#6b0002" opacity="0.65" d=" M 421.71 141.94 C 424.80 139.76 428.76 140.83 431.71 142.69 C 431.34 143.32 430.58 144.59 430.21 145.22 C 428.47 145.62 426.68 146.84 424.90 145.99 C 423.17 145.38 420.29 144.30 421.71 141.94 Z" />
</g>
</svg>
